<?xml version="1.0" encoding="UTF-8" standalone="no"?>
<!DOCTYPE svg PUBLIC "-//W3C//DTD SVG 1.1//EN"
 "http://www.w3.org/Graphics/SVG/1.1/DTD/svg11.dtd">
<!-- Generated by graphviz version 2.38.0 (20140413.2041)
 -->
<!-- Title: src/commands.h Pages: 1 -->
<svg width="271pt" height="82pt"
 viewBox="0.00 0.00 270.79 82.00" xmlns="http://www.w3.org/2000/svg" xmlns:xlink="http://www.w3.org/1999/xlink">
<g id="graph0" class="graph" transform="scale(1 1) rotate(0) translate(4 78)">
<title>src/commands.h</title>
<!-- Node1 -->
<g id="node1" class="node"><title>Node1</title>
<polygon fill="#bfbfbf" stroke="black" points="96.7192,-55.5 96.7192,-73.5 186.074,-73.5 186.074,-55.5 96.7192,-55.5"/>
<text text-anchor="middle" x="141.396" y="-61.5" font-family="Helvetica,sans-Serif" font-size="10.00">src/commands.h</text>
</g>
<!-- Node2 -->
<g id="node2" class="node"><title>Node2</title>
<g id="a_node2"><a xlink:href="commands_8c.html" target="_top" xlink:title="src/commands.c">
<polygon fill="none" stroke="black" points="0,-0.5 0,-18.5 88.793,-18.5 88.793,-0.5 0,-0.5"/>
<text text-anchor="middle" x="44.3965" y="-6.5" font-family="Helvetica,sans-Serif" font-size="10.00">src/commands.c</text>
</a>
</g>
</g>
<!-- Node1&#45;&gt;Node2 -->
<g id="edge1" class="edge"><title>Node1&#45;&gt;Node2</title>
<path fill="none" stroke="midnightblue" d="M117.793,-50.603C99.5452,-40.6328 74.847,-27.1379 59.2673,-18.6253"/>
<polygon fill="midnightblue" stroke="midnightblue" points="116.211,-53.727 126.664,-55.4504 119.567,-47.5841 116.211,-53.727"/>
</g>
<!-- Node3 -->
<g id="node3" class="node"><title>Node3</title>
<g id="a_node3"><a xlink:href="control_8c.html" target="_top" xlink:title="src/control.c">
<polygon fill="none" stroke="black" points="106.446,-0.5 106.446,-18.5 176.347,-18.5 176.347,-0.5 106.446,-0.5"/>
<text text-anchor="middle" x="141.396" y="-6.5" font-family="Helvetica,sans-Serif" font-size="10.00">src/control.c</text>
</a>
</g>
</g>
<!-- Node1&#45;&gt;Node3 -->
<g id="edge2" class="edge"><title>Node1&#45;&gt;Node3</title>
<path fill="none" stroke="midnightblue" d="M141.396,-45.1746C141.396,-36.0945 141.396,-25.5949 141.396,-18.5496"/>
<polygon fill="midnightblue" stroke="midnightblue" points="137.897,-45.2187 141.396,-55.2188 144.897,-45.2188 137.897,-45.2187"/>
</g>
<!-- Node4 -->
<g id="node4" class="node"><title>Node4</title>
<g id="a_node4"><a xlink:href="spawn_8c.html" target="_top" xlink:title="src/spawn.c">
<polygon fill="none" stroke="black" points="194,-0.5 194,-18.5 262.793,-18.5 262.793,-0.5 194,-0.5"/>
<text text-anchor="middle" x="228.396" y="-6.5" font-family="Helvetica,sans-Serif" font-size="10.00">src/spawn.c</text>
</a>
</g>
</g>
<!-- Node1&#45;&gt;Node4 -->
<g id="edge3" class="edge"><title>Node1&#45;&gt;Node4</title>
<path fill="none" stroke="midnightblue" d="M163.474,-50.0507C179.743,-40.1393 201.342,-26.9817 215.059,-18.6253"/>
<polygon fill="midnightblue" stroke="midnightblue" points="161.329,-47.2588 154.61,-55.4504 164.971,-53.2368 161.329,-47.2588"/>
</g>
</g>
</svg>
