<?xml version="1.0" encoding="UTF-8" standalone="no"?>
<!DOCTYPE svg PUBLIC "-//W3C//DTD SVG 1.1//EN"
 "http://www.w3.org/Graphics/SVG/1.1/DTD/svg11.dtd">
<!-- Generated by graphviz version 2.38.0 (20140413.2041)
 -->
<!-- Title: src/commands.h Pages: 1 -->
<svg width="97pt" height="137pt"
 viewBox="0.00 0.00 97.35 137.00" xmlns="http://www.w3.org/2000/svg" xmlns:xlink="http://www.w3.org/1999/xlink">
<g id="graph0" class="graph" transform="scale(1 1) rotate(0) translate(4 133)">
<title>src/commands.h</title>
<!-- Node1 -->
<g id="node1" class="node"><title>Node1</title>
<polygon fill="#bfbfbf" stroke="black" points="0,-110.5 0,-128.5 89.3545,-128.5 89.3545,-110.5 0,-110.5"/>
<text text-anchor="middle" x="44.6772" y="-116.5" font-family="Helvetica,sans-Serif" font-size="10.00">src/commands.h</text>
</g>
<!-- Node2 -->
<g id="node2" class="node"><title>Node2</title>
<g id="a_node2"><a xlink:href="ventd_8h.html" target="_top" xlink:title="ventd.h">
<polygon fill="none" stroke="black" points="20.2759,-55.5 20.2759,-73.5 69.0786,-73.5 69.0786,-55.5 20.2759,-55.5"/>
<text text-anchor="middle" x="44.6772" y="-61.5" font-family="Helvetica,sans-Serif" font-size="10.00">ventd.h</text>
</a>
</g>
</g>
<!-- Node1&#45;&gt;Node2 -->
<g id="edge1" class="edge"><title>Node1&#45;&gt;Node2</title>
<path fill="none" stroke="midnightblue" d="M44.6772,-110.219C44.6772,-103.177 44.6772,-92.8083 44.6772,-83.8277"/>
<polygon fill="midnightblue" stroke="midnightblue" points="48.1773,-83.5495 44.6772,-73.5496 41.1773,-83.5496 48.1773,-83.5495"/>
</g>
<!-- Node3 -->
<g id="node3" class="node"><title>Node3</title>
<polygon fill="none" stroke="#bfbfbf" points="20.835,-0.5 20.835,-18.5 68.5195,-18.5 68.5195,-0.5 20.835,-0.5"/>
<text text-anchor="middle" x="44.6772" y="-6.5" font-family="Helvetica,sans-Serif" font-size="10.00">stdlib.h</text>
</g>
<!-- Node2&#45;&gt;Node3 -->
<g id="edge2" class="edge"><title>Node2&#45;&gt;Node3</title>
<path fill="none" stroke="midnightblue" d="M44.6772,-55.2188C44.6772,-48.1769 44.6772,-37.8083 44.6772,-28.8277"/>
<polygon fill="midnightblue" stroke="midnightblue" points="48.1773,-28.5495 44.6772,-18.5496 41.1773,-28.5496 48.1773,-28.5495"/>
</g>
</g>
</svg>
