<?xml version="1.0" encoding="UTF-8" standalone="no"?>
<!DOCTYPE svg PUBLIC "-//W3C//DTD SVG 1.1//EN"
 "http://www.w3.org/Graphics/SVG/1.1/DTD/svg11.dtd">
<!-- Generated by graphviz version 2.38.0 (20140413.2041)
 -->
<!-- Title: spawn Pages: 1 -->
<svg width="636pt" height="83pt"
 viewBox="0.00 0.00 635.88 83.00" xmlns="http://www.w3.org/2000/svg" xmlns:xlink="http://www.w3.org/1999/xlink">
<g id="graph0" class="graph" transform="scale(1 1) rotate(0) translate(4 79)">
<title>spawn</title>
<!-- Node1 -->
<g id="node1" class="node"><title>Node1</title>
<polygon fill="#bfbfbf" stroke="black" points="0,-36.5 0,-54.5 44.9062,-54.5 44.9062,-36.5 0,-36.5"/>
<text text-anchor="middle" x="22.4531" y="-42.5" font-family="Helvetica,sans-Serif" font-size="10.00">spawn</text>
</g>
<!-- Node2 -->
<g id="node2" class="node"><title>Node2</title>
<g id="a_node2"><a xlink:href="spawn_8c.html#a8eb7d4bb0b70fdc4d22c148462556b26" target="_top" xlink:title="spawn_option_parse">
<polygon fill="none" stroke="black" points="80.9062,-55.5 80.9062,-73.5 189.196,-73.5 189.196,-55.5 80.9062,-55.5"/>
<text text-anchor="middle" x="135.051" y="-61.5" font-family="Helvetica,sans-Serif" font-size="10.00">spawn_option_parse</text>
</a>
</g>
</g>
<!-- Node1&#45;&gt;Node2 -->
<g id="edge1" class="edge"><title>Node1&#45;&gt;Node2</title>
<path fill="none" stroke="midnightblue" d="M45.0401,-49.2085C52.7851,-50.539 61.9567,-52.1147 71.42,-53.7404"/>
<polygon fill="midnightblue" stroke="midnightblue" points="70.8915,-57.2008 81.3397,-55.4445 72.0767,-50.3018 70.8915,-57.2008"/>
</g>
<!-- Node3 -->
<g id="node3" class="node"><title>Node3</title>
<g id="a_node3"><a xlink:href="spawn_8c.html#a6b7dbc7336de69886687582bfa843c62" target="_top" xlink:title="fork_process">
<polygon fill="none" stroke="black" points="98.4282,-18.5 98.4282,-36.5 171.674,-36.5 171.674,-18.5 98.4282,-18.5"/>
<text text-anchor="middle" x="135.051" y="-24.5" font-family="Helvetica,sans-Serif" font-size="10.00">fork_process</text>
</a>
</g>
</g>
<!-- Node1&#45;&gt;Node3 -->
<g id="edge2" class="edge"><title>Node1&#45;&gt;Node3</title>
<path fill="none" stroke="midnightblue" d="M45.0401,-41.9867C57.2985,-39.9916 73.1308,-37.4149 88.0367,-34.9889"/>
<polygon fill="midnightblue" stroke="midnightblue" points="88.8449,-38.4035 98.1528,-33.3425 87.7204,-31.4944 88.8449,-38.4035"/>
</g>
<!-- Node4 -->
<g id="node4" class="node"><title>Node4</title>
<g id="a_node4"><a xlink:href="spawn_8c.html#afceef742d30ed3d8c0dbc4891ae2229e" target="_top" xlink:title="sig_chld">
<polygon fill="none" stroke="black" points="232.142,-37.5 232.142,-55.5 284.832,-55.5 284.832,-37.5 232.142,-37.5"/>
<text text-anchor="middle" x="258.487" y="-43.5" font-family="Helvetica,sans-Serif" font-size="10.00">sig_chld</text>
</a>
</g>
</g>
<!-- Node3&#45;&gt;Node4 -->
<g id="edge3" class="edge"><title>Node3&#45;&gt;Node4</title>
<path fill="none" stroke="midnightblue" d="M171.829,-33.0979C187.669,-35.5762 206.25,-38.4833 222.05,-40.9555"/>
<polygon fill="midnightblue" stroke="midnightblue" points="221.554,-44.4203 231.974,-42.5083 222.636,-37.5045 221.554,-44.4203"/>
</g>
<!-- Node8 -->
<g id="node8" class="node"><title>Node8</title>
<g id="a_node8"><a xlink:href="spawn_8c.html#a908ff2fd32bc6d35de2f746a75381d28" target="_top" xlink:title="insert_child">
<polygon fill="none" stroke="black" points="225.196,-0.5 225.196,-18.5 291.777,-18.5 291.777,-0.5 225.196,-0.5"/>
<text text-anchor="middle" x="258.487" y="-6.5" font-family="Helvetica,sans-Serif" font-size="10.00">insert_child</text>
</a>
</g>
</g>
<!-- Node3&#45;&gt;Node8 -->
<g id="edge9" class="edge"><title>Node3&#45;&gt;Node8</title>
<path fill="none" stroke="midnightblue" d="M171.829,-22.1968C185.341,-20.194 200.846,-17.8957 214.919,-15.8097"/>
<polygon fill="midnightblue" stroke="midnightblue" points="215.486,-19.264 224.864,-14.3355 214.459,-12.3397 215.486,-19.264"/>
</g>
<!-- Node5 -->
<g id="node5" class="node"><title>Node5</title>
<g id="a_node5"><a xlink:href="spawn_8c.html#aa98600dba1297718d8bcb80f3f2e9a7f" target="_top" xlink:title="lookup_child">
<polygon fill="none" stroke="black" points="439.25,-56.5 439.25,-74.5 510.846,-74.5 510.846,-56.5 439.25,-56.5"/>
<text text-anchor="middle" x="475.048" y="-62.5" font-family="Helvetica,sans-Serif" font-size="10.00">lookup_child</text>
</a>
</g>
</g>
<!-- Node4&#45;&gt;Node5 -->
<g id="edge4" class="edge"><title>Node4&#45;&gt;Node5</title>
<path fill="none" stroke="midnightblue" d="M284.942,-48.7542C320.397,-51.8938 385.207,-57.6329 428.951,-61.5065"/>
<polygon fill="midnightblue" stroke="midnightblue" points="428.77,-65.0041 439.039,-62.3999 429.387,-58.0314 428.77,-65.0041"/>
</g>
<!-- Node7 -->
<g id="node7" class="node"><title>Node7</title>
<g id="a_node7"><a xlink:href="spawn_8c.html#aab3f6f39289a3ae5734f5479f8126b4a" target="_top" xlink:title="remove_child">
<polygon fill="none" stroke="black" points="327.777,-18.5 327.777,-36.5 403.25,-36.5 403.25,-18.5 327.777,-18.5"/>
<text text-anchor="middle" x="365.514" y="-24.5" font-family="Helvetica,sans-Serif" font-size="10.00">remove_child</text>
</a>
</g>
</g>
<!-- Node4&#45;&gt;Node7 -->
<g id="edge6" class="edge"><title>Node4&#45;&gt;Node7</title>
<path fill="none" stroke="midnightblue" d="M284.911,-41.9006C294.672,-40.1348 306.152,-38.058 317.309,-36.0395"/>
<polygon fill="midnightblue" stroke="midnightblue" points="318.189,-39.4372 327.407,-34.2129 316.943,-32.549 318.189,-39.4372"/>
</g>
<!-- Node6 -->
<g id="node6" class="node"><title>Node6</title>
<g id="a_node6"><a xlink:href="spawn_8c.html#aa09040e4e3147c7624f7011c58f692b8" target="_top" xlink:title="child_compare">
<polygon fill="none" stroke="black" points="546.846,-37.5 546.846,-55.5 627.88,-55.5 627.88,-37.5 546.846,-37.5"/>
<text text-anchor="middle" x="587.363" y="-43.5" font-family="Helvetica,sans-Serif" font-size="10.00">child_compare</text>
</a>
</g>
</g>
<!-- Node5&#45;&gt;Node6 -->
<g id="edge5" class="edge"><title>Node5&#45;&gt;Node6</title>
<path fill="none" stroke="midnightblue" d="M510.952,-59.4883C519.119,-58.0817 527.973,-56.5567 536.646,-55.0629"/>
<polygon fill="midnightblue" stroke="midnightblue" points="537.432,-58.4792 546.692,-53.3326 536.243,-51.5808 537.432,-58.4792"/>
</g>
<!-- Node7&#45;&gt;Node5 -->
<g id="edge7" class="edge"><title>Node7&#45;&gt;Node5</title>
<path fill="none" stroke="midnightblue" d="M391.998,-36.5055C405.958,-41.4385 423.473,-47.6281 438.732,-53.0204"/>
<polygon fill="midnightblue" stroke="midnightblue" points="437.779,-56.3956 448.374,-56.4275 440.112,-49.7956 437.779,-56.3956"/>
</g>
<!-- Node7&#45;&gt;Node6 -->
<g id="edge8" class="edge"><title>Node7&#45;&gt;Node6</title>
<path fill="none" stroke="midnightblue" d="M403.311,-30.6802C439.857,-33.8386 496.139,-38.7026 536.647,-42.2034"/>
<polygon fill="midnightblue" stroke="midnightblue" points="536.579,-45.7105 546.843,-43.0846 537.182,-38.7365 536.579,-45.7105"/>
</g>
</g>
</svg>
