<?xml version="1.0" encoding="UTF-8" standalone="no"?>
<!DOCTYPE svg PUBLIC "-//W3C//DTD SVG 1.1//EN"
 "http://www.w3.org/Graphics/SVG/1.1/DTD/svg11.dtd">
<!-- Generated by graphviz version 2.26.3 (20100126.1600)
 -->
<!-- Title: src/commands.h Pages: 1 -->
<svg width="96pt" height="146pt"
 viewBox="0.00 0.00 96.00 146.00" xmlns="http://www.w3.org/2000/svg" xmlns:xlink="http://www.w3.org/1999/xlink">
<g id="graph1" class="graph" transform="scale(1 1) rotate(0) translate(4 142)">
<title>src/commands.h</title>
<!-- Node1 -->
<g id="node1" class="node"><title>Node1</title>
<polygon fill="#bfbfbf" stroke="black" points="-0.5,-116.5 -0.5,-137.5 88.5,-137.5 88.5,-116.5 -0.5,-116.5"/>
<text text-anchor="middle" x="44" y="-124.5" font-family="Helvetica,sans-Serif" font-size="10.00">src/commands.h</text>
</g>
<!-- Node2 -->
<g id="node3" class="node"><title>Node2</title>
<a xlink:href="ventd_8h.html" target="_top" xlink:title="ventd.h">
<polygon fill="none" stroke="black" points="19.5,-58.5 19.5,-79.5 68.5,-79.5 68.5,-58.5 19.5,-58.5"/>
<text text-anchor="middle" x="44" y="-66.5" font-family="Helvetica,sans-Serif" font-size="10.00">ventd.h</text>
</a>
</g>
<!-- Node1&#45;&gt;Node2 -->
<g id="edge2" class="edge"><title>Node1&#45;&gt;Node2</title>
<path fill="none" stroke="midnightblue" d="M44,-116.362C44,-108.922 44,-98.7427 44,-89.7276"/>
<polygon fill="midnightblue" stroke="midnightblue" points="47.5001,-89.5706 44,-79.5707 40.5001,-89.5707 47.5001,-89.5706"/>
</g>
<!-- Node3 -->
<g id="node5" class="node"><title>Node3</title>
<polygon fill="none" stroke="#bfbfbf" points="20,-0.5 20,-21.5 68,-21.5 68,-0.5 20,-0.5"/>
<text text-anchor="middle" x="44" y="-8.5" font-family="Helvetica,sans-Serif" font-size="10.00">stdlib.h</text>
</g>
<!-- Node2&#45;&gt;Node3 -->
<g id="edge4" class="edge"><title>Node2&#45;&gt;Node3</title>
<path fill="none" stroke="midnightblue" d="M44,-58.3619C44,-50.9219 44,-40.7427 44,-31.7276"/>
<polygon fill="midnightblue" stroke="midnightblue" points="47.5001,-31.5706 44,-21.5707 40.5001,-31.5707 47.5001,-31.5706"/>
</g>
</g>
</svg>
