<?xml version="1.0" encoding="UTF-8" standalone="no"?>
<!DOCTYPE svg PUBLIC "-//W3C//DTD SVG 1.1//EN"
 "http://www.w3.org/Graphics/SVG/1.1/DTD/svg11.dtd">
<!-- Generated by graphviz version 2.26.3 (20100126.1600)
 -->
<!-- Title: src/commands.h Pages: 1 -->
<svg width="272pt" height="88pt"
 viewBox="0.00 0.00 272.00 88.00" xmlns="http://www.w3.org/2000/svg" xmlns:xlink="http://www.w3.org/1999/xlink">
<g id="graph1" class="graph" transform="scale(1 1) rotate(0) translate(4 84)">
<title>src/commands.h</title>
<!-- Node1 -->
<g id="node1" class="node"><title>Node1</title>
<polygon fill="#bfbfbf" stroke="black" points="96.5,-58.5 96.5,-79.5 185.5,-79.5 185.5,-58.5 96.5,-58.5"/>
<text text-anchor="middle" x="141" y="-66.5" font-family="Helvetica,sans-Serif" font-size="10.00">src/commands.h</text>
</g>
<!-- Node2 -->
<g id="node3" class="node"><title>Node2</title>
<a xlink:href="commands_8c.html" target="_top" xlink:title="src/commands.c">
<polygon fill="none" stroke="black" points="-0.5,-0.5 -0.5,-21.5 88.5,-21.5 88.5,-0.5 -0.5,-0.5"/>
<text text-anchor="middle" x="44" y="-8.5" font-family="Helvetica,sans-Serif" font-size="10.00">src/commands.c</text>
</a>
</g>
<!-- Node1&#45;&gt;Node2 -->
<g id="edge2" class="edge"><title>Node1&#45;&gt;Node2</title>
<path fill="none" stroke="midnightblue" d="M114.41,-53.1009C97.6273,-43.0658 76.4128,-30.3808 61.6785,-21.5707"/>
<polygon fill="midnightblue" stroke="midnightblue" points="112.83,-56.2339 123.209,-58.3619 116.422,-50.226 112.83,-56.2339"/>
</g>
<!-- Node3 -->
<g id="node5" class="node"><title>Node3</title>
<a xlink:href="control_8c.html" target="_top" xlink:title="src/control.c">
<polygon fill="none" stroke="black" points="105.5,-0.5 105.5,-21.5 176.5,-21.5 176.5,-0.5 105.5,-0.5"/>
<text text-anchor="middle" x="141" y="-8.5" font-family="Helvetica,sans-Serif" font-size="10.00">src/control.c</text>
</a>
</g>
<!-- Node1&#45;&gt;Node3 -->
<g id="edge4" class="edge"><title>Node1&#45;&gt;Node3</title>
<path fill="none" stroke="midnightblue" d="M141,-48.1906C141,-39.1684 141,-28.9941 141,-21.5707"/>
<polygon fill="midnightblue" stroke="midnightblue" points="137.5,-48.3619 141,-58.3619 144.5,-48.3619 137.5,-48.3619"/>
</g>
<!-- Node4 -->
<g id="node7" class="node"><title>Node4</title>
<a xlink:href="spawn_8c.html" target="_top" xlink:title="src/spawn.c">
<polygon fill="none" stroke="black" points="194,-0.5 194,-21.5 264,-21.5 264,-0.5 194,-0.5"/>
<text text-anchor="middle" x="229" y="-8.5" font-family="Helvetica,sans-Serif" font-size="10.00">src/spawn.c</text>
</a>
</g>
<!-- Node1&#45;&gt;Node4 -->
<g id="edge6" class="edge"><title>Node1&#45;&gt;Node4</title>
<path fill="none" stroke="midnightblue" d="M165.547,-52.8215C180.704,-42.8312 199.718,-30.2993 212.962,-21.5707"/>
<polygon fill="midnightblue" stroke="midnightblue" points="163.564,-49.9364 157.141,-58.3619 167.416,-55.7811 163.564,-49.9364"/>
</g>
</g>
</svg>
