<?xml version="1.0" encoding="UTF-8" standalone="no"?>
<!DOCTYPE svg PUBLIC "-//W3C//DTD SVG 1.1//EN"
 "http://www.w3.org/Graphics/SVG/1.1/DTD/svg11.dtd">
<!-- Generated by graphviz version 2.38.0 (20140413.2041)
 -->
<!-- Title: src/commands.c Pages: 1 -->
<svg width="97pt" height="192pt"
 viewBox="0.00 0.00 96.79 192.00" xmlns="http://www.w3.org/2000/svg" xmlns:xlink="http://www.w3.org/1999/xlink">
<g id="graph0" class="graph" transform="scale(1 1) rotate(0) translate(4 188)">
<title>src/commands.c</title>
<!-- Node1 -->
<g id="node1" class="node"><title>Node1</title>
<polygon fill="#bfbfbf" stroke="black" points="0,-165.5 0,-183.5 88.793,-183.5 88.793,-165.5 0,-165.5"/>
<text text-anchor="middle" x="44.3965" y="-171.5" font-family="Helvetica,sans-Serif" font-size="10.00">src/commands.c</text>
</g>
<!-- Node2 -->
<g id="node2" class="node"><title>Node2</title>
<g id="a_node2"><a xlink:href="commands_8h.html" target="_top" xlink:title="commands.h">
<polygon fill="none" stroke="black" points="7.77344,-110.5 7.77344,-128.5 81.0195,-128.5 81.0195,-110.5 7.77344,-110.5"/>
<text text-anchor="middle" x="44.3965" y="-116.5" font-family="Helvetica,sans-Serif" font-size="10.00">commands.h</text>
</a>
</g>
</g>
<!-- Node1&#45;&gt;Node2 -->
<g id="edge1" class="edge"><title>Node1&#45;&gt;Node2</title>
<path fill="none" stroke="midnightblue" d="M44.3965,-165.219C44.3965,-158.177 44.3965,-147.808 44.3965,-138.828"/>
<polygon fill="midnightblue" stroke="midnightblue" points="47.8966,-138.55 44.3965,-128.55 40.8966,-138.55 47.8966,-138.55"/>
</g>
<!-- Node3 -->
<g id="node3" class="node"><title>Node3</title>
<g id="a_node3"><a xlink:href="ventd_8h.html" target="_top" xlink:title="ventd.h">
<polygon fill="none" stroke="black" points="19.9951,-55.5 19.9951,-73.5 68.7979,-73.5 68.7979,-55.5 19.9951,-55.5"/>
<text text-anchor="middle" x="44.3965" y="-61.5" font-family="Helvetica,sans-Serif" font-size="10.00">ventd.h</text>
</a>
</g>
</g>
<!-- Node2&#45;&gt;Node3 -->
<g id="edge2" class="edge"><title>Node2&#45;&gt;Node3</title>
<path fill="none" stroke="midnightblue" d="M44.3965,-110.219C44.3965,-103.177 44.3965,-92.8083 44.3965,-83.8277"/>
<polygon fill="midnightblue" stroke="midnightblue" points="47.8966,-83.5495 44.3965,-73.5496 40.8966,-83.5496 47.8966,-83.5495"/>
</g>
<!-- Node4 -->
<g id="node4" class="node"><title>Node4</title>
<polygon fill="none" stroke="#bfbfbf" points="20.5542,-0.5 20.5542,-18.5 68.2388,-18.5 68.2388,-0.5 20.5542,-0.5"/>
<text text-anchor="middle" x="44.3965" y="-6.5" font-family="Helvetica,sans-Serif" font-size="10.00">stdlib.h</text>
</g>
<!-- Node3&#45;&gt;Node4 -->
<g id="edge3" class="edge"><title>Node3&#45;&gt;Node4</title>
<path fill="none" stroke="midnightblue" d="M44.3965,-55.2188C44.3965,-48.1769 44.3965,-37.8083 44.3965,-28.8277"/>
<polygon fill="midnightblue" stroke="midnightblue" points="47.8966,-28.5495 44.3965,-18.5496 40.8966,-28.5496 47.8966,-28.5495"/>
</g>
</g>
</svg>
