<?xml version="1.0" encoding="UTF-8" standalone="no"?>
<!DOCTYPE svg PUBLIC "-//W3C//DTD SVG 1.1//EN"
 "http://www.w3.org/Graphics/SVG/1.1/DTD/svg11.dtd">
<!-- Generated by graphviz version 2.38.0 (20140413.2041)
 -->
<!-- Title: execute Pages: 1 -->
<svg width="253pt" height="27pt"
 viewBox="0.00 0.00 253.07 27.00" xmlns="http://www.w3.org/2000/svg" xmlns:xlink="http://www.w3.org/1999/xlink">
<g id="graph0" class="graph" transform="scale(1 1) rotate(0) translate(4 23)">
<title>execute</title>
<!-- Node1 -->
<g id="node1" class="node"><title>Node1</title>
<polygon fill="#bfbfbf" stroke="black" points="0,-0.5 0,-18.5 51.0244,-18.5 51.0244,-0.5 0,-0.5"/>
<text text-anchor="middle" x="25.5122" y="-6.5" font-family="Helvetica,sans-Serif" font-size="10.00">execute</text>
</g>
<!-- Node2 -->
<g id="node2" class="node"><title>Node2</title>
<g id="a_node2"><a xlink:href="ventd_8h.html#afb21092d2ff9f3777a77bb74e37db7b1" target="_top" xlink:title="command_loop">
<polygon fill="none" stroke="black" points="87.0244,-0.5 87.0244,-18.5 171.398,-18.5 171.398,-0.5 87.0244,-0.5"/>
<text text-anchor="middle" x="129.211" y="-6.5" font-family="Helvetica,sans-Serif" font-size="10.00">command_loop</text>
</a>
</g>
</g>
<!-- Node1&#45;&gt;Node2 -->
<g id="edge1" class="edge"><title>Node1&#45;&gt;Node2</title>
<path fill="none" stroke="midnightblue" d="M61.1486,-9.5C69.3842,-9.5 78.2535,-9.5 86.7594,-9.5"/>
<polygon fill="midnightblue" stroke="midnightblue" points="61.1308,-6.0001 51.1308,-9.5 61.1307,-13.0001 61.1308,-6.0001"/>
</g>
<!-- Node3 -->
<g id="node3" class="node"><title>Node3</title>
<g id="a_node3"><a xlink:href="ventd_8c.html#a3c04138a5bfe5d72780bb7e82a18e627" target="_top" xlink:title="main">
<polygon fill="none" stroke="black" points="207.398,-0.5 207.398,-18.5 245.073,-18.5 245.073,-0.5 207.398,-0.5"/>
<text text-anchor="middle" x="226.236" y="-6.5" font-family="Helvetica,sans-Serif" font-size="10.00">main</text>
</a>
</g>
</g>
<!-- Node2&#45;&gt;Node3 -->
<g id="edge2" class="edge"><title>Node2&#45;&gt;Node3</title>
<path fill="none" stroke="midnightblue" d="M181.845,-9.5C190.893,-9.5 199.741,-9.5 207.062,-9.5"/>
<polygon fill="midnightblue" stroke="midnightblue" points="181.614,-6.0001 171.614,-9.5 181.614,-13.0001 181.614,-6.0001"/>
</g>
</g>
</svg>
