<?xml version="1.0" encoding="UTF-8" standalone="no"?>
<!DOCTYPE svg PUBLIC "-//W3C//DTD SVG 1.1//EN"
 "http://www.w3.org/Graphics/SVG/1.1/DTD/svg11.dtd">
<!-- Generated by graphviz version 2.26.3 (20100126.1600)
 -->
<!-- Title: src/control.c Pages: 1 -->
<svg width="384pt" height="204pt"
 viewBox="0.00 0.00 384.00 204.00" xmlns="http://www.w3.org/2000/svg" xmlns:xlink="http://www.w3.org/1999/xlink">
<g id="graph1" class="graph" transform="scale(1 1) rotate(0) translate(4 200)">
<title>src/control.c</title>
<!-- Node1 -->
<g id="node1" class="node"><title>Node1</title>
<polygon fill="#bfbfbf" stroke="black" points="142.5,-174.5 142.5,-195.5 213.5,-195.5 213.5,-174.5 142.5,-174.5"/>
<text text-anchor="middle" x="178" y="-182.5" font-family="Helvetica,sans-Serif" font-size="10.00">src/control.c</text>
</g>
<!-- Node2 -->
<g id="node3" class="node"><title>Node2</title>
<a xlink:href="ventd_8h.html" target="_top" xlink:title="ventd.h">
<polygon fill="none" stroke="black" points="-0.5,-58.5 -0.5,-79.5 48.5,-79.5 48.5,-58.5 -0.5,-58.5"/>
<text text-anchor="middle" x="24" y="-66.5" font-family="Helvetica,sans-Serif" font-size="10.00">ventd.h</text>
</a>
</g>
<!-- Node1&#45;&gt;Node2 -->
<g id="edge2" class="edge"><title>Node1&#45;&gt;Node2</title>
<path fill="none" stroke="midnightblue" d="M142.444,-180.052C98.2853,-173.095 26.8212,-158.889 11,-138 0.475249,-124.104 5.76497,-104.203 12.4854,-89.341"/>
<polygon fill="midnightblue" stroke="midnightblue" points="15.8209,-90.499 17.1899,-79.993 9.56804,-87.3522 15.8209,-90.499"/>
</g>
<!-- Node4 -->
<g id="node7" class="node"><title>Node4</title>
<a xlink:href="commands_8h.html" target="_top" xlink:title="commands.h">
<polygon fill="none" stroke="black" points="19.5,-116.5 19.5,-137.5 92.5,-137.5 92.5,-116.5 19.5,-116.5"/>
<text text-anchor="middle" x="56" y="-124.5" font-family="Helvetica,sans-Serif" font-size="10.00">commands.h</text>
</a>
</g>
<!-- Node1&#45;&gt;Node4 -->
<g id="edge6" class="edge"><title>Node1&#45;&gt;Node4</title>
<path fill="none" stroke="midnightblue" d="M155.907,-174.497C136.766,-165.397 108.854,-152.127 87.3947,-141.925"/>
<polygon fill="midnightblue" stroke="midnightblue" points="88.8753,-138.754 78.3412,-137.621 85.8698,-145.076 88.8753,-138.754"/>
</g>
<!-- Node5 -->
<g id="node10" class="node"><title>Node5</title>
<polygon fill="none" stroke="#bfbfbf" points="109.5,-116.5 109.5,-137.5 174.5,-137.5 174.5,-116.5 109.5,-116.5"/>
<text text-anchor="middle" x="142" y="-124.5" font-family="Helvetica,sans-Serif" font-size="10.00">configure.h</text>
</g>
<!-- Node1&#45;&gt;Node5 -->
<g id="edge10" class="edge"><title>Node1&#45;&gt;Node5</title>
<path fill="none" stroke="midnightblue" d="M171.397,-174.362C166.525,-166.513 159.762,-155.616 153.95,-146.253"/>
<polygon fill="midnightblue" stroke="midnightblue" points="156.809,-144.221 148.561,-137.571 150.861,-147.913 156.809,-144.221"/>
</g>
<!-- Node6 -->
<g id="node12" class="node"><title>Node6</title>
<polygon fill="none" stroke="#bfbfbf" points="192,-116.5 192,-137.5 238,-137.5 238,-116.5 192,-116.5"/>
<text text-anchor="middle" x="215" y="-124.5" font-family="Helvetica,sans-Serif" font-size="10.00">stdio.h</text>
</g>
<!-- Node1&#45;&gt;Node6 -->
<g id="edge12" class="edge"><title>Node1&#45;&gt;Node6</title>
<path fill="none" stroke="midnightblue" d="M184.786,-174.362C189.793,-166.513 196.745,-155.616 202.718,-146.253"/>
<polygon fill="midnightblue" stroke="midnightblue" points="205.829,-147.884 208.257,-137.571 199.928,-144.119 205.829,-147.884"/>
</g>
<!-- Node7 -->
<g id="node14" class="node"><title>Node7</title>
<polygon fill="none" stroke="#bfbfbf" points="255.5,-116.5 255.5,-137.5 304.5,-137.5 304.5,-116.5 255.5,-116.5"/>
<text text-anchor="middle" x="280" y="-124.5" font-family="Helvetica,sans-Serif" font-size="10.00">string.h</text>
</g>
<!-- Node1&#45;&gt;Node7 -->
<g id="edge14" class="edge"><title>Node1&#45;&gt;Node7</title>
<path fill="none" stroke="midnightblue" d="M196.708,-174.362C212.381,-165.45 234.964,-152.609 252.663,-142.545"/>
<polygon fill="midnightblue" stroke="midnightblue" points="254.447,-145.556 261.41,-137.571 250.987,-139.471 254.447,-145.556"/>
</g>
<!-- Node8 -->
<g id="node16" class="node"><title>Node8</title>
<polygon fill="none" stroke="#bfbfbf" points="322,-116.5 322,-137.5 376,-137.5 376,-116.5 322,-116.5"/>
<text text-anchor="middle" x="349" y="-124.5" font-family="Helvetica,sans-Serif" font-size="10.00">strings.h</text>
</g>
<!-- Node1&#45;&gt;Node8 -->
<g id="edge16" class="edge"><title>Node1&#45;&gt;Node8</title>
<path fill="none" stroke="midnightblue" d="M208.967,-174.497C238.06,-164.629 281.612,-149.857 312.408,-139.411"/>
<polygon fill="midnightblue" stroke="midnightblue" points="313.579,-142.71 321.924,-136.184 311.33,-136.081 313.579,-142.71"/>
</g>
<!-- Node3 -->
<g id="node5" class="node"><title>Node3</title>
<polygon fill="none" stroke="#bfbfbf" points="0,-0.5 0,-21.5 48,-21.5 48,-0.5 0,-0.5"/>
<text text-anchor="middle" x="24" y="-8.5" font-family="Helvetica,sans-Serif" font-size="10.00">stdlib.h</text>
</g>
<!-- Node2&#45;&gt;Node3 -->
<g id="edge4" class="edge"><title>Node2&#45;&gt;Node3</title>
<path fill="none" stroke="midnightblue" d="M24,-58.3619C24,-50.9219 24,-40.7427 24,-31.7276"/>
<polygon fill="midnightblue" stroke="midnightblue" points="27.5001,-31.5706 24,-21.5707 20.5001,-31.5707 27.5001,-31.5706"/>
</g>
<!-- Node4&#45;&gt;Node2 -->
<g id="edge8" class="edge"><title>Node4&#45;&gt;Node2</title>
<path fill="none" stroke="midnightblue" d="M50.1307,-116.362C45.8454,-108.595 39.9131,-97.8426 34.7839,-88.5458"/>
<polygon fill="midnightblue" stroke="midnightblue" points="37.7274,-86.6357 29.8321,-79.5707 31.5984,-90.0172 37.7274,-86.6357"/>
</g>
</g>
</svg>
