<?xml version="1.0" encoding="UTF-8" standalone="no"?>
<!DOCTYPE svg PUBLIC "-//W3C//DTD SVG 1.1//EN"
 "http://www.w3.org/Graphics/SVG/1.1/DTD/svg11.dtd">
<!-- Generated by graphviz version 2.26.3 (20100126.1600)
 -->
<!-- Title: execute Pages: 1 -->
<svg width="254pt" height="30pt"
 viewBox="0.00 0.00 254.00 30.00" xmlns="http://www.w3.org/2000/svg" xmlns:xlink="http://www.w3.org/1999/xlink">
<g id="graph1" class="graph" transform="scale(1 1) rotate(0) translate(4 26)">
<title>execute</title>
<!-- Node1 -->
<g id="node1" class="node"><title>Node1</title>
<polygon fill="#bfbfbf" stroke="black" points="0.5,-0.5 0.5,-21.5 51.5,-21.5 51.5,-0.5 0.5,-0.5"/>
<text text-anchor="middle" x="26" y="-8.5" font-family="Helvetica,sans-Serif" font-size="10.00">execute</text>
</g>
<!-- Node2 -->
<g id="node3" class="node"><title>Node2</title>
<a xlink:href="ventd_8h.html#afb21092d2ff9f3777a77bb74e37db7b1" target="_top" xlink:title="continuously read on the control file descriptor, and execute commands received.">
<polygon fill="none" stroke="black" points="88.5,-0.5 88.5,-21.5 171.5,-21.5 171.5,-0.5 88.5,-0.5"/>
<text text-anchor="middle" x="130" y="-8.5" font-family="Helvetica,sans-Serif" font-size="10.00">command_loop</text>
</a>
</g>
<!-- Node1&#45;&gt;Node2 -->
<g id="edge2" class="edge"><title>Node1&#45;&gt;Node2</title>
<path fill="none" stroke="midnightblue" d="M61.7743,-11C70.3522,-11 79.5847,-11 88.4013,-11"/>
<polygon fill="midnightblue" stroke="midnightblue" points="61.7079,-7.5001 51.7079,-11 61.7078,-14.5001 61.7079,-7.5001"/>
</g>
<!-- Node3 -->
<g id="node5" class="node"><title>Node3</title>
<a xlink:href="ventd_8c.html#a3c04138a5bfe5d72780bb7e82a18e627" target="_top" xlink:title="main">
<polygon fill="none" stroke="black" points="208,-0.5 208,-21.5 246,-21.5 246,-0.5 208,-0.5"/>
<text text-anchor="middle" x="227" y="-8.5" font-family="Helvetica,sans-Serif" font-size="10.00">main</text>
</a>
</g>
<!-- Node2&#45;&gt;Node3 -->
<g id="edge4" class="edge"><title>Node2&#45;&gt;Node3</title>
<path fill="none" stroke="midnightblue" d="M181.832,-11C191.171,-11 200.345,-11 207.959,-11"/>
<polygon fill="midnightblue" stroke="midnightblue" points="181.7,-7.5001 171.7,-11 181.7,-14.5001 181.7,-7.5001"/>
</g>
</g>
</svg>
