<?xml version="1.0" encoding="UTF-8" standalone="no"?>
<!DOCTYPE svg PUBLIC "-//W3C//DTD SVG 1.1//EN"
 "http://www.w3.org/Graphics/SVG/1.1/DTD/svg11.dtd">
<!-- Generated by graphviz version 2.38.0 (20140413.2041)
 -->
<!-- Title: src/control.c Pages: 1 -->
<svg width="315pt" height="192pt"
 viewBox="0.00 0.00 314.80 192.00" xmlns="http://www.w3.org/2000/svg" xmlns:xlink="http://www.w3.org/1999/xlink">
<g id="graph0" class="graph" transform="scale(1 1) rotate(0) translate(4 188)">
<title>src/control.c</title>
<!-- Node1 -->
<g id="node1" class="node"><title>Node1</title>
<polygon fill="#bfbfbf" stroke="black" points="109.451,-165.5 109.451,-183.5 179.352,-183.5 179.352,-165.5 109.451,-165.5"/>
<text text-anchor="middle" x="144.401" y="-171.5" font-family="Helvetica,sans-Serif" font-size="10.00">src/control.c</text>
</g>
<!-- Node2 -->
<g id="node2" class="node"><title>Node2</title>
<g id="a_node2"><a xlink:href="ventd_8h.html" target="_top" xlink:title="ventd.h">
<polygon fill="none" stroke="black" points="0,-55.5 0,-73.5 48.8027,-73.5 48.8027,-55.5 0,-55.5"/>
<text text-anchor="middle" x="24.4014" y="-61.5" font-family="Helvetica,sans-Serif" font-size="10.00">ventd.h</text>
</a>
</g>
</g>
<!-- Node1&#45;&gt;Node2 -->
<g id="edge1" class="edge"><title>Node1&#45;&gt;Node2</title>
<path fill="none" stroke="midnightblue" d="M109.23,-172.517C77.8416,-169.545 33.5223,-159.728 11.4014,-129 1.66689,-115.478 7.54129,-96.356 14.2255,-82.635"/>
<polygon fill="midnightblue" stroke="midnightblue" points="17.3487,-84.2173 19.0241,-73.7558 11.1905,-80.8892 17.3487,-84.2173"/>
</g>
<!-- Node4 -->
<g id="node4" class="node"><title>Node4</title>
<g id="a_node4"><a xlink:href="commands_8h.html" target="_top" xlink:title="commands.h">
<polygon fill="none" stroke="black" points="20.7783,-110.5 20.7783,-128.5 94.0244,-128.5 94.0244,-110.5 20.7783,-110.5"/>
<text text-anchor="middle" x="57.4014" y="-116.5" font-family="Helvetica,sans-Serif" font-size="10.00">commands.h</text>
</a>
</g>
</g>
<!-- Node1&#45;&gt;Node4 -->
<g id="edge3" class="edge"><title>Node1&#45;&gt;Node4</title>
<path fill="none" stroke="midnightblue" d="M131.188,-165.45C117.519,-157.123 95.9283,-143.97 79.6264,-134.039"/>
<polygon fill="midnightblue" stroke="midnightblue" points="81.1002,-130.839 70.7391,-128.625 77.4583,-136.817 81.1002,-130.839"/>
</g>
<!-- Node5 -->
<g id="node5" class="node"><title>Node5</title>
<polygon fill="none" stroke="#bfbfbf" points="111.663,-110.5 111.663,-128.5 177.14,-128.5 177.14,-110.5 111.663,-110.5"/>
<text text-anchor="middle" x="144.401" y="-116.5" font-family="Helvetica,sans-Serif" font-size="10.00">configure.h</text>
</g>
<!-- Node1&#45;&gt;Node5 -->
<g id="edge5" class="edge"><title>Node1&#45;&gt;Node5</title>
<path fill="none" stroke="midnightblue" d="M144.401,-165.219C144.401,-158.177 144.401,-147.808 144.401,-138.828"/>
<polygon fill="midnightblue" stroke="midnightblue" points="147.901,-138.55 144.401,-128.55 140.901,-138.55 147.901,-138.55"/>
</g>
<!-- Node6 -->
<g id="node6" class="node"><title>Node6</title>
<polygon fill="none" stroke="#bfbfbf" points="194.67,-110.5 194.67,-128.5 240.133,-128.5 240.133,-110.5 194.67,-110.5"/>
<text text-anchor="middle" x="217.401" y="-116.5" font-family="Helvetica,sans-Serif" font-size="10.00">stdio.h</text>
</g>
<!-- Node1&#45;&gt;Node6 -->
<g id="edge6" class="edge"><title>Node1&#45;&gt;Node6</title>
<path fill="none" stroke="midnightblue" d="M155.488,-165.45C166.744,-157.279 184.399,-144.46 197.981,-134.6"/>
<polygon fill="midnightblue" stroke="midnightblue" points="200.174,-137.333 206.21,-128.625 196.061,-131.668 200.174,-137.333"/>
</g>
<!-- Node7 -->
<g id="node7" class="node"><title>Node7</title>
<polygon fill="none" stroke="#bfbfbf" points="258.005,-110.5 258.005,-128.5 306.798,-128.5 306.798,-110.5 258.005,-110.5"/>
<text text-anchor="middle" x="282.401" y="-116.5" font-family="Helvetica,sans-Serif" font-size="10.00">string.h</text>
</g>
<!-- Node1&#45;&gt;Node7 -->
<g id="edge7" class="edge"><title>Node1&#45;&gt;Node7</title>
<path fill="none" stroke="midnightblue" d="M165.361,-165.45C188.36,-156.617 225.497,-142.355 251.763,-132.267"/>
<polygon fill="midnightblue" stroke="midnightblue" points="253.165,-135.478 261.245,-128.625 250.655,-128.943 253.165,-135.478"/>
</g>
<!-- Node3 -->
<g id="node3" class="node"><title>Node3</title>
<polygon fill="none" stroke="#bfbfbf" points="0.559082,-0.5 0.559082,-18.5 48.2437,-18.5 48.2437,-0.5 0.559082,-0.5"/>
<text text-anchor="middle" x="24.4014" y="-6.5" font-family="Helvetica,sans-Serif" font-size="10.00">stdlib.h</text>
</g>
<!-- Node2&#45;&gt;Node3 -->
<g id="edge2" class="edge"><title>Node2&#45;&gt;Node3</title>
<path fill="none" stroke="midnightblue" d="M24.4014,-55.2188C24.4014,-48.1769 24.4014,-37.8083 24.4014,-28.8277"/>
<polygon fill="midnightblue" stroke="midnightblue" points="27.9015,-28.5495 24.4014,-18.5496 20.9015,-28.5496 27.9015,-28.5495"/>
</g>
<!-- Node4&#45;&gt;Node2 -->
<g id="edge4" class="edge"><title>Node4&#45;&gt;Node2</title>
<path fill="none" stroke="midnightblue" d="M52.2451,-110.219C47.5682,-102.707 40.5346,-91.411 34.707,-82.0515"/>
<polygon fill="midnightblue" stroke="midnightblue" points="37.6701,-80.1886 29.4134,-73.5496 31.7278,-83.8885 37.6701,-80.1886"/>
</g>
</g>
</svg>
