<?xml version="1.0" encoding="UTF-8" standalone="no"?>
<!DOCTYPE svg PUBLIC "-//W3C//DTD SVG 1.1//EN"
 "http://www.w3.org/Graphics/SVG/1.1/DTD/svg11.dtd">
<!-- Generated by graphviz version 2.26.3 (20100126.1600)
 -->
<!-- Title: command_loop Pages: 1 -->
<svg width="182pt" height="70pt"
 viewBox="0.00 0.00 182.00 70.00" xmlns="http://www.w3.org/2000/svg" xmlns:xlink="http://www.w3.org/1999/xlink">
<g id="graph1" class="graph" transform="scale(1 1) rotate(0) translate(4 66)">
<title>command_loop</title>
<!-- Node1 -->
<g id="node1" class="node"><title>Node1</title>
<polygon fill="#bfbfbf" stroke="black" points="0.5,-20.5 0.5,-41.5 83.5,-41.5 83.5,-20.5 0.5,-20.5"/>
<text text-anchor="middle" x="42" y="-28.5" font-family="Helvetica,sans-Serif" font-size="10.00">command_loop</text>
</g>
<!-- Node2 -->
<g id="node3" class="node"><title>Node2</title>
<a xlink:href="ventd_8c.html#ab449b3631df031cf379352e21a433adb" target="_top" xlink:title="Reads on the specified file descriptor until a separator is found.">
<polygon fill="none" stroke="black" points="120,-40.5 120,-61.5 174,-61.5 174,-40.5 120,-40.5"/>
<text text-anchor="middle" x="147" y="-48.5" font-family="Helvetica,sans-Serif" font-size="10.00">readcmd</text>
</a>
</g>
<!-- Node1&#45;&gt;Node2 -->
<g id="edge2" class="edge"><title>Node1&#45;&gt;Node2</title>
<path fill="none" stroke="midnightblue" d="M83.8005,-38.962C92.42,-40.6038 101.441,-42.3222 109.881,-43.9297"/>
<polygon fill="midnightblue" stroke="midnightblue" points="109.343,-47.3901 119.821,-45.8231 110.653,-40.5137 109.343,-47.3901"/>
</g>
<!-- Node3 -->
<g id="node5" class="node"><title>Node3</title>
<a xlink:href="control_8c.html#a156816dfaf4b4bf275c44f26d3e0c543" target="_top" xlink:title="execute a command">
<polygon fill="none" stroke="black" points="121.5,-0.5 121.5,-21.5 172.5,-21.5 172.5,-0.5 121.5,-0.5"/>
<text text-anchor="middle" x="147" y="-8.5" font-family="Helvetica,sans-Serif" font-size="10.00">execute</text>
</a>
</g>
<!-- Node1&#45;&gt;Node3 -->
<g id="edge4" class="edge"><title>Node1&#45;&gt;Node3</title>
<path fill="none" stroke="midnightblue" d="M83.8005,-23.038C92.9258,-21.2998 102.502,-19.4759 111.361,-17.7885"/>
<polygon fill="midnightblue" stroke="midnightblue" points="112.193,-21.1929 121.361,-15.8836 110.883,-14.3166 112.193,-21.1929"/>
</g>
</g>
</svg>
