<?xml version="1.0" encoding="UTF-8" standalone="no"?>
<!DOCTYPE svg PUBLIC "-//W3C//DTD SVG 1.1//EN"
 "http://www.w3.org/Graphics/SVG/1.1/DTD/svg11.dtd">
<!-- Generated by graphviz version 2.26.3 (20100126.1600)
 -->
<!-- Title: sig_chld Pages: 1 -->
<svg width="254pt" height="30pt"
 viewBox="0.00 0.00 254.00 30.00" xmlns="http://www.w3.org/2000/svg" xmlns:xlink="http://www.w3.org/1999/xlink">
<g id="graph1" class="graph" transform="scale(1 1) rotate(0) translate(4 26)">
<title>sig_chld</title>
<!-- Node1 -->
<g id="node1" class="node"><title>Node1</title>
<polygon fill="#bfbfbf" stroke="black" points="0.5,-0.5 0.5,-21.5 53.5,-21.5 53.5,-0.5 0.5,-0.5"/>
<text text-anchor="middle" x="27" y="-8.5" font-family="Helvetica,sans-Serif" font-size="10.00">sig_chld</text>
</g>
<!-- Node2 -->
<g id="node3" class="node"><title>Node2</title>
<a xlink:href="group__spawn.html#ga6b7dbc7336de69886687582bfa843c62" target="_top" xlink:title="fork_process">
<polygon fill="none" stroke="black" points="90.5,-0.5 90.5,-21.5 163.5,-21.5 163.5,-0.5 90.5,-0.5"/>
<text text-anchor="middle" x="127" y="-8.5" font-family="Helvetica,sans-Serif" font-size="10.00">fork_process</text>
</a>
</g>
<!-- Node1&#45;&gt;Node2 -->
<g id="edge2" class="edge"><title>Node1&#45;&gt;Node2</title>
<path fill="none" stroke="midnightblue" d="M63.7053,-11C72.3369,-11 81.5385,-11 90.1753,-11"/>
<polygon fill="midnightblue" stroke="midnightblue" points="63.5357,-7.5001 53.5356,-11 63.5356,-14.5001 63.5357,-7.5001"/>
</g>
<!-- Node3 -->
<g id="node5" class="node"><title>Node3</title>
<a xlink:href="group__spawn.html#ga216a1de1cb6aaad14dfa04159c6a3b02" target="_top" xlink:title="fork off a process running the entry parameter from a specific shared object.">
<polygon fill="none" stroke="black" points="200.5,-0.5 200.5,-21.5 245.5,-21.5 245.5,-0.5 200.5,-0.5"/>
<text text-anchor="middle" x="223" y="-8.5" font-family="Helvetica,sans-Serif" font-size="10.00">spawn</text>
</a>
</g>
<!-- Node2&#45;&gt;Node3 -->
<g id="edge4" class="edge"><title>Node2&#45;&gt;Node3</title>
<path fill="none" stroke="midnightblue" d="M173.61,-11C182.951,-11 192.363,-11 200.429,-11"/>
<polygon fill="midnightblue" stroke="midnightblue" points="173.567,-7.5001 163.567,-11 173.567,-14.5001 173.567,-7.5001"/>
</g>
</g>
</svg>
