<?xml version="1.0" encoding="UTF-8" standalone="no"?>
<!DOCTYPE svg PUBLIC "-//W3C//DTD SVG 1.1//EN"
 "http://www.w3.org/Graphics/SVG/1.1/DTD/svg11.dtd">
<!-- Generated by graphviz version 2.26.3 (20100126.1600)
 -->
<!-- Title: remove_child Pages: 1 -->
<svg width="364pt" height="30pt"
 viewBox="0.00 0.00 364.00 30.00" xmlns="http://www.w3.org/2000/svg" xmlns:xlink="http://www.w3.org/1999/xlink">
<g id="graph1" class="graph" transform="scale(1 1) rotate(0) translate(4 26)">
<title>remove_child</title>
<!-- Node1 -->
<g id="node1" class="node"><title>Node1</title>
<polygon fill="#bfbfbf" stroke="black" points="0,-0.5 0,-21.5 74,-21.5 74,-0.5 0,-0.5"/>
<text text-anchor="middle" x="37" y="-8.5" font-family="Helvetica,sans-Serif" font-size="10.00">remove_child</text>
</g>
<!-- Node2 -->
<g id="node3" class="node"><title>Node2</title>
<a xlink:href="spawn_8c.html#afceef742d30ed3d8c0dbc4891ae2229e" target="_top" xlink:title="sig_chld">
<polygon fill="none" stroke="black" points="110.5,-0.5 110.5,-21.5 163.5,-21.5 163.5,-0.5 110.5,-0.5"/>
<text text-anchor="middle" x="137" y="-8.5" font-family="Helvetica,sans-Serif" font-size="10.00">sig_chld</text>
</a>
</g>
<!-- Node1&#45;&gt;Node2 -->
<g id="edge2" class="edge"><title>Node1&#45;&gt;Node2</title>
<path fill="none" stroke="midnightblue" d="M84.2494,-11C93.2173,-11 102.304,-11 110.35,-11"/>
<polygon fill="midnightblue" stroke="midnightblue" points="84.2363,-7.5001 74.2363,-11 84.2363,-14.5001 84.2363,-7.5001"/>
</g>
<!-- Node3 -->
<g id="node5" class="node"><title>Node3</title>
<a xlink:href="spawn_8c.html#a6b7dbc7336de69886687582bfa843c62" target="_top" xlink:title="fork_process">
<polygon fill="none" stroke="black" points="200.5,-0.5 200.5,-21.5 273.5,-21.5 273.5,-0.5 200.5,-0.5"/>
<text text-anchor="middle" x="237" y="-8.5" font-family="Helvetica,sans-Serif" font-size="10.00">fork_process</text>
</a>
</g>
<!-- Node2&#45;&gt;Node3 -->
<g id="edge4" class="edge"><title>Node2&#45;&gt;Node3</title>
<path fill="none" stroke="midnightblue" d="M173.705,-11C182.337,-11 191.538,-11 200.175,-11"/>
<polygon fill="midnightblue" stroke="midnightblue" points="173.536,-7.5001 163.536,-11 173.536,-14.5001 173.536,-7.5001"/>
</g>
<!-- Node4 -->
<g id="node7" class="node"><title>Node4</title>
<a xlink:href="spawn_8c.html#a216a1de1cb6aaad14dfa04159c6a3b02" target="_top" xlink:title="spawn">
<polygon fill="none" stroke="black" points="310.5,-0.5 310.5,-21.5 355.5,-21.5 355.5,-0.5 310.5,-0.5"/>
<text text-anchor="middle" x="333" y="-8.5" font-family="Helvetica,sans-Serif" font-size="10.00">spawn</text>
</a>
</g>
<!-- Node3&#45;&gt;Node4 -->
<g id="edge6" class="edge"><title>Node3&#45;&gt;Node4</title>
<path fill="none" stroke="midnightblue" d="M283.61,-11C292.951,-11 302.363,-11 310.429,-11"/>
<polygon fill="midnightblue" stroke="midnightblue" points="283.567,-7.5001 273.567,-11 283.567,-14.5001 283.567,-7.5001"/>
</g>
</g>
</svg>
