<?xml version="1.0" encoding="UTF-8" standalone="no"?>
<!DOCTYPE svg PUBLIC "-//W3C//DTD SVG 1.1//EN"
 "http://www.w3.org/Graphics/SVG/1.1/DTD/svg11.dtd">
<!-- Generated by graphviz version 2.26.3 (20100126.1600)
 -->
<!-- Title: child_compare Pages: 1 -->
<svg width="588pt" height="69pt"
 viewBox="0.00 0.00 588.00 69.00" xmlns="http://www.w3.org/2000/svg" xmlns:xlink="http://www.w3.org/1999/xlink">
<g id="graph1" class="graph" transform="scale(1 1) rotate(0) translate(4 65)">
<title>child_compare</title>
<!-- Node1 -->
<g id="node1" class="node"><title>Node1</title>
<polygon fill="#bfbfbf" stroke="black" points="0,-19.5 0,-40.5 80,-40.5 80,-19.5 0,-19.5"/>
<text text-anchor="middle" x="40" y="-27.5" font-family="Helvetica,sans-Serif" font-size="10.00">child_compare</text>
</g>
<!-- Node2 -->
<g id="node3" class="node"><title>Node2</title>
<a xlink:href="group__children-management.html#gaa98600dba1297718d8bcb80f3f2e9a7f" target="_top" xlink:title="Lookup a child in a list by pid.">
<polygon fill="none" stroke="black" points="116.5,-0.5 116.5,-21.5 187.5,-21.5 187.5,-0.5 116.5,-0.5"/>
<text text-anchor="middle" x="152" y="-8.5" font-family="Helvetica,sans-Serif" font-size="10.00">lookup_child</text>
</a>
</g>
<!-- Node1&#45;&gt;Node2 -->
<g id="edge2" class="edge"><title>Node1&#45;&gt;Node2</title>
<path fill="none" stroke="midnightblue" d="M89.9804,-21.5212C98.8343,-20.0192 107.891,-18.4827 116.252,-17.0644"/>
<polygon fill="midnightblue" stroke="midnightblue" points="89.3919,-18.0709 80.1182,-23.1942 90.5628,-24.9723 89.3919,-18.0709"/>
</g>
<!-- Node3 -->
<g id="node5" class="node"><title>Node3</title>
<a xlink:href="group__children-management.html#gaab3f6f39289a3ae5734f5479f8126b4a" target="_top" xlink:title="Remove a child in the list by pid.">
<polygon fill="none" stroke="black" points="224,-39.5 224,-60.5 298,-60.5 298,-39.5 224,-39.5"/>
<text text-anchor="middle" x="261" y="-47.5" font-family="Helvetica,sans-Serif" font-size="10.00">remove_child</text>
</a>
</g>
<!-- Node1&#45;&gt;Node3 -->
<g id="edge14" class="edge"><title>Node1&#45;&gt;Node3</title>
<path fill="none" stroke="midnightblue" d="M89.9965,-34.5246C130.656,-38.2041 187.116,-43.3136 223.851,-46.6381"/>
<polygon fill="midnightblue" stroke="midnightblue" points="90.2962,-31.0375 80.0214,-33.6218 89.6652,-38.009 90.2962,-31.0375"/>
</g>
<!-- Node2&#45;&gt;Node3 -->
<g id="edge4" class="edge"><title>Node2&#45;&gt;Node3</title>
<path fill="none" stroke="midnightblue" d="M190.928,-24.9284C204.281,-29.7062 218.996,-34.971 231.479,-39.4376"/>
<polygon fill="midnightblue" stroke="midnightblue" points="192.092,-21.6274 181.497,-21.554 189.733,-28.2183 192.092,-21.6274"/>
</g>
<!-- Node4 -->
<g id="node7" class="node"><title>Node4</title>
<a xlink:href="group__spawn.html#gafceef742d30ed3d8c0dbc4891ae2229e" target="_top" xlink:title="sig_chld">
<polygon fill="none" stroke="black" points="334.5,-19.5 334.5,-40.5 387.5,-40.5 387.5,-19.5 334.5,-19.5"/>
<text text-anchor="middle" x="361" y="-27.5" font-family="Helvetica,sans-Serif" font-size="10.00">sig_chld</text>
</a>
</g>
<!-- Node2&#45;&gt;Node4 -->
<g id="edge12" class="edge"><title>Node2&#45;&gt;Node4</title>
<path fill="none" stroke="midnightblue" d="M198.144,-15.1949C239.987,-18.9988 300.204,-24.4731 334.475,-27.5886"/>
<polygon fill="midnightblue" stroke="midnightblue" points="198.204,-11.686 187.928,-14.2662 197.57,-18.6573 198.204,-11.686"/>
</g>
<!-- Node3&#45;&gt;Node4 -->
<g id="edge6" class="edge"><title>Node3&#45;&gt;Node4</title>
<path fill="none" stroke="midnightblue" d="M308.249,-40.5501C317.217,-38.7565 326.304,-36.9393 334.35,-35.3301"/>
<polygon fill="midnightblue" stroke="midnightblue" points="307.356,-37.1595 298.236,-42.5527 308.729,-44.0235 307.356,-37.1595"/>
</g>
<!-- Node5 -->
<g id="node9" class="node"><title>Node5</title>
<a xlink:href="group__spawn.html#ga6b7dbc7336de69886687582bfa843c62" target="_top" xlink:title="fork_process">
<polygon fill="none" stroke="black" points="424.5,-19.5 424.5,-40.5 497.5,-40.5 497.5,-19.5 424.5,-19.5"/>
<text text-anchor="middle" x="461" y="-27.5" font-family="Helvetica,sans-Serif" font-size="10.00">fork_process</text>
</a>
</g>
<!-- Node4&#45;&gt;Node5 -->
<g id="edge8" class="edge"><title>Node4&#45;&gt;Node5</title>
<path fill="none" stroke="midnightblue" d="M397.705,-30C406.337,-30 415.538,-30 424.175,-30"/>
<polygon fill="midnightblue" stroke="midnightblue" points="397.536,-26.5001 387.536,-30 397.536,-33.5001 397.536,-26.5001"/>
</g>
<!-- Node6 -->
<g id="node11" class="node"><title>Node6</title>
<a xlink:href="group__spawn.html#ga216a1de1cb6aaad14dfa04159c6a3b02" target="_top" xlink:title="fork off a process running the entry parameter from a specific shared object.">
<polygon fill="none" stroke="black" points="534.5,-19.5 534.5,-40.5 579.5,-40.5 579.5,-19.5 534.5,-19.5"/>
<text text-anchor="middle" x="557" y="-27.5" font-family="Helvetica,sans-Serif" font-size="10.00">spawn</text>
</a>
</g>
<!-- Node5&#45;&gt;Node6 -->
<g id="edge10" class="edge"><title>Node5&#45;&gt;Node6</title>
<path fill="none" stroke="midnightblue" d="M507.61,-30C516.951,-30 526.363,-30 534.429,-30"/>
<polygon fill="midnightblue" stroke="midnightblue" points="507.567,-26.5001 497.567,-30 507.567,-33.5001 507.567,-26.5001"/>
</g>
</g>
</svg>
