<?xml version="1.0" encoding="UTF-8" standalone="no"?>
<!DOCTYPE svg PUBLIC "-//W3C//DTD SVG 1.1//EN"
 "http://www.w3.org/Graphics/SVG/1.1/DTD/svg11.dtd">
<!-- Generated by graphviz version 2.26.3 (20100126.1600)
 -->
<!-- Title: spawn Pages: 1 -->
<svg width="632pt" height="90pt"
 viewBox="0.00 0.00 632.00 90.00" xmlns="http://www.w3.org/2000/svg" xmlns:xlink="http://www.w3.org/1999/xlink">
<g id="graph1" class="graph" transform="scale(1 1) rotate(0) translate(4 86)">
<title>spawn</title>
<!-- Node1 -->
<g id="node1" class="node"><title>Node1</title>
<polygon fill="#bfbfbf" stroke="black" points="0.5,-40.5 0.5,-61.5 45.5,-61.5 45.5,-40.5 0.5,-40.5"/>
<text text-anchor="middle" x="23" y="-48.5" font-family="Helvetica,sans-Serif" font-size="10.00">spawn</text>
</g>
<!-- Node2 -->
<g id="node3" class="node"><title>Node2</title>
<a xlink:href="group__spawn.html#ga8eb7d4bb0b70fdc4d22c148462556b26" target="_top" xlink:title="spawn_option_parse">
<polygon fill="none" stroke="black" points="82,-60.5 82,-81.5 188,-81.5 188,-60.5 82,-60.5"/>
<text text-anchor="middle" x="135" y="-68.5" font-family="Helvetica,sans-Serif" font-size="10.00">spawn_option_parse</text>
</a>
</g>
<!-- Node1&#45;&gt;Node2 -->
<g id="edge2" class="edge"><title>Node1&#45;&gt;Node2</title>
<path fill="none" stroke="midnightblue" d="M45.6649,-55.0473C53.4451,-56.4366 62.575,-58.067 71.9731,-59.7452"/>
<polygon fill="midnightblue" stroke="midnightblue" points="71.3592,-63.1909 81.8188,-61.5034 72.5898,-56.2999 71.3592,-63.1909"/>
</g>
<!-- Node3 -->
<g id="node5" class="node"><title>Node3</title>
<a xlink:href="group__spawn.html#ga6b7dbc7336de69886687582bfa843c62" target="_top" xlink:title="fork_process">
<polygon fill="none" stroke="black" points="98.5,-20.5 98.5,-41.5 171.5,-41.5 171.5,-20.5 98.5,-20.5"/>
<text text-anchor="middle" x="135" y="-28.5" font-family="Helvetica,sans-Serif" font-size="10.00">fork_process</text>
</a>
</g>
<!-- Node1&#45;&gt;Node3 -->
<g id="edge4" class="edge"><title>Node1&#45;&gt;Node3</title>
<path fill="none" stroke="midnightblue" d="M45.6649,-46.9527C57.9214,-44.764 73.5276,-41.9772 88.2553,-39.3473"/>
<polygon fill="midnightblue" stroke="midnightblue" points="89.0302,-42.7643 98.2592,-37.5609 87.7996,-35.8734 89.0302,-42.7643"/>
</g>
<!-- Node4 -->
<g id="node7" class="node"><title>Node4</title>
<a xlink:href="group__spawn.html#gafceef742d30ed3d8c0dbc4891ae2229e" target="_top" xlink:title="sig_chld">
<polygon fill="none" stroke="black" points="230.5,-40.5 230.5,-61.5 283.5,-61.5 283.5,-40.5 230.5,-40.5"/>
<text text-anchor="middle" x="257" y="-48.5" font-family="Helvetica,sans-Serif" font-size="10.00">sig_chld</text>
</a>
</g>
<!-- Node3&#45;&gt;Node4 -->
<g id="edge6" class="edge"><title>Node3&#45;&gt;Node4</title>
<path fill="none" stroke="midnightblue" d="M171.604,-37.0007C186.887,-39.5061 204.617,-42.4126 219.947,-44.9258"/>
<polygon fill="midnightblue" stroke="midnightblue" points="219.684,-48.4292 230.118,-46.5931 220.816,-41.5214 219.684,-48.4292"/>
</g>
<!-- Node8 -->
<g id="node17" class="node"><title>Node8</title>
<a xlink:href="group__children-management.html#ga908ff2fd32bc6d35de2f746a75381d28" target="_top" xlink:title="Insert a child into the list of children.">
<polygon fill="none" stroke="black" points="224,-0.5 224,-21.5 290,-21.5 290,-0.5 224,-0.5"/>
<text text-anchor="middle" x="257" y="-8.5" font-family="Helvetica,sans-Serif" font-size="10.00">insert_child</text>
</a>
</g>
<!-- Node3&#45;&gt;Node8 -->
<g id="edge18" class="edge"><title>Node3&#45;&gt;Node8</title>
<path fill="none" stroke="midnightblue" d="M171.604,-24.9993C184.804,-22.8355 199.828,-20.3725 213.555,-18.1221"/>
<polygon fill="midnightblue" stroke="midnightblue" points="214.447,-21.5228 223.749,-16.451 213.314,-14.615 214.447,-21.5228"/>
</g>
<!-- Node5 -->
<g id="node9" class="node"><title>Node5</title>
<a xlink:href="group__children-management.html#gaa98600dba1297718d8bcb80f3f2e9a7f" target="_top" xlink:title="Lookup a child in a list by pid.">
<polygon fill="none" stroke="black" points="436.5,-59.5 436.5,-80.5 507.5,-80.5 507.5,-59.5 436.5,-59.5"/>
<text text-anchor="middle" x="472" y="-67.5" font-family="Helvetica,sans-Serif" font-size="10.00">lookup_child</text>
</a>
</g>
<!-- Node4&#45;&gt;Node5 -->
<g id="edge8" class="edge"><title>Node4&#45;&gt;Node5</title>
<path fill="none" stroke="midnightblue" d="M283.795,-53.3679C319.436,-56.5176 382.968,-62.1321 426.267,-65.9584"/>
<polygon fill="midnightblue" stroke="midnightblue" points="425.996,-69.4481 436.265,-66.842 426.612,-62.4752 425.996,-69.4481"/>
</g>
<!-- Node7 -->
<g id="node13" class="node"><title>Node7</title>
<a xlink:href="group__children-management.html#gaab3f6f39289a3ae5734f5479f8126b4a" target="_top" xlink:title="Remove a child in the list by pid.">
<polygon fill="none" stroke="black" points="326,-20.5 326,-41.5 400,-41.5 400,-20.5 326,-20.5"/>
<text text-anchor="middle" x="363" y="-28.5" font-family="Helvetica,sans-Serif" font-size="10.00">remove_child</text>
</a>
</g>
<!-- Node4&#45;&gt;Node7 -->
<g id="edge12" class="edge"><title>Node4&#45;&gt;Node7</title>
<path fill="none" stroke="midnightblue" d="M283.748,-45.9532C293.515,-44.1103 304.874,-41.9673 315.888,-39.889"/>
<polygon fill="midnightblue" stroke="midnightblue" points="316.674,-43.3026 325.852,-38.0091 315.376,-36.4239 316.674,-43.3026"/>
</g>
<!-- Node6 -->
<g id="node11" class="node"><title>Node6</title>
<a xlink:href="group__children-management.html#gaa09040e4e3147c7624f7011c58f692b8" target="_top" xlink:title="child_compare">
<polygon fill="none" stroke="black" points="544,-39.5 544,-60.5 624,-60.5 624,-39.5 544,-39.5"/>
<text text-anchor="middle" x="584" y="-47.5" font-family="Helvetica,sans-Serif" font-size="10.00">child_compare</text>
</a>
</g>
<!-- Node5&#45;&gt;Node6 -->
<g id="edge10" class="edge"><title>Node5&#45;&gt;Node6</title>
<path fill="none" stroke="midnightblue" d="M507.745,-63.6169C516.118,-62.1218 525.188,-60.5021 534.054,-58.9189"/>
<polygon fill="midnightblue" stroke="midnightblue" points="534.7,-62.3591 543.929,-57.1556 533.469,-55.4681 534.7,-62.3591"/>
</g>
<!-- Node7&#45;&gt;Node5 -->
<g id="edge14" class="edge"><title>Node7&#45;&gt;Node5</title>
<path fill="none" stroke="midnightblue" d="M392.497,-41.554C404.978,-46.0195 419.692,-51.2842 433.047,-56.0625"/>
<polygon fill="midnightblue" stroke="midnightblue" points="431.885,-59.3641 442.479,-59.4376 434.243,-52.7733 431.885,-59.3641"/>
</g>
<!-- Node7&#45;&gt;Node6 -->
<g id="edge16" class="edge"><title>Node7&#45;&gt;Node6</title>
<path fill="none" stroke="midnightblue" d="M400.49,-34.2231C437.081,-37.369 493.007,-42.1771 533.503,-45.6586"/>
<polygon fill="midnightblue" stroke="midnightblue" points="533.441,-49.1661 543.704,-46.5356 534.041,-42.1919 533.441,-49.1661"/>
</g>
</g>
</svg>
