<?xml version="1.0" encoding="UTF-8" standalone="no"?>
<!DOCTYPE svg PUBLIC "-//W3C//DTD SVG 1.1//EN"
 "http://www.w3.org/Graphics/SVG/1.1/DTD/svg11.dtd">
<!-- Generated by graphviz version 2.26.3 (20100126.1600)
 -->
<!-- Title: lookup_child Pages: 1 -->
<svg width="472pt" height="50pt"
 viewBox="0.00 0.00 472.00 50.00" xmlns="http://www.w3.org/2000/svg" xmlns:xlink="http://www.w3.org/1999/xlink">
<g id="graph1" class="graph" transform="scale(1 1) rotate(0) translate(4 46)">
<title>lookup_child</title>
<!-- Node1 -->
<g id="node1" class="node"><title>Node1</title>
<polygon fill="#bfbfbf" stroke="black" points="0.5,-0.5 0.5,-21.5 71.5,-21.5 71.5,-0.5 0.5,-0.5"/>
<text text-anchor="middle" x="36" y="-8.5" font-family="Helvetica,sans-Serif" font-size="10.00">lookup_child</text>
</g>
<!-- Node2 -->
<g id="node3" class="node"><title>Node2</title>
<a xlink:href="group__children-management.html#gaab3f6f39289a3ae5734f5479f8126b4a" target="_top" xlink:title="Remove a child in the list by pid.">
<polygon fill="none" stroke="black" points="108,-20.5 108,-41.5 182,-41.5 182,-20.5 108,-20.5"/>
<text text-anchor="middle" x="145" y="-28.5" font-family="Helvetica,sans-Serif" font-size="10.00">remove_child</text>
</a>
</g>
<!-- Node1&#45;&gt;Node2 -->
<g id="edge2" class="edge"><title>Node1&#45;&gt;Node2</title>
<path fill="none" stroke="midnightblue" d="M81.6847,-19.3825C90.3646,-20.9752 99.3509,-22.624 107.731,-24.1617"/>
<polygon fill="midnightblue" stroke="midnightblue" points="82.1582,-15.911 71.6907,-17.5487 80.8948,-22.7961 82.1582,-15.911"/>
</g>
<!-- Node3 -->
<g id="node5" class="node"><title>Node3</title>
<a xlink:href="spawn_8c.html#afceef742d30ed3d8c0dbc4891ae2229e" target="_top" xlink:title="sig_chld">
<polygon fill="none" stroke="black" points="218.5,-0.5 218.5,-21.5 271.5,-21.5 271.5,-0.5 218.5,-0.5"/>
<text text-anchor="middle" x="245" y="-8.5" font-family="Helvetica,sans-Serif" font-size="10.00">sig_chld</text>
</a>
</g>
<!-- Node1&#45;&gt;Node3 -->
<g id="edge10" class="edge"><title>Node1&#45;&gt;Node3</title>
<path fill="none" stroke="midnightblue" d="M82.1437,-11C123.987,-11 184.204,-11 218.475,-11"/>
<polygon fill="midnightblue" stroke="midnightblue" points="81.9284,-7.5001 71.9284,-11 81.9283,-14.5001 81.9284,-7.5001"/>
</g>
<!-- Node2&#45;&gt;Node3 -->
<g id="edge4" class="edge"><title>Node2&#45;&gt;Node3</title>
<path fill="none" stroke="midnightblue" d="M192.249,-21.5501C201.217,-19.7565 210.304,-17.9393 218.35,-16.3301"/>
<polygon fill="midnightblue" stroke="midnightblue" points="191.356,-18.1595 182.236,-23.5527 192.729,-25.0235 191.356,-18.1595"/>
</g>
<!-- Node4 -->
<g id="node7" class="node"><title>Node4</title>
<a xlink:href="spawn_8c.html#a6b7dbc7336de69886687582bfa843c62" target="_top" xlink:title="fork_process">
<polygon fill="none" stroke="black" points="308.5,-0.5 308.5,-21.5 381.5,-21.5 381.5,-0.5 308.5,-0.5"/>
<text text-anchor="middle" x="345" y="-8.5" font-family="Helvetica,sans-Serif" font-size="10.00">fork_process</text>
</a>
</g>
<!-- Node3&#45;&gt;Node4 -->
<g id="edge6" class="edge"><title>Node3&#45;&gt;Node4</title>
<path fill="none" stroke="midnightblue" d="M281.705,-11C290.337,-11 299.538,-11 308.175,-11"/>
<polygon fill="midnightblue" stroke="midnightblue" points="281.536,-7.5001 271.536,-11 281.536,-14.5001 281.536,-7.5001"/>
</g>
<!-- Node5 -->
<g id="node9" class="node"><title>Node5</title>
<a xlink:href="spawn_8c.html#a216a1de1cb6aaad14dfa04159c6a3b02" target="_top" xlink:title="spawn">
<polygon fill="none" stroke="black" points="418.5,-0.5 418.5,-21.5 463.5,-21.5 463.5,-0.5 418.5,-0.5"/>
<text text-anchor="middle" x="441" y="-8.5" font-family="Helvetica,sans-Serif" font-size="10.00">spawn</text>
</a>
</g>
<!-- Node4&#45;&gt;Node5 -->
<g id="edge8" class="edge"><title>Node4&#45;&gt;Node5</title>
<path fill="none" stroke="midnightblue" d="M391.61,-11C400.951,-11 410.363,-11 418.429,-11"/>
<polygon fill="midnightblue" stroke="midnightblue" points="391.567,-7.5001 381.567,-11 391.567,-14.5001 391.567,-7.5001"/>
</g>
</g>
</svg>
