<?xml version="1.0" encoding="UTF-8" standalone="no"?>
<!DOCTYPE svg PUBLIC "-//W3C//DTD SVG 1.1//EN"
 "http://www.w3.org/Graphics/SVG/1.1/DTD/svg11.dtd">
<!-- Generated by graphviz version 2.26.3 (20100126.1600)
 -->
<!-- Title: Process spawner Pages: 1 -->
<svg width="356pt" height="42pt"
 viewBox="0.00 0.00 356.00 42.00" xmlns="http://www.w3.org/2000/svg" xmlns:xlink="http://www.w3.org/1999/xlink">
<g id="graph1" class="graph" transform="scale(1 1) rotate(0) translate(4 38)">
<title>Process spawner</title>
<!-- Node1 -->
<g id="node1" class="node"><title>Node1</title>
<a xlink:href="group__commands.html" target="_top" xlink:title="Utility commands">
<polygon fill="none" stroke="black" points="0.5,-6.5 0.5,-27.5 93.5,-27.5 93.5,-6.5 0.5,-6.5"/>
<text text-anchor="middle" x="47" y="-14.5" font-family="Helvetica,sans-Serif" font-size="10.00">Utility commands</text>
</a>
</g>
<!-- Node0 -->
<g id="node2" class="node"><title>Node0</title>
<polygon fill="#bfbfbf" stroke="black" points="130,-6.5 130,-27.5 222,-27.5 222,-6.5 130,-6.5"/>
<text text-anchor="middle" x="176" y="-14.5" font-family="Helvetica,sans-Serif" font-size="10.00">Process spawner</text>
</g>
<!-- Node1&#45;&gt;Node0 -->
<g id="edge2" class="edge"><title>Node1&#45;&gt;Node0</title>
<path fill="none" stroke="midnightblue" d="M103.726,-17C112.486,-17 121.44,-17 129.929,-17"/>
<polygon fill="midnightblue" stroke="midnightblue" points="103.572,-13.5001 93.572,-17 103.572,-20.5001 103.572,-13.5001"/>
</g>
<!-- Node2 -->
<g id="node3" class="node"><title>Node2</title>
<a xlink:href="group__children-management.html" target="_top" xlink:title="process child list\l management">
<polygon fill="none" stroke="black" points="258,-0 258,-34 348,-34 348,-0 258,-0"/>
<text text-anchor="start" x="266" y="-21" font-family="Helvetica,sans-Serif" font-size="10.00">process child list</text>
<text text-anchor="middle" x="303" y="-8" font-family="Helvetica,sans-Serif" font-size="10.00"> management</text>
</a>
</g>
<!-- Node0&#45;&gt;Node2 -->
<g id="edge4" class="edge"><title>Node0&#45;&gt;Node2</title>
<path fill="none" stroke="midnightblue" d="M232.464,-17C240.975,-17 249.656,-17 257.887,-17"/>
<polygon fill="midnightblue" stroke="midnightblue" points="232.209,-13.5001 222.209,-17 232.209,-20.5001 232.209,-13.5001"/>
</g>
</g>
</svg>
