<?xml version="1.0" encoding="UTF-8" standalone="no"?>
<!DOCTYPE svg PUBLIC "-//W3C//DTD SVG 1.1//EN"
 "http://www.w3.org/Graphics/SVG/1.1/DTD/svg11.dtd">
<!-- Generated by graphviz version 2.26.3 (20100126.1600)
 -->
<!-- Title: plugins/hello.c Pages: 1 -->
<svg width="188pt" height="88pt"
 viewBox="0.00 0.00 188.00 88.00" xmlns="http://www.w3.org/2000/svg" xmlns:xlink="http://www.w3.org/1999/xlink">
<g id="graph1" class="graph" transform="scale(1 1) rotate(0) translate(4 84)">
<title>plugins/hello.c</title>
<!-- Node1 -->
<g id="node1" class="node"><title>Node1</title>
<polygon fill="#bfbfbf" stroke="black" points="48.5,-58.5 48.5,-79.5 127.5,-79.5 127.5,-58.5 48.5,-58.5"/>
<text text-anchor="middle" x="88" y="-66.5" font-family="Helvetica,sans-Serif" font-size="10.00">plugins/hello.c</text>
</g>
<!-- Node2 -->
<g id="node3" class="node"><title>Node2</title>
<polygon fill="none" stroke="#bfbfbf" points="0,-0.5 0,-21.5 46,-21.5 46,-0.5 0,-0.5"/>
<text text-anchor="middle" x="23" y="-8.5" font-family="Helvetica,sans-Serif" font-size="10.00">stdio.h</text>
</g>
<!-- Node1&#45;&gt;Node2 -->
<g id="edge2" class="edge"><title>Node1&#45;&gt;Node2</title>
<path fill="none" stroke="midnightblue" d="M76.078,-58.3619C66.6405,-49.9408 53.2704,-38.0105 42.3104,-28.2308"/>
<polygon fill="midnightblue" stroke="midnightblue" points="44.6381,-25.6171 34.8464,-21.5707 39.9776,-30.8401 44.6381,-25.6171"/>
</g>
<!-- Node3 -->
<g id="node5" class="node"><title>Node3</title>
<polygon fill="none" stroke="#bfbfbf" points="64,-0.5 64,-21.5 112,-21.5 112,-0.5 64,-0.5"/>
<text text-anchor="middle" x="88" y="-8.5" font-family="Helvetica,sans-Serif" font-size="10.00">stdlib.h</text>
</g>
<!-- Node1&#45;&gt;Node3 -->
<g id="edge4" class="edge"><title>Node1&#45;&gt;Node3</title>
<path fill="none" stroke="midnightblue" d="M88,-58.3619C88,-50.9219 88,-40.7427 88,-31.7276"/>
<polygon fill="midnightblue" stroke="midnightblue" points="91.5001,-31.5706 88,-21.5707 84.5001,-31.5707 91.5001,-31.5706"/>
</g>
<!-- Node4 -->
<g id="node7" class="node"><title>Node4</title>
<polygon fill="none" stroke="#bfbfbf" points="129.5,-0.5 129.5,-21.5 180.5,-21.5 180.5,-0.5 129.5,-0.5"/>
<text text-anchor="middle" x="155" y="-8.5" font-family="Helvetica,sans-Serif" font-size="10.00">unistd.h</text>
</g>
<!-- Node1&#45;&gt;Node4 -->
<g id="edge6" class="edge"><title>Node1&#45;&gt;Node4</title>
<path fill="none" stroke="midnightblue" d="M100.289,-58.3619C110.017,-49.9408 123.798,-38.0105 135.095,-28.2308"/>
<polygon fill="midnightblue" stroke="midnightblue" points="137.519,-30.7619 142.789,-21.5707 132.938,-25.4695 137.519,-30.7619"/>
</g>
</g>
</svg>
