<?xml version="1.0" encoding="UTF-8" standalone="no"?>
<!DOCTYPE svg PUBLIC "-//W3C//DTD SVG 1.1//EN"
 "http://www.w3.org/Graphics/SVG/1.1/DTD/svg11.dtd">
<!-- Generated by graphviz version 2.38.0 (20140413.2041)
 -->
<!-- Title: plugins/hello.c Pages: 1 -->
<svg width="188pt" height="82pt"
 viewBox="0.00 0.00 188.24 82.00" xmlns="http://www.w3.org/2000/svg" xmlns:xlink="http://www.w3.org/1999/xlink">
<g id="graph0" class="graph" transform="scale(1 1) rotate(0) translate(4 78)">
<title>plugins/hello.c</title>
<!-- Node1 -->
<g id="node1" class="node"><title>Node1</title>
<polygon fill="#bfbfbf" stroke="black" points="48.0444,-55.5 48.0444,-73.5 127.418,-73.5 127.418,-55.5 48.0444,-55.5"/>
<text text-anchor="middle" x="87.7314" y="-61.5" font-family="Helvetica,sans-Serif" font-size="10.00">plugins/hello.c</text>
</g>
<!-- Node2 -->
<g id="node2" class="node"><title>Node2</title>
<polygon fill="none" stroke="#bfbfbf" points="0,-0.5 0,-18.5 45.4629,-18.5 45.4629,-0.5 0,-0.5"/>
<text text-anchor="middle" x="22.7314" y="-6.5" font-family="Helvetica,sans-Serif" font-size="10.00">stdio.h</text>
</g>
<!-- Node1&#45;&gt;Node2 -->
<g id="edge1" class="edge"><title>Node1&#45;&gt;Node2</title>
<path fill="none" stroke="midnightblue" d="M77.8593,-55.4504C68.0284,-47.4345 52.7137,-34.9471 40.7184,-25.1663"/>
<polygon fill="midnightblue" stroke="midnightblue" points="42.6585,-22.2322 32.6965,-18.6253 38.2349,-27.6573 42.6585,-22.2322"/>
</g>
<!-- Node3 -->
<g id="node3" class="node"><title>Node3</title>
<polygon fill="none" stroke="#bfbfbf" points="63.8892,-0.5 63.8892,-18.5 111.574,-18.5 111.574,-0.5 63.8892,-0.5"/>
<text text-anchor="middle" x="87.7314" y="-6.5" font-family="Helvetica,sans-Serif" font-size="10.00">stdlib.h</text>
</g>
<!-- Node1&#45;&gt;Node3 -->
<g id="edge2" class="edge"><title>Node1&#45;&gt;Node3</title>
<path fill="none" stroke="midnightblue" d="M87.7314,-55.2188C87.7314,-48.1769 87.7314,-37.8083 87.7314,-28.8277"/>
<polygon fill="midnightblue" stroke="midnightblue" points="91.2315,-28.5495 87.7314,-18.5496 84.2315,-28.5496 91.2315,-28.5495"/>
</g>
<!-- Node4 -->
<g id="node4" class="node"><title>Node4</title>
<polygon fill="none" stroke="#bfbfbf" points="129.219,-0.5 129.219,-18.5 180.244,-18.5 180.244,-0.5 129.219,-0.5"/>
<text text-anchor="middle" x="154.731" y="-6.5" font-family="Helvetica,sans-Serif" font-size="10.00">unistd.h</text>
</g>
<!-- Node1&#45;&gt;Node4 -->
<g id="edge3" class="edge"><title>Node1&#45;&gt;Node4</title>
<path fill="none" stroke="midnightblue" d="M97.9073,-55.4504C108.139,-47.3566 124.134,-34.7042 136.55,-24.8822"/>
<polygon fill="midnightblue" stroke="midnightblue" points="138.788,-27.5744 144.46,-18.6253 134.446,-22.0844 138.788,-27.5744"/>
</g>
</g>
</svg>
