<?xml version="1.0" encoding="UTF-8" standalone="no"?>
<!DOCTYPE svg PUBLIC "-//W3C//DTD SVG 1.1//EN"
 "http://www.w3.org/Graphics/SVG/1.1/DTD/svg11.dtd">
<!-- Generated by graphviz version 2.38.0 (20140413.2041)
 -->
<!-- Title: insert_child Pages: 1 -->
<svg width="265pt" height="27pt"
 viewBox="0.00 0.00 264.73 27.00" xmlns="http://www.w3.org/2000/svg" xmlns:xlink="http://www.w3.org/1999/xlink">
<g id="graph0" class="graph" transform="scale(1 1) rotate(0) translate(4 23)">
<title>insert_child</title>
<!-- Node1 -->
<g id="node1" class="node"><title>Node1</title>
<polygon fill="#bfbfbf" stroke="black" points="0,-0.5 0,-18.5 66.5811,-18.5 66.5811,-0.5 0,-0.5"/>
<text text-anchor="middle" x="33.2905" y="-6.5" font-family="Helvetica,sans-Serif" font-size="10.00">insert_child</text>
</g>
<!-- Node2 -->
<g id="node2" class="node"><title>Node2</title>
<g id="a_node2"><a xlink:href="spawn_8c.html#a6b7dbc7336de69886687582bfa843c62" target="_top" xlink:title="fork_process">
<polygon fill="none" stroke="black" points="102.581,-0.5 102.581,-18.5 175.827,-18.5 175.827,-0.5 102.581,-0.5"/>
<text text-anchor="middle" x="139.204" y="-6.5" font-family="Helvetica,sans-Serif" font-size="10.00">fork_process</text>
</a>
</g>
</g>
<!-- Node1&#45;&gt;Node2 -->
<g id="edge1" class="edge"><title>Node1&#45;&gt;Node2</title>
<path fill="none" stroke="midnightblue" d="M76.7182,-9.5C85.2088,-9.5 94.0508,-9.5 102.295,-9.5"/>
<polygon fill="midnightblue" stroke="midnightblue" points="76.5999,-6.0001 66.5998,-9.5 76.5998,-13.0001 76.5999,-6.0001"/>
</g>
<!-- Node3 -->
<g id="node3" class="node"><title>Node3</title>
<g id="a_node3"><a xlink:href="spawn_8c.html#a216a1de1cb6aaad14dfa04159c6a3b02" target="_top" xlink:title="spawn">
<polygon fill="none" stroke="black" points="211.827,-0.5 211.827,-18.5 256.733,-18.5 256.733,-0.5 211.827,-0.5"/>
<text text-anchor="middle" x="234.28" y="-6.5" font-family="Helvetica,sans-Serif" font-size="10.00">spawn</text>
</a>
</g>
</g>
<!-- Node2&#45;&gt;Node3 -->
<g id="edge2" class="edge"><title>Node2&#45;&gt;Node3</title>
<path fill="none" stroke="midnightblue" d="M186.008,-9.5C195.017,-9.5 204.063,-9.5 211.795,-9.5"/>
<polygon fill="midnightblue" stroke="midnightblue" points="185.924,-6.0001 175.924,-9.5 185.924,-13.0001 185.924,-6.0001"/>
</g>
</g>
</svg>
