<?xml version="1.0" encoding="UTF-8" standalone="no"?>
<!DOCTYPE svg PUBLIC "-//W3C//DTD SVG 1.1//EN"
 "http://www.w3.org/Graphics/SVG/1.1/DTD/svg11.dtd">
<!-- Generated by graphviz version 2.38.0 (20140413.2041)
 -->
<!-- Title: sig_chld Pages: 1 -->
<svg width="251pt" height="27pt"
 viewBox="0.00 0.00 250.84 27.00" xmlns="http://www.w3.org/2000/svg" xmlns:xlink="http://www.w3.org/1999/xlink">
<g id="graph0" class="graph" transform="scale(1 1) rotate(0) translate(4 23)">
<title>sig_chld</title>
<!-- Node1 -->
<g id="node1" class="node"><title>Node1</title>
<polygon fill="#bfbfbf" stroke="black" points="0,-0.5 0,-18.5 52.6895,-18.5 52.6895,-0.5 0,-0.5"/>
<text text-anchor="middle" x="26.3447" y="-6.5" font-family="Helvetica,sans-Serif" font-size="10.00">sig_chld</text>
</g>
<!-- Node2 -->
<g id="node2" class="node"><title>Node2</title>
<g id="a_node2"><a xlink:href="spawn_8c.html#a6b7dbc7336de69886687582bfa843c62" target="_top" xlink:title="fork_process">
<polygon fill="none" stroke="black" points="88.6895,-0.5 88.6895,-18.5 161.936,-18.5 161.936,-0.5 88.6895,-0.5"/>
<text text-anchor="middle" x="125.312" y="-6.5" font-family="Helvetica,sans-Serif" font-size="10.00">fork_process</text>
</a>
</g>
</g>
<!-- Node1&#45;&gt;Node2 -->
<g id="edge1" class="edge"><title>Node1&#45;&gt;Node2</title>
<path fill="none" stroke="midnightblue" d="M62.9689,-9.5C71.2726,-9.5 80.1188,-9.5 88.4335,-9.5"/>
<polygon fill="midnightblue" stroke="midnightblue" points="62.8219,-6.0001 52.8219,-9.5 62.8218,-13.0001 62.8219,-6.0001"/>
</g>
<!-- Node3 -->
<g id="node3" class="node"><title>Node3</title>
<g id="a_node3"><a xlink:href="spawn_8c.html#a216a1de1cb6aaad14dfa04159c6a3b02" target="_top" xlink:title="spawn">
<polygon fill="none" stroke="black" points="197.936,-0.5 197.936,-18.5 242.842,-18.5 242.842,-0.5 197.936,-0.5"/>
<text text-anchor="middle" x="220.389" y="-6.5" font-family="Helvetica,sans-Serif" font-size="10.00">spawn</text>
</a>
</g>
</g>
<!-- Node2&#45;&gt;Node3 -->
<g id="edge2" class="edge"><title>Node2&#45;&gt;Node3</title>
<path fill="none" stroke="midnightblue" d="M172.116,-9.5C181.126,-9.5 190.172,-9.5 197.904,-9.5"/>
<polygon fill="midnightblue" stroke="midnightblue" points="172.032,-6.0001 162.032,-9.5 172.032,-13.0001 172.032,-6.0001"/>
</g>
</g>
</svg>
