<?xml version="1.0" encoding="UTF-8" standalone="no"?>
<!DOCTYPE svg PUBLIC "-//W3C//DTD SVG 1.1//EN"
 "http://www.w3.org/Graphics/SVG/1.1/DTD/svg11.dtd">
<!-- Generated by graphviz version 2.38.0 (20140413.2041)
 -->
<!-- Title: remove_child Pages: 1 -->
<svg width="308pt" height="46pt"
 viewBox="0.00 0.00 308.10 46.00" xmlns="http://www.w3.org/2000/svg" xmlns:xlink="http://www.w3.org/1999/xlink">
<g id="graph0" class="graph" transform="scale(1 1) rotate(0) translate(4 42)">
<title>remove_child</title>
<!-- Node1 -->
<g id="node1" class="node"><title>Node1</title>
<polygon fill="#bfbfbf" stroke="black" points="0,-0.5 0,-18.5 75.4727,-18.5 75.4727,-0.5 0,-0.5"/>
<text text-anchor="middle" x="37.7363" y="-6.5" font-family="Helvetica,sans-Serif" font-size="10.00">remove_child</text>
</g>
<!-- Node2 -->
<g id="node2" class="node"><title>Node2</title>
<g id="a_node2"><a xlink:href="spawn_8c.html#aa98600dba1297718d8bcb80f3f2e9a7f" target="_top" xlink:title="lookup_child">
<polygon fill="none" stroke="black" points="111.473,-19.5 111.473,-37.5 183.068,-37.5 183.068,-19.5 111.473,-19.5"/>
<text text-anchor="middle" x="147.271" y="-25.5" font-family="Helvetica,sans-Serif" font-size="10.00">lookup_child</text>
</a>
</g>
</g>
<!-- Node1&#45;&gt;Node2 -->
<g id="edge1" class="edge"><title>Node1&#45;&gt;Node2</title>
<path fill="none" stroke="midnightblue" d="M75.7435,-16.0387C84.0401,-17.5046 92.9284,-19.0751 101.502,-20.59"/>
<polygon fill="midnightblue" stroke="midnightblue" points="100.912,-24.0399 111.369,-22.3333 102.13,-17.1467 100.912,-24.0399"/>
</g>
<!-- Node3 -->
<g id="node3" class="node"><title>Node3</title>
<g id="a_node3"><a xlink:href="spawn_8c.html#aa09040e4e3147c7624f7011c58f692b8" target="_top" xlink:title="child_compare">
<polygon fill="none" stroke="black" points="219.068,-0.5 219.068,-18.5 300.103,-18.5 300.103,-0.5 219.068,-0.5"/>
<text text-anchor="middle" x="259.585" y="-6.5" font-family="Helvetica,sans-Serif" font-size="10.00">child_compare</text>
</a>
</g>
</g>
<!-- Node1&#45;&gt;Node3 -->
<g id="edge3" class="edge"><title>Node1&#45;&gt;Node3</title>
<path fill="none" stroke="midnightblue" d="M75.5341,-9.5C112.08,-9.5 168.362,-9.5 208.869,-9.5"/>
<polygon fill="midnightblue" stroke="midnightblue" points="209.066,-13.0001 219.066,-9.5 209.066,-6.0001 209.066,-13.0001"/>
</g>
<!-- Node2&#45;&gt;Node3 -->
<g id="edge2" class="edge"><title>Node2&#45;&gt;Node3</title>
<path fill="none" stroke="midnightblue" d="M183.175,-22.4883C191.341,-21.0817 200.196,-19.5567 208.869,-18.0629"/>
<polygon fill="midnightblue" stroke="midnightblue" points="209.654,-21.4792 218.915,-16.3326 208.466,-14.5808 209.654,-21.4792"/>
</g>
</g>
</svg>
