<?xml version="1.0" encoding="UTF-8" standalone="no"?>
<!DOCTYPE svg PUBLIC "-//W3C//DTD SVG 1.1//EN"
 "http://www.w3.org/Graphics/SVG/1.1/DTD/svg11.dtd">
<!-- Generated by graphviz version 2.38.0 (20140413.2041)
 -->
<!-- Title: fork_process Pages: 1 -->
<svg width="520pt" height="83pt"
 viewBox="0.00 0.00 519.93 83.00" xmlns="http://www.w3.org/2000/svg" xmlns:xlink="http://www.w3.org/1999/xlink">
<g id="graph0" class="graph" transform="scale(1 1) rotate(0) translate(4 79)">
<title>fork_process</title>
<!-- Node1 -->
<g id="node1" class="node"><title>Node1</title>
<polygon fill="#bfbfbf" stroke="black" points="0,-18.5 0,-36.5 73.2461,-36.5 73.2461,-18.5 0,-18.5"/>
<text text-anchor="middle" x="36.623" y="-24.5" font-family="Helvetica,sans-Serif" font-size="10.00">fork_process</text>
</g>
<!-- Node2 -->
<g id="node2" class="node"><title>Node2</title>
<g id="a_node2"><a xlink:href="spawn_8c.html#afceef742d30ed3d8c0dbc4891ae2229e" target="_top" xlink:title="sig_chld">
<polygon fill="none" stroke="black" points="116.192,-37.5 116.192,-55.5 168.881,-55.5 168.881,-37.5 116.192,-37.5"/>
<text text-anchor="middle" x="142.537" y="-43.5" font-family="Helvetica,sans-Serif" font-size="10.00">sig_chld</text>
</a>
</g>
</g>
<!-- Node1&#45;&gt;Node2 -->
<g id="edge1" class="edge"><title>Node1&#45;&gt;Node2</title>
<path fill="none" stroke="midnightblue" d="M73.3842,-34.0387C83.8636,-35.9548 95.3196,-38.0495 105.798,-39.9653"/>
<polygon fill="midnightblue" stroke="midnightblue" points="105.411,-43.4525 115.877,-41.8083 106.67,-36.5667 105.411,-43.4525"/>
</g>
<!-- Node6 -->
<g id="node6" class="node"><title>Node6</title>
<g id="a_node6"><a xlink:href="spawn_8c.html#a908ff2fd32bc6d35de2f746a75381d28" target="_top" xlink:title="insert_child">
<polygon fill="none" stroke="black" points="109.246,-0.5 109.246,-18.5 175.827,-18.5 175.827,-0.5 109.246,-0.5"/>
<text text-anchor="middle" x="142.537" y="-6.5" font-family="Helvetica,sans-Serif" font-size="10.00">insert_child</text>
</a>
</g>
</g>
<!-- Node1&#45;&gt;Node6 -->
<g id="edge7" class="edge"><title>Node1&#45;&gt;Node6</title>
<path fill="none" stroke="midnightblue" d="M73.3842,-21.3054C81.7391,-19.8582 90.7148,-18.3034 99.3207,-16.8127"/>
<polygon fill="midnightblue" stroke="midnightblue" points="99.9382,-20.2579 109.194,-15.1024 98.7433,-13.3606 99.9382,-20.2579"/>
</g>
<!-- Node3 -->
<g id="node3" class="node"><title>Node3</title>
<g id="a_node3"><a xlink:href="spawn_8c.html#aa98600dba1297718d8bcb80f3f2e9a7f" target="_top" xlink:title="lookup_child">
<polygon fill="none" stroke="black" points="323.3,-56.5 323.3,-74.5 394.896,-74.5 394.896,-56.5 323.3,-56.5"/>
<text text-anchor="middle" x="359.098" y="-62.5" font-family="Helvetica,sans-Serif" font-size="10.00">lookup_child</text>
</a>
</g>
</g>
<!-- Node2&#45;&gt;Node3 -->
<g id="edge2" class="edge"><title>Node2&#45;&gt;Node3</title>
<path fill="none" stroke="midnightblue" d="M168.992,-48.7542C204.447,-51.8938 269.257,-57.6329 313.001,-61.5065"/>
<polygon fill="midnightblue" stroke="midnightblue" points="312.819,-65.0041 323.089,-62.3999 313.437,-58.0314 312.819,-65.0041"/>
</g>
<!-- Node5 -->
<g id="node5" class="node"><title>Node5</title>
<g id="a_node5"><a xlink:href="spawn_8c.html#aab3f6f39289a3ae5734f5479f8126b4a" target="_top" xlink:title="remove_child">
<polygon fill="none" stroke="black" points="211.827,-18.5 211.827,-36.5 287.3,-36.5 287.3,-18.5 211.827,-18.5"/>
<text text-anchor="middle" x="249.563" y="-24.5" font-family="Helvetica,sans-Serif" font-size="10.00">remove_child</text>
</a>
</g>
</g>
<!-- Node2&#45;&gt;Node5 -->
<g id="edge4" class="edge"><title>Node2&#45;&gt;Node5</title>
<path fill="none" stroke="midnightblue" d="M168.961,-41.9006C178.722,-40.1348 190.202,-38.058 201.359,-36.0395"/>
<polygon fill="midnightblue" stroke="midnightblue" points="202.239,-39.4372 211.456,-34.2129 200.993,-32.549 202.239,-39.4372"/>
</g>
<!-- Node4 -->
<g id="node4" class="node"><title>Node4</title>
<g id="a_node4"><a xlink:href="spawn_8c.html#aa09040e4e3147c7624f7011c58f692b8" target="_top" xlink:title="child_compare">
<polygon fill="none" stroke="black" points="430.896,-37.5 430.896,-55.5 511.93,-55.5 511.93,-37.5 430.896,-37.5"/>
<text text-anchor="middle" x="471.413" y="-43.5" font-family="Helvetica,sans-Serif" font-size="10.00">child_compare</text>
</a>
</g>
</g>
<!-- Node3&#45;&gt;Node4 -->
<g id="edge3" class="edge"><title>Node3&#45;&gt;Node4</title>
<path fill="none" stroke="midnightblue" d="M395.002,-59.4883C403.168,-58.0817 412.023,-56.5567 420.696,-55.0629"/>
<polygon fill="midnightblue" stroke="midnightblue" points="421.481,-58.4792 430.742,-53.3326 420.293,-51.5808 421.481,-58.4792"/>
</g>
<!-- Node5&#45;&gt;Node3 -->
<g id="edge5" class="edge"><title>Node5&#45;&gt;Node3</title>
<path fill="none" stroke="midnightblue" d="M276.048,-36.5055C290.007,-41.4385 307.523,-47.6281 322.782,-53.0204"/>
<polygon fill="midnightblue" stroke="midnightblue" points="321.829,-56.3956 332.424,-56.4275 324.161,-49.7956 321.829,-56.3956"/>
</g>
<!-- Node5&#45;&gt;Node4 -->
<g id="edge6" class="edge"><title>Node5&#45;&gt;Node4</title>
<path fill="none" stroke="midnightblue" d="M287.361,-30.6802C323.907,-33.8386 380.189,-38.7026 420.696,-42.2034"/>
<polygon fill="midnightblue" stroke="midnightblue" points="420.629,-45.7105 430.893,-43.0846 421.231,-38.7365 420.629,-45.7105"/>
</g>
</g>
</svg>
