<?xml version="1.0" encoding="UTF-8" standalone="no"?>
<!DOCTYPE svg PUBLIC "-//W3C//DTD SVG 1.1//EN"
 "http://www.w3.org/Graphics/SVG/1.1/DTD/svg11.dtd">
<!-- Generated by graphviz version 2.38.0 (20140413.2041)
 -->
<!-- Title: remove_child Pages: 1 -->
<svg width="362pt" height="27pt"
 viewBox="0.00 0.00 362.31 27.00" xmlns="http://www.w3.org/2000/svg" xmlns:xlink="http://www.w3.org/1999/xlink">
<g id="graph0" class="graph" transform="scale(1 1) rotate(0) translate(4 23)">
<title>remove_child</title>
<!-- Node1 -->
<g id="node1" class="node"><title>Node1</title>
<polygon fill="#bfbfbf" stroke="black" points="0,-0.5 0,-18.5 75.4727,-18.5 75.4727,-0.5 0,-0.5"/>
<text text-anchor="middle" x="37.7363" y="-6.5" font-family="Helvetica,sans-Serif" font-size="10.00">remove_child</text>
</g>
<!-- Node2 -->
<g id="node2" class="node"><title>Node2</title>
<g id="a_node2"><a xlink:href="spawn_8c.html#afceef742d30ed3d8c0dbc4891ae2229e" target="_top" xlink:title="sig_chld">
<polygon fill="none" stroke="black" points="111.473,-0.5 111.473,-18.5 164.162,-18.5 164.162,-0.5 111.473,-0.5"/>
<text text-anchor="middle" x="137.817" y="-6.5" font-family="Helvetica,sans-Serif" font-size="10.00">sig_chld</text>
</a>
</g>
</g>
<!-- Node1&#45;&gt;Node2 -->
<g id="edge1" class="edge"><title>Node1&#45;&gt;Node2</title>
<path fill="none" stroke="midnightblue" d="M85.8044,-9.5C94.6428,-9.5 103.567,-9.5 111.426,-9.5"/>
<polygon fill="midnightblue" stroke="midnightblue" points="85.5372,-6.0001 75.5371,-9.5 85.5371,-13.0001 85.5372,-6.0001"/>
</g>
<!-- Node3 -->
<g id="node3" class="node"><title>Node3</title>
<g id="a_node3"><a xlink:href="spawn_8c.html#a6b7dbc7336de69886687582bfa843c62" target="_top" xlink:title="fork_process">
<polygon fill="none" stroke="black" points="200.162,-0.5 200.162,-18.5 273.408,-18.5 273.408,-0.5 200.162,-0.5"/>
<text text-anchor="middle" x="236.785" y="-6.5" font-family="Helvetica,sans-Serif" font-size="10.00">fork_process</text>
</a>
</g>
</g>
<!-- Node2&#45;&gt;Node3 -->
<g id="edge2" class="edge"><title>Node2&#45;&gt;Node3</title>
<path fill="none" stroke="midnightblue" d="M174.442,-9.5C182.745,-9.5 191.591,-9.5 199.906,-9.5"/>
<polygon fill="midnightblue" stroke="midnightblue" points="174.295,-6.0001 164.295,-9.5 174.294,-13.0001 174.295,-6.0001"/>
</g>
<!-- Node4 -->
<g id="node4" class="node"><title>Node4</title>
<g id="a_node4"><a xlink:href="spawn_8c.html#a216a1de1cb6aaad14dfa04159c6a3b02" target="_top" xlink:title="spawn">
<polygon fill="none" stroke="black" points="309.408,-0.5 309.408,-18.5 354.314,-18.5 354.314,-0.5 309.408,-0.5"/>
<text text-anchor="middle" x="331.861" y="-6.5" font-family="Helvetica,sans-Serif" font-size="10.00">spawn</text>
</a>
</g>
</g>
<!-- Node3&#45;&gt;Node4 -->
<g id="edge3" class="edge"><title>Node3&#45;&gt;Node4</title>
<path fill="none" stroke="midnightblue" d="M283.589,-9.5C292.598,-9.5 301.645,-9.5 309.376,-9.5"/>
<polygon fill="midnightblue" stroke="midnightblue" points="283.505,-6.0001 273.505,-9.5 283.505,-13.0001 283.505,-6.0001"/>
</g>
</g>
</svg>
