<?xml version="1.0" encoding="UTF-8" standalone="no"?>
<!DOCTYPE svg PUBLIC "-//W3C//DTD SVG 1.1//EN"
 "http://www.w3.org/Graphics/SVG/1.1/DTD/svg11.dtd">
<!-- Generated by graphviz version 2.26.3 (20100126.1600)
 -->
<!-- Title: src/spawn.c Pages: 1 -->
<svg width="818pt" height="204pt"
 viewBox="0.00 0.00 818.00 204.00" xmlns="http://www.w3.org/2000/svg" xmlns:xlink="http://www.w3.org/1999/xlink">
<g id="graph1" class="graph" transform="scale(1 1) rotate(0) translate(4 200)">
<title>src/spawn.c</title>
<!-- Node1 -->
<g id="node1" class="node"><title>Node1</title>
<polygon fill="#bfbfbf" stroke="black" points="372,-174.5 372,-195.5 442,-195.5 442,-174.5 372,-174.5"/>
<text text-anchor="middle" x="407" y="-182.5" font-family="Helvetica,sans-Serif" font-size="10.00">src/spawn.c</text>
</g>
<!-- Node2 -->
<g id="node3" class="node"><title>Node2</title>
<a xlink:href="commands_8h.html" target="_top" xlink:title="commands.h">
<polygon fill="none" stroke="black" points="-0.5,-116.5 -0.5,-137.5 72.5,-137.5 72.5,-116.5 -0.5,-116.5"/>
<text text-anchor="middle" x="36" y="-124.5" font-family="Helvetica,sans-Serif" font-size="10.00">commands.h</text>
</a>
</g>
<!-- Node1&#45;&gt;Node2 -->
<g id="edge2" class="edge"><title>Node1&#45;&gt;Node2</title>
<path fill="none" stroke="midnightblue" d="M371.597,-181.032C313.297,-174.252 193.278,-159.261 82.7527,-138.217"/>
<polygon fill="midnightblue" stroke="midnightblue" points="83.2547,-134.75 72.7732,-136.295 81.9309,-141.623 83.2547,-134.75"/>
</g>
<!-- Node5 -->
<g id="node9" class="node"><title>Node5</title>
<a xlink:href="spawn_8h.html" target="_top" xlink:title="spawn.h">
<polygon fill="none" stroke="black" points="89.5,-116.5 89.5,-137.5 142.5,-137.5 142.5,-116.5 89.5,-116.5"/>
<text text-anchor="middle" x="116" y="-124.5" font-family="Helvetica,sans-Serif" font-size="10.00">spawn.h</text>
</a>
</g>
<!-- Node1&#45;&gt;Node5 -->
<g id="edge8" class="edge"><title>Node1&#45;&gt;Node5</title>
<path fill="none" stroke="midnightblue" d="M371.889,-179.375C323.18,-171.355 232.462,-155.64 156,-138 154.912,-137.749 153.81,-137.488 152.698,-137.219"/>
<polygon fill="midnightblue" stroke="midnightblue" points="153.156,-133.725 142.602,-134.647 151.428,-140.508 153.156,-133.725"/>
</g>
<!-- Node6 -->
<g id="node11" class="node"><title>Node6</title>
<polygon fill="none" stroke="#bfbfbf" points="117.5,-58.5 117.5,-79.5 168.5,-79.5 168.5,-58.5 117.5,-58.5"/>
<text text-anchor="middle" x="143" y="-66.5" font-family="Helvetica,sans-Serif" font-size="10.00">unistd.h</text>
</g>
<!-- Node1&#45;&gt;Node6 -->
<g id="edge16" class="edge"><title>Node1&#45;&gt;Node6</title>
<path fill="none" stroke="midnightblue" d="M371.955,-180.694C318.183,-173.553 218.447,-158.041 189,-138 171.328,-125.973 158.681,-104.686 151.175,-88.9268"/>
<polygon fill="midnightblue" stroke="midnightblue" points="154.252,-87.231 146.984,-79.5216 147.858,-90.0804 154.252,-87.231"/>
</g>
<!-- Node7 -->
<g id="node13" class="node"><title>Node7</title>
<polygon fill="none" stroke="#bfbfbf" points="198,-116.5 198,-137.5 244,-137.5 244,-116.5 198,-116.5"/>
<text text-anchor="middle" x="221" y="-124.5" font-family="Helvetica,sans-Serif" font-size="10.00">stdio.h</text>
</g>
<!-- Node1&#45;&gt;Node7 -->
<g id="edge12" class="edge"><title>Node1&#45;&gt;Node7</title>
<path fill="none" stroke="midnightblue" d="M371.722,-174.614C342.453,-165.913 299.529,-152.958 253.577,-138.12"/>
<polygon fill="midnightblue" stroke="midnightblue" points="254.632,-134.783 244.04,-135.027 252.473,-141.441 254.632,-134.783"/>
</g>
<!-- Node8 -->
<g id="node15" class="node"><title>Node8</title>
<polygon fill="none" stroke="#bfbfbf" points="261.5,-116.5 261.5,-137.5 314.5,-137.5 314.5,-116.5 261.5,-116.5"/>
<text text-anchor="middle" x="288" y="-124.5" font-family="Helvetica,sans-Serif" font-size="10.00">syslog.h</text>
</g>
<!-- Node1&#45;&gt;Node8 -->
<g id="edge14" class="edge"><title>Node1&#45;&gt;Node8</title>
<path fill="none" stroke="midnightblue" d="M385.45,-174.497C366.864,-165.438 339.798,-152.246 318.905,-142.063"/>
<polygon fill="midnightblue" stroke="midnightblue" points="320.314,-138.856 309.792,-137.621 317.247,-145.149 320.314,-138.856"/>
</g>
<!-- Node9 -->
<g id="node18" class="node"><title>Node9</title>
<polygon fill="none" stroke="#bfbfbf" points="332,-116.5 332,-137.5 400,-137.5 400,-116.5 332,-116.5"/>
<text text-anchor="middle" x="366" y="-124.5" font-family="Helvetica,sans-Serif" font-size="10.00">sys/types.h</text>
</g>
<!-- Node1&#45;&gt;Node9 -->
<g id="edge18" class="edge"><title>Node1&#45;&gt;Node9</title>
<path fill="none" stroke="midnightblue" d="M399.48,-174.362C393.874,-166.431 386.068,-155.389 379.403,-145.961"/>
<polygon fill="midnightblue" stroke="midnightblue" points="382.103,-143.716 373.472,-137.571 376.387,-147.757 382.103,-143.716"/>
</g>
<!-- Node10 -->
<g id="node20" class="node"><title>Node10</title>
<polygon fill="none" stroke="#bfbfbf" points="418,-116.5 418,-137.5 480,-137.5 480,-116.5 418,-116.5"/>
<text text-anchor="middle" x="449" y="-124.5" font-family="Helvetica,sans-Serif" font-size="10.00">sys/wait.h</text>
</g>
<!-- Node1&#45;&gt;Node10 -->
<g id="edge20" class="edge"><title>Node1&#45;&gt;Node10</title>
<path fill="none" stroke="midnightblue" d="M414.703,-174.362C420.446,-166.431 428.443,-155.389 435.27,-145.961"/>
<polygon fill="midnightblue" stroke="midnightblue" points="438.315,-147.723 441.345,-137.571 432.645,-143.617 438.315,-147.723"/>
</g>
<!-- Node11 -->
<g id="node22" class="node"><title>Node11</title>
<polygon fill="none" stroke="#bfbfbf" points="498,-116.5 498,-137.5 548,-137.5 548,-116.5 498,-116.5"/>
<text text-anchor="middle" x="523" y="-124.5" font-family="Helvetica,sans-Serif" font-size="10.00">signal.h</text>
</g>
<!-- Node1&#45;&gt;Node11 -->
<g id="edge22" class="edge"><title>Node1&#45;&gt;Node11</title>
<path fill="none" stroke="midnightblue" d="M428.007,-174.497C446.043,-165.479 472.27,-152.365 492.599,-142.201"/>
<polygon fill="midnightblue" stroke="midnightblue" points="494.379,-145.224 501.758,-137.621 491.248,-138.963 494.379,-145.224"/>
</g>
<!-- Node12 -->
<g id="node24" class="node"><title>Node12</title>
<polygon fill="none" stroke="#bfbfbf" points="566,-116.5 566,-137.5 612,-137.5 612,-116.5 566,-116.5"/>
<text text-anchor="middle" x="589" y="-124.5" font-family="Helvetica,sans-Serif" font-size="10.00">dlfcn.h</text>
</g>
<!-- Node1&#45;&gt;Node12 -->
<g id="edge24" class="edge"><title>Node1&#45;&gt;Node12</title>
<path fill="none" stroke="midnightblue" d="M441.641,-174.441C470.076,-165.708 511.615,-152.802 556.36,-138.157"/>
<polygon fill="midnightblue" stroke="midnightblue" points="557.545,-141.452 565.953,-135.007 555.361,-134.802 557.545,-141.452"/>
</g>
<!-- Node13 -->
<g id="node26" class="node"><title>Node13</title>
<polygon fill="none" stroke="#bfbfbf" points="630,-116.5 630,-137.5 674,-137.5 674,-116.5 630,-116.5"/>
<text text-anchor="middle" x="652" y="-124.5" font-family="Helvetica,sans-Serif" font-size="10.00">argp.h</text>
</g>
<!-- Node1&#45;&gt;Node13 -->
<g id="edge26" class="edge"><title>Node1&#45;&gt;Node13</title>
<path fill="none" stroke="midnightblue" d="M442.177,-178.672C482.858,-171.049 551.962,-157.164 619.766,-138.115"/>
<polygon fill="midnightblue" stroke="midnightblue" points="621.099,-141.374 629.757,-135.267 619.18,-134.642 621.099,-141.374"/>
</g>
<!-- Node14 -->
<g id="node28" class="node"><title>Node14</title>
<polygon fill="none" stroke="#bfbfbf" points="692,-116.5 692,-137.5 744,-137.5 744,-116.5 692,-116.5"/>
<text text-anchor="middle" x="718" y="-124.5" font-family="Helvetica,sans-Serif" font-size="10.00">assert.h</text>
</g>
<!-- Node1&#45;&gt;Node14 -->
<g id="edge28" class="edge"><title>Node1&#45;&gt;Node14</title>
<path fill="none" stroke="midnightblue" d="M442.165,-180.571C493.062,-173.824 590.324,-159.663 681.764,-138.066"/>
<polygon fill="midnightblue" stroke="midnightblue" points="682.826,-141.411 691.734,-135.676 681.194,-134.604 682.826,-141.411"/>
</g>
<!-- Node15 -->
<g id="node30" class="node"><title>Node15</title>
<polygon fill="none" stroke="#bfbfbf" points="761.5,-116.5 761.5,-137.5 810.5,-137.5 810.5,-116.5 761.5,-116.5"/>
<text text-anchor="middle" x="786" y="-124.5" font-family="Helvetica,sans-Serif" font-size="10.00">string.h</text>
</g>
<!-- Node1&#45;&gt;Node15 -->
<g id="edge30" class="edge"><title>Node1&#45;&gt;Node15</title>
<path fill="none" stroke="midnightblue" d="M442.012,-182.419C503.199,-177.441 633.573,-164.762 751.373,-138.076"/>
<polygon fill="midnightblue" stroke="midnightblue" points="752.318,-141.45 761.276,-135.792 750.745,-134.629 752.318,-141.45"/>
</g>
<!-- Node3 -->
<g id="node5" class="node"><title>Node3</title>
<a xlink:href="ventd_8h.html" target="_top" xlink:title="ventd.h">
<polygon fill="none" stroke="black" points="11.5,-58.5 11.5,-79.5 60.5,-79.5 60.5,-58.5 11.5,-58.5"/>
<text text-anchor="middle" x="36" y="-66.5" font-family="Helvetica,sans-Serif" font-size="10.00">ventd.h</text>
</a>
</g>
<!-- Node2&#45;&gt;Node3 -->
<g id="edge4" class="edge"><title>Node2&#45;&gt;Node3</title>
<path fill="none" stroke="midnightblue" d="M36,-116.362C36,-108.922 36,-98.7427 36,-89.7276"/>
<polygon fill="midnightblue" stroke="midnightblue" points="39.5001,-89.5706 36,-79.5707 32.5001,-89.5707 39.5001,-89.5706"/>
</g>
<!-- Node4 -->
<g id="node7" class="node"><title>Node4</title>
<polygon fill="none" stroke="#bfbfbf" points="12,-0.5 12,-21.5 60,-21.5 60,-0.5 12,-0.5"/>
<text text-anchor="middle" x="36" y="-8.5" font-family="Helvetica,sans-Serif" font-size="10.00">stdlib.h</text>
</g>
<!-- Node3&#45;&gt;Node4 -->
<g id="edge6" class="edge"><title>Node3&#45;&gt;Node4</title>
<path fill="none" stroke="midnightblue" d="M36,-58.3619C36,-50.9219 36,-40.7427 36,-31.7276"/>
<polygon fill="midnightblue" stroke="midnightblue" points="39.5001,-31.5706 36,-21.5707 32.5001,-31.5707 39.5001,-31.5706"/>
</g>
<!-- Node5&#45;&gt;Node6 -->
<g id="edge10" class="edge"><title>Node5&#45;&gt;Node6</title>
<path fill="none" stroke="midnightblue" d="M120.952,-116.362C124.53,-108.677 129.468,-98.0686 133.764,-88.8399"/>
<polygon fill="midnightblue" stroke="midnightblue" points="137.032,-90.1136 138.079,-79.5707 130.686,-87.1594 137.032,-90.1136"/>
</g>
</g>
</svg>
