<?xml version="1.0" encoding="UTF-8" standalone="no"?>
<!DOCTYPE svg PUBLIC "-//W3C//DTD SVG 1.1//EN"
 "http://www.w3.org/Graphics/SVG/1.1/DTD/svg11.dtd">
<!-- Generated by graphviz version 2.38.0 (20140413.2041)
 -->
<!-- Title: lookup_child Pages: 1 -->
<svg width="470pt" height="46pt"
 viewBox="0.00 0.00 469.91 46.00" xmlns="http://www.w3.org/2000/svg" xmlns:xlink="http://www.w3.org/1999/xlink">
<g id="graph0" class="graph" transform="scale(1 1) rotate(0) translate(4 42)">
<title>lookup_child</title>
<!-- Node1 -->
<g id="node1" class="node"><title>Node1</title>
<polygon fill="#bfbfbf" stroke="black" points="0,-0.5 0,-18.5 71.5957,-18.5 71.5957,-0.5 0,-0.5"/>
<text text-anchor="middle" x="35.7979" y="-6.5" font-family="Helvetica,sans-Serif" font-size="10.00">lookup_child</text>
</g>
<!-- Node2 -->
<g id="node2" class="node"><title>Node2</title>
<g id="a_node2"><a xlink:href="spawn_8c.html#aab3f6f39289a3ae5734f5479f8126b4a" target="_top" xlink:title="remove_child">
<polygon fill="none" stroke="black" points="107.596,-19.5 107.596,-37.5 183.068,-37.5 183.068,-19.5 107.596,-19.5"/>
<text text-anchor="middle" x="145.332" y="-25.5" font-family="Helvetica,sans-Serif" font-size="10.00">remove_child</text>
</a>
</g>
</g>
<!-- Node1&#45;&gt;Node2 -->
<g id="edge1" class="edge"><title>Node1&#45;&gt;Node2</title>
<path fill="none" stroke="midnightblue" d="M81.5888,-17.414C90.1723,-18.9306 99.07,-20.5027 107.373,-21.9698"/>
<polygon fill="midnightblue" stroke="midnightblue" points="82.1676,-13.9622 71.7111,-15.6688 80.9496,-20.8554 82.1676,-13.9622"/>
</g>
<!-- Node3 -->
<g id="node3" class="node"><title>Node3</title>
<g id="a_node3"><a xlink:href="spawn_8c.html#afceef742d30ed3d8c0dbc4891ae2229e" target="_top" xlink:title="sig_chld">
<polygon fill="none" stroke="black" points="219.068,-0.5 219.068,-18.5 271.758,-18.5 271.758,-0.5 219.068,-0.5"/>
<text text-anchor="middle" x="245.413" y="-6.5" font-family="Helvetica,sans-Serif" font-size="10.00">sig_chld</text>
</a>
</g>
</g>
<!-- Node1&#45;&gt;Node3 -->
<g id="edge5" class="edge"><title>Node1&#45;&gt;Node3</title>
<path fill="none" stroke="midnightblue" d="M82.2388,-9.5C124.147,-9.5 184.858,-9.5 218.864,-9.5"/>
<polygon fill="midnightblue" stroke="midnightblue" points="82.017,-6.0001 72.0169,-9.5 82.0169,-13.0001 82.017,-6.0001"/>
</g>
<!-- Node2&#45;&gt;Node3 -->
<g id="edge2" class="edge"><title>Node2&#45;&gt;Node3</title>
<path fill="none" stroke="midnightblue" d="M193.112,-19.4379C202.044,-17.7075 211.077,-15.9578 219.021,-14.4188"/>
<polygon fill="midnightblue" stroke="midnightblue" points="192.285,-16.033 183.133,-21.371 193.616,-22.9053 192.285,-16.033"/>
</g>
<!-- Node4 -->
<g id="node4" class="node"><title>Node4</title>
<g id="a_node4"><a xlink:href="spawn_8c.html#a6b7dbc7336de69886687582bfa843c62" target="_top" xlink:title="fork_process">
<polygon fill="none" stroke="black" points="307.758,-0.5 307.758,-18.5 381.004,-18.5 381.004,-0.5 307.758,-0.5"/>
<text text-anchor="middle" x="344.381" y="-6.5" font-family="Helvetica,sans-Serif" font-size="10.00">fork_process</text>
</a>
</g>
</g>
<!-- Node3&#45;&gt;Node4 -->
<g id="edge3" class="edge"><title>Node3&#45;&gt;Node4</title>
<path fill="none" stroke="midnightblue" d="M282.037,-9.5C290.341,-9.5 299.187,-9.5 307.502,-9.5"/>
<polygon fill="midnightblue" stroke="midnightblue" points="281.89,-6.0001 271.89,-9.5 281.89,-13.0001 281.89,-6.0001"/>
</g>
<!-- Node5 -->
<g id="node5" class="node"><title>Node5</title>
<g id="a_node5"><a xlink:href="spawn_8c.html#a216a1de1cb6aaad14dfa04159c6a3b02" target="_top" xlink:title="spawn">
<polygon fill="none" stroke="black" points="417.004,-0.5 417.004,-18.5 461.91,-18.5 461.91,-0.5 417.004,-0.5"/>
<text text-anchor="middle" x="439.457" y="-6.5" font-family="Helvetica,sans-Serif" font-size="10.00">spawn</text>
</a>
</g>
</g>
<!-- Node4&#45;&gt;Node5 -->
<g id="edge4" class="edge"><title>Node4&#45;&gt;Node5</title>
<path fill="none" stroke="midnightblue" d="M391.185,-9.5C400.194,-9.5 409.24,-9.5 416.972,-9.5"/>
<polygon fill="midnightblue" stroke="midnightblue" points="391.1,-6.0001 381.1,-9.5 391.1,-13.0001 391.1,-6.0001"/>
</g>
</g>
</svg>
