<?xml version="1.0" encoding="UTF-8" standalone="no"?>
<!DOCTYPE svg PUBLIC "-//W3C//DTD SVG 1.1//EN"
 "http://www.w3.org/Graphics/SVG/1.1/DTD/svg11.dtd">
<!-- Generated by graphviz version 2.26.3 (20100126.1600)
 -->
<!-- Title: fork_process Pages: 1 -->
<!--zoomable 89 -->
<svg id="main" version="1.1" xmlns="http://www.w3.org/2000/svg" xmlns:xlink="http://www.w3.org/1999/xlink" xml:space="preserve" onload="init(evt)">
        <defs>
                <circle id="rim" cx="0" cy="0" r="7"/>
                <circle id="rim2" cx="0" cy="0" r="3.5"/>
                <g id="zoomPlus">
                        <use xlink:href="#rim" fill="#404040">
                                <set attributeName="fill" to="#808080" begin="zoomplus.mouseover" end="zoomplus.mouseout"/>
                        </use>
                        <path d="M-4,0h8M0,-4v8" fill="none" stroke="white" stroke-width="1.5" pointer-events="none"/>
                </g>
                <g id="zoomMin">
                        <use xlink:href="#rim" fill="#404040">
                                <set attributeName="fill" to="#808080" begin="zoomminus.mouseover" end="zoomminus.mouseout"/>
                        </use>
                        <path d="M-4,0h8" fill="none" stroke="white" stroke-width="1.5" pointer-events="none"/>
                </g>
                <g id="dirArrow">
                        <path fill="none" stroke="white" stroke-width="1.5" d="M0,-3.0v7 M-2.5,-0.5L0,-3.0L2.5,-0.5"/>
                </g>
               <g id="resetDef">
                       <use xlink:href="#rim2" fill="#404040">
                               <set attributeName="fill" to="#808080" begin="reset.mouseover" end="reset.mouseout"/>
                       </use>
               </g>
        </defs>

<script type="text/javascript">
var viewWidth = 518;
var viewHeight = 89;
var sectionId = 'dynsection-1';
</script>
<script xlink:href="svgpan.js"/>
<svg id="graph" class="graph">
<g id="viewport">
<title>fork_process</title>
<!-- Node1 -->
<g id="node1" class="node"><title>Node1</title>
<polygon fill="#bfbfbf" stroke="black" points="0.5,-20.5 0.5,-41.5 73.5,-41.5 73.5,-20.5 0.5,-20.5"/>
<text text-anchor="middle" x="37" y="-28.5" font-family="Helvetica,sans-Serif" font-size="10.00">fork_process</text>
</g>
<!-- Node2 -->
<g id="node3" class="node"><title>Node2</title>
<a xlink:href="spawn_8c.html#afceef742d30ed3d8c0dbc4891ae2229e" target="_top" xlink:title="sig_chld">
<polygon fill="none" stroke="black" points="116.5,-40.5 116.5,-61.5 169.5,-61.5 169.5,-40.5 116.5,-40.5"/>
<text text-anchor="middle" x="143" y="-48.5" font-family="Helvetica,sans-Serif" font-size="10.00">sig_chld</text>
</a>
</g>
<!-- Node1&#45;&gt;Node2 -->
<g id="edge2" class="edge"><title>Node1&#45;&gt;Node2</title>
<path fill="none" stroke="midnightblue" d="M73.7762,-37.9389C84.2703,-39.9189 95.7036,-42.0761 106.199,-44.0564"/>
<polygon fill="midnightblue" stroke="midnightblue" points="105.837,-47.5498 116.313,-45.9647 107.135,-40.6712 105.837,-47.5498"/>
</g>
<!-- Node6 -->
<g id="node13" class="node"><title>Node6</title>
<a xlink:href="group__children-management.html#ga908ff2fd32bc6d35de2f746a75381d28" target="_top" xlink:title="Insert a child into the list of children.">
<polygon fill="none" stroke="black" points="110,-0.5 110,-21.5 176,-21.5 176,-0.5 110,-0.5"/>
<text text-anchor="middle" x="143" y="-8.5" font-family="Helvetica,sans-Serif" font-size="10.00">insert_child</text>
</a>
</g>
<!-- Node1&#45;&gt;Node6 -->
<g id="edge14" class="edge"><title>Node1&#45;&gt;Node6</title>
<path fill="none" stroke="midnightblue" d="M73.7762,-24.0611C82.1999,-22.4717 91.2287,-20.7682 99.8919,-19.1336"/>
<polygon fill="midnightblue" stroke="midnightblue" points="100.658,-22.5509 109.836,-17.2574 99.3602,-15.6723 100.658,-22.5509"/>
</g>
<!-- Node3 -->
<g id="node5" class="node"><title>Node3</title>
<a xlink:href="group__children-management.html#gaa98600dba1297718d8bcb80f3f2e9a7f" target="_top" xlink:title="Lookup a child in a list by pid.">
<polygon fill="none" stroke="black" points="322.5,-59.5 322.5,-80.5 393.5,-80.5 393.5,-59.5 322.5,-59.5"/>
<text text-anchor="middle" x="358" y="-67.5" font-family="Helvetica,sans-Serif" font-size="10.00">lookup_child</text>
</a>
</g>
<!-- Node2&#45;&gt;Node3 -->
<g id="edge4" class="edge"><title>Node2&#45;&gt;Node3</title>
<path fill="none" stroke="midnightblue" d="M169.795,-53.3679C205.436,-56.5176 268.968,-62.1321 312.267,-65.9584"/>
<polygon fill="midnightblue" stroke="midnightblue" points="311.996,-69.4481 322.265,-66.842 312.612,-62.4752 311.996,-69.4481"/>
</g>
<!-- Node5 -->
<g id="node9" class="node"><title>Node5</title>
<a xlink:href="group__children-management.html#gaab3f6f39289a3ae5734f5479f8126b4a" target="_top" xlink:title="Remove a child in the list by pid.">
<polygon fill="none" stroke="black" points="212,-20.5 212,-41.5 286,-41.5 286,-20.5 212,-20.5"/>
<text text-anchor="middle" x="249" y="-28.5" font-family="Helvetica,sans-Serif" font-size="10.00">remove_child</text>
</a>
</g>
<!-- Node2&#45;&gt;Node5 -->
<g id="edge8" class="edge"><title>Node2&#45;&gt;Node5</title>
<path fill="none" stroke="midnightblue" d="M169.748,-45.9532C179.515,-44.1103 190.874,-41.9673 201.888,-39.889"/>
<polygon fill="midnightblue" stroke="midnightblue" points="202.674,-43.3026 211.852,-38.0091 201.376,-36.4239 202.674,-43.3026"/>
</g>
<!-- Node4 -->
<g id="node7" class="node"><title>Node4</title>
<a xlink:href="group__children-management.html#gaa09040e4e3147c7624f7011c58f692b8" target="_top" xlink:title="child_compare">
<polygon fill="none" stroke="black" points="430,-39.5 430,-60.5 510,-60.5 510,-39.5 430,-39.5"/>
<text text-anchor="middle" x="470" y="-47.5" font-family="Helvetica,sans-Serif" font-size="10.00">child_compare</text>
</a>
</g>
<!-- Node3&#45;&gt;Node4 -->
<g id="edge6" class="edge"><title>Node3&#45;&gt;Node4</title>
<path fill="none" stroke="midnightblue" d="M393.745,-63.6169C402.118,-62.1218 411.188,-60.5021 420.054,-58.9189"/>
<polygon fill="midnightblue" stroke="midnightblue" points="420.7,-62.3591 429.929,-57.1556 419.469,-55.4681 420.7,-62.3591"/>
</g>
<!-- Node5&#45;&gt;Node3 -->
<g id="edge10" class="edge"><title>Node5&#45;&gt;Node3</title>
<path fill="none" stroke="midnightblue" d="M278.497,-41.554C290.978,-46.0195 305.692,-51.2842 319.047,-56.0625"/>
<polygon fill="midnightblue" stroke="midnightblue" points="317.885,-59.3641 328.479,-59.4376 320.243,-52.7733 317.885,-59.3641"/>
</g>
<!-- Node5&#45;&gt;Node4 -->
<g id="edge12" class="edge"><title>Node5&#45;&gt;Node4</title>
<path fill="none" stroke="midnightblue" d="M286.49,-34.2231C323.081,-37.369 379.007,-42.1771 419.503,-45.6586"/>
<polygon fill="midnightblue" stroke="midnightblue" points="419.441,-49.1661 429.704,-46.5356 420.041,-42.1919 419.441,-49.1661"/>
</g>
</g>
</svg>
        <g id="navigator" transform="translate(0 0)" fill="#404254">
                <rect fill="#f2f5e9" fill-opacity="0.5" stroke="#606060" stroke-width=".5" x="0" y="0" width="60" height="60"/>
                <use id="zoomplus" xlink:href="#zoomPlus" x="17" y="9" onmousedown="handleZoom(evt,'in')"/>
                <use id="zoomminus" xlink:href="#zoomMin" x="42" y="9" onmousedown="handleZoom(evt,'out')"/>
                <use id="reset" xlink:href="#resetDef" x="30" y="36" onmousedown="handleReset()"/>
                <g id="arrowUp" xlink:href="#dirArrow" transform="translate(30 24)" onmousedown="handlePan(0,-1)">
                  <use xlink:href="#rim" fill="#404040">
                        <set attributeName="fill" to="#808080" begin="arrowUp.mouseover" end="arrowUp.mouseout"/>
                  </use>
                  <path fill="none" stroke="white" stroke-width="1.5" d="M0,-3.0v7 M-2.5,-0.5L0,-3.0L2.5,-0.5"/>
                </g>
                <g id="arrowRight" xlink:href="#dirArrow" transform="rotate(90) translate(36 -43)" onmousedown="handlePan(1,0)">
                  <use xlink:href="#rim" fill="#404040">
                        <set attributeName="fill" to="#808080" begin="arrowRight.mouseover" end="arrowRight.mouseout"/>
                  </use>
                  <path fill="none" stroke="white" stroke-width="1.5" d="M0,-3.0v7 M-2.5,-0.5L0,-3.0L2.5,-0.5"/>
                </g>
                <g id="arrowDown" xlink:href="#dirArrow" transform="rotate(180) translate(-30 -48)" onmousedown="handlePan(0,1)">
                  <use xlink:href="#rim" fill="#404040">
                        <set attributeName="fill" to="#808080" begin="arrowDown.mouseover" end="arrowDown.mouseout"/>
                  </use>
                  <path fill="none" stroke="white" stroke-width="1.5" d="M0,-3.0v7 M-2.5,-0.5L0,-3.0L2.5,-0.5"/>
                </g>
                <g id="arrowLeft" xlink:href="#dirArrow" transform="rotate(270) translate(-36 17)" onmousedown="handlePan(-1,0)">
                  <use xlink:href="#rim" fill="#404040">
                        <set attributeName="fill" to="#808080" begin="arrowLeft.mouseover" end="arrowLeft.mouseout"/>
                  </use>
                  <path fill="none" stroke="white" stroke-width="1.5" d="M0,-3.0v7 M-2.5,-0.5L0,-3.0L2.5,-0.5"/>
                </g>
        </g>
        <svg viewBox="0 0 15 15" width="100%" height="30px" preserveAspectRatio="xMaxYMin meet">
         <g id="arrow_out" transform="scale(0.3 0.3)">
          <a xlink:href="spawn_8c_a6b7dbc7336de69886687582bfa843c62_cgraph_org.svg" target="_base">
           <rect id="button" ry="5" rx="5" y="6" x="6" height="38" width="38"
                fill="#f2f5e9" fill-opacity="0.5" stroke="#606060" stroke-width="1.0"/>
           <path id="arrow"
             d="M 11.500037,31.436501 C 11.940474,20.09759 22.043105,11.32322 32.158766,21.979434 L 37.068811,17.246167 C 37.068811,17.246167 37.088388,32 37.088388,32 L 22.160133,31.978069 C 22.160133,31.978069 26.997745,27.140456 26.997745,27.140456 C 18.528582,18.264221 13.291696,25.230495 11.500037,31.436501 z"
             style="fill:#404040;"/>
          </a>
         </g>
        </svg>
</svg>
