<?xml version="1.0" encoding="UTF-8" standalone="no"?>
<!DOCTYPE svg PUBLIC "-//W3C//DTD SVG 1.1//EN"
 "http://www.w3.org/Graphics/SVG/1.1/DTD/svg11.dtd">
<!-- Generated by graphviz version 2.38.0 (20140413.2041)
 -->
<!-- Title: src/spawn.c Pages: 1 -->
<!--zoomable 192 -->
<svg id="main" version="1.1" xmlns="http://www.w3.org/2000/svg" xmlns:xlink="http://www.w3.org/1999/xlink" xml:space="preserve" onload="init(evt)">
<style type="text/css"><![CDATA[
.edge:hover path { stroke: red; }
.edge:hover polygon { stroke: red; fill: red; }
]]></style>
<script type="text/javascript"><![CDATA[
var edges = document.getElementsByTagName('g');
if (edges && edges.length) {
  for (var i=0;i<edges.length;i++) {
    if (edges[i].id.substr(0,4)=='edge') {
      edges[i].setAttribute('class','edge');
    }
  }
}
]]></script>
        <defs>
                <circle id="rim" cx="0" cy="0" r="7"/>
                <circle id="rim2" cx="0" cy="0" r="3.5"/>
                <g id="zoomPlus">
                        <use xlink:href="#rim" fill="#404040">
                                <set attributeName="fill" to="#808080" begin="zoomplus.mouseover" end="zoomplus.mouseout"/>
                        </use>
                        <path d="M-4,0h8M0,-4v8" fill="none" stroke="white" stroke-width="1.5" pointer-events="none"/>
                </g>
                <g id="zoomMin">
                        <use xlink:href="#rim" fill="#404040">
                                <set attributeName="fill" to="#808080" begin="zoomminus.mouseover" end="zoomminus.mouseout"/>
                        </use>
                        <path d="M-4,0h8" fill="none" stroke="white" stroke-width="1.5" pointer-events="none"/>
                </g>
                <g id="dirArrow">
                        <path fill="none" stroke="white" stroke-width="1.5" d="M0,-3.0v7 M-2.5,-0.5L0,-3.0L2.5,-0.5"/>
                </g>
               <g id="resetDef">
                       <use xlink:href="#rim2" fill="#404040">
                               <set attributeName="fill" to="#808080" begin="reset.mouseover" end="reset.mouseout"/>
                       </use>
               </g>
        </defs>

<script type="text/javascript">
var viewWidth = 739;
var viewHeight = 192;
var sectionId = 'dynsection-0';
</script>
<script xlink:href="svgpan.js"/>
<svg id="graph" class="graph">
<g id="viewport">
<title>src/spawn.c</title>
<!-- Node1 -->
<g id="node1" class="node"><title>Node1</title>
<polygon fill="#bfbfbf" stroke="black" points="333.227,-165.5 333.227,-183.5 402.02,-183.5 402.02,-165.5 333.227,-165.5"/>
<text text-anchor="middle" x="367.623" y="-171.5" font-family="Helvetica,sans-Serif" font-size="10.00">src/spawn.c</text>
</g>
<!-- Node2 -->
<g id="node2" class="node"><title>Node2</title>
<g id="a_node2"><a xlink:href="commands_8h.html" target="_top" xlink:title="commands.h">
<polygon fill="none" stroke="black" points="0,-110.5 0,-128.5 73.2461,-128.5 73.2461,-110.5 0,-110.5"/>
<text text-anchor="middle" x="36.623" y="-116.5" font-family="Helvetica,sans-Serif" font-size="10.00">commands.h</text>
</a>
</g>
</g>
<!-- Node1&#45;&gt;Node2 -->
<g id="edge1" class="edge"><title>Node1&#45;&gt;Node2</title>
<path fill="none" stroke="midnightblue" d="M333.226,-168.515C281.239,-160.901 179.307,-145.661 83.3099,-129.25"/>
<polygon fill="midnightblue" stroke="midnightblue" points="83.8906,-125.798 73.4425,-127.555 82.7057,-132.697 83.8906,-125.798"/>
</g>
<!-- Node5 -->
<g id="node5" class="node"><title>Node5</title>
<g id="a_node5"><a xlink:href="spawn_8h.html" target="_top" xlink:title="spawn.h">
<polygon fill="none" stroke="black" points="91,-110.5 91,-128.5 144.246,-128.5 144.246,-110.5 91,-110.5"/>
<text text-anchor="middle" x="117.623" y="-116.5" font-family="Helvetica,sans-Serif" font-size="10.00">spawn.h</text>
</a>
</g>
</g>
<!-- Node1&#45;&gt;Node5 -->
<g id="edge4" class="edge"><title>Node1&#45;&gt;Node5</title>
<path fill="none" stroke="midnightblue" d="M333.124,-166.186C286.202,-156.239 202.611,-138.517 154.491,-128.316"/>
<polygon fill="midnightblue" stroke="midnightblue" points="155.008,-124.848 144.5,-126.198 153.556,-131.696 155.008,-124.848"/>
</g>
<!-- Node6 -->
<g id="node6" class="node"><title>Node6</title>
<polygon fill="none" stroke="#bfbfbf" points="119.111,-55.5 119.111,-73.5 170.135,-73.5 170.135,-55.5 119.111,-55.5"/>
<text text-anchor="middle" x="144.623" y="-61.5" font-family="Helvetica,sans-Serif" font-size="10.00">unistd.h</text>
</g>
<!-- Node1&#45;&gt;Node6 -->
<g id="edge8" class="edge"><title>Node1&#45;&gt;Node6</title>
<path fill="none" stroke="midnightblue" d="M333.09,-171.607C295.445,-168.075 234.816,-157.96 191.623,-129 174.222,-117.333 160.853,-96.9811 152.9,-82.4624"/>
<polygon fill="midnightblue" stroke="midnightblue" points="155.979,-80.7962 148.277,-73.5214 149.761,-84.0117 155.979,-80.7962"/>
</g>
<!-- Node7 -->
<g id="node7" class="node"><title>Node7</title>
<polygon fill="none" stroke="#bfbfbf" points="200.892,-110.5 200.892,-128.5 246.354,-128.5 246.354,-110.5 200.892,-110.5"/>
<text text-anchor="middle" x="223.623" y="-116.5" font-family="Helvetica,sans-Serif" font-size="10.00">stdio.h</text>
</g>
<!-- Node1&#45;&gt;Node7 -->
<g id="edge6" class="edge"><title>Node1&#45;&gt;Node7</title>
<path fill="none" stroke="midnightblue" d="M345.753,-165.45C321.647,-156.578 282.66,-142.229 255.232,-132.134"/>
<polygon fill="midnightblue" stroke="midnightblue" points="256.293,-128.795 245.699,-128.625 253.875,-135.364 256.293,-128.795"/>
</g>
<!-- Node8 -->
<g id="node8" class="node"><title>Node8</title>
<polygon fill="none" stroke="#bfbfbf" points="264.281,-110.5 264.281,-128.5 316.965,-128.5 316.965,-110.5 264.281,-110.5"/>
<text text-anchor="middle" x="290.623" y="-116.5" font-family="Helvetica,sans-Serif" font-size="10.00">syslog.h</text>
</g>
<!-- Node1&#45;&gt;Node8 -->
<g id="edge7" class="edge"><title>Node1&#45;&gt;Node8</title>
<path fill="none" stroke="midnightblue" d="M355.928,-165.45C343.943,-157.201 325.078,-144.216 310.699,-134.319"/>
<polygon fill="midnightblue" stroke="midnightblue" points="312.65,-131.412 302.428,-128.625 308.681,-137.178 312.65,-131.412"/>
</g>
<!-- Node9 -->
<g id="node9" class="node"><title>Node9</title>
<polygon fill="none" stroke="#bfbfbf" points="334.613,-110.5 334.613,-128.5 400.633,-128.5 400.633,-110.5 334.613,-110.5"/>
<text text-anchor="middle" x="367.623" y="-116.5" font-family="Helvetica,sans-Serif" font-size="10.00">sys/types.h</text>
</g>
<!-- Node1&#45;&gt;Node9 -->
<g id="edge9" class="edge"><title>Node1&#45;&gt;Node9</title>
<path fill="none" stroke="midnightblue" d="M367.623,-165.219C367.623,-158.177 367.623,-147.808 367.623,-138.828"/>
<polygon fill="midnightblue" stroke="midnightblue" points="371.123,-138.55 367.623,-128.55 364.123,-138.55 371.123,-138.55"/>
</g>
<!-- Node10 -->
<g id="node10" class="node"><title>Node10</title>
<polygon fill="none" stroke="#bfbfbf" points="418.389,-110.5 418.389,-128.5 468.857,-128.5 468.857,-110.5 418.389,-110.5"/>
<text text-anchor="middle" x="443.623" y="-116.5" font-family="Helvetica,sans-Serif" font-size="10.00">signal.h</text>
</g>
<!-- Node1&#45;&gt;Node10 -->
<g id="edge10" class="edge"><title>Node1&#45;&gt;Node10</title>
<path fill="none" stroke="midnightblue" d="M379.166,-165.45C390.884,-157.279 409.265,-144.46 423.405,-134.6"/>
<polygon fill="midnightblue" stroke="midnightblue" points="425.771,-137.216 431.972,-128.625 421.767,-131.475 425.771,-137.216"/>
</g>
<!-- Node11 -->
<g id="node11" class="node"><title>Node11</title>
<polygon fill="none" stroke="#bfbfbf" points="486.892,-110.5 486.892,-128.5 532.354,-128.5 532.354,-110.5 486.892,-110.5"/>
<text text-anchor="middle" x="509.623" y="-116.5" font-family="Helvetica,sans-Serif" font-size="10.00">dlfcn.h</text>
</g>
<!-- Node1&#45;&gt;Node11 -->
<g id="edge11" class="edge"><title>Node1&#45;&gt;Node11</title>
<path fill="none" stroke="midnightblue" d="M389.19,-165.45C412.96,-156.578 451.406,-142.229 478.453,-132.134"/>
<polygon fill="midnightblue" stroke="midnightblue" points="479.709,-135.401 487.853,-128.625 477.261,-128.843 479.709,-135.401"/>
</g>
<!-- Node12 -->
<g id="node12" class="node"><title>Node12</title>
<polygon fill="none" stroke="#bfbfbf" points="550.446,-110.5 550.446,-128.5 594.8,-128.5 594.8,-110.5 550.446,-110.5"/>
<text text-anchor="middle" x="572.623" y="-116.5" font-family="Helvetica,sans-Serif" font-size="10.00">argp.h</text>
</g>
<!-- Node1&#45;&gt;Node12 -->
<g id="edge12" class="edge"><title>Node1&#45;&gt;Node12</title>
<path fill="none" stroke="midnightblue" d="M399.736,-165.464C432.706,-157.174 485.75,-143.73 540.423,-129.286"/>
<polygon fill="midnightblue" stroke="midnightblue" points="541.514,-132.618 550.284,-126.675 539.722,-125.851 541.514,-132.618"/>
</g>
<!-- Node13 -->
<g id="node13" class="node"><title>Node13</title>
<polygon fill="none" stroke="#bfbfbf" points="612.837,-110.5 612.837,-128.5 664.409,-128.5 664.409,-110.5 612.837,-110.5"/>
<text text-anchor="middle" x="638.623" y="-116.5" font-family="Helvetica,sans-Serif" font-size="10.00">assert.h</text>
</g>
<!-- Node1&#45;&gt;Node13 -->
<g id="edge13" class="edge"><title>Node1&#45;&gt;Node13</title>
<path fill="none" stroke="midnightblue" d="M402.13,-167.572C446.314,-159.854 525.462,-145.606 602.759,-129.094"/>
<polygon fill="midnightblue" stroke="midnightblue" points="603.624,-132.488 612.664,-126.963 602.151,-125.644 603.624,-132.488"/>
</g>
<!-- Node14 -->
<g id="node14" class="node"><title>Node14</title>
<polygon fill="none" stroke="#bfbfbf" points="682.227,-110.5 682.227,-128.5 731.02,-128.5 731.02,-110.5 682.227,-110.5"/>
<text text-anchor="middle" x="706.623" y="-116.5" font-family="Helvetica,sans-Serif" font-size="10.00">string.h</text>
</g>
<!-- Node1&#45;&gt;Node14 -->
<g id="edge14" class="edge"><title>Node1&#45;&gt;Node14</title>
<path fill="none" stroke="midnightblue" d="M402.249,-169.697C457.402,-163.372 568.748,-149.516 672.198,-129.104"/>
<polygon fill="midnightblue" stroke="midnightblue" points="673.062,-132.5 682.182,-127.108 671.69,-125.636 673.062,-132.5"/>
</g>
<!-- Node3 -->
<g id="node3" class="node"><title>Node3</title>
<g id="a_node3"><a xlink:href="ventd_8h.html" target="_top" xlink:title="ventd.h">
<polygon fill="none" stroke="black" points="12.2217,-55.5 12.2217,-73.5 61.0244,-73.5 61.0244,-55.5 12.2217,-55.5"/>
<text text-anchor="middle" x="36.623" y="-61.5" font-family="Helvetica,sans-Serif" font-size="10.00">ventd.h</text>
</a>
</g>
</g>
<!-- Node2&#45;&gt;Node3 -->
<g id="edge2" class="edge"><title>Node2&#45;&gt;Node3</title>
<path fill="none" stroke="midnightblue" d="M36.623,-110.219C36.623,-103.177 36.623,-92.8083 36.623,-83.8277"/>
<polygon fill="midnightblue" stroke="midnightblue" points="40.1231,-83.5495 36.623,-73.5496 33.1231,-83.5496 40.1231,-83.5495"/>
</g>
<!-- Node4 -->
<g id="node4" class="node"><title>Node4</title>
<polygon fill="none" stroke="#bfbfbf" points="12.7808,-0.5 12.7808,-18.5 60.4653,-18.5 60.4653,-0.5 12.7808,-0.5"/>
<text text-anchor="middle" x="36.623" y="-6.5" font-family="Helvetica,sans-Serif" font-size="10.00">stdlib.h</text>
</g>
<!-- Node3&#45;&gt;Node4 -->
<g id="edge3" class="edge"><title>Node3&#45;&gt;Node4</title>
<path fill="none" stroke="midnightblue" d="M36.623,-55.2188C36.623,-48.1769 36.623,-37.8083 36.623,-28.8277"/>
<polygon fill="midnightblue" stroke="midnightblue" points="40.1231,-28.5495 36.623,-18.5496 33.1231,-28.5496 40.1231,-28.5495"/>
</g>
<!-- Node5&#45;&gt;Node6 -->
<g id="edge5" class="edge"><title>Node5&#45;&gt;Node6</title>
<path fill="none" stroke="midnightblue" d="M121.842,-110.219C125.589,-102.864 131.184,-91.8801 135.892,-82.639"/>
<polygon fill="midnightblue" stroke="midnightblue" points="139.102,-84.0487 140.522,-73.5496 132.864,-80.8712 139.102,-84.0487"/>
</g>
</g>
</svg>
        <g id="navigator" transform="translate(0 0)" fill="#404254">
                <rect fill="#f2f5e9" fill-opacity="0.5" stroke="#606060" stroke-width=".5" x="0" y="0" width="60" height="60"/>
                <use id="zoomplus" xlink:href="#zoomPlus" x="17" y="9" onmousedown="handleZoom(evt,'in')"/>
                <use id="zoomminus" xlink:href="#zoomMin" x="42" y="9" onmousedown="handleZoom(evt,'out')"/>
                <use id="reset" xlink:href="#resetDef" x="30" y="36" onmousedown="handleReset()"/>
                <g id="arrowUp" xlink:href="#dirArrow" transform="translate(30 24)" onmousedown="handlePan(0,-1)">
                  <use xlink:href="#rim" fill="#404040">
                        <set attributeName="fill" to="#808080" begin="arrowUp.mouseover" end="arrowUp.mouseout"/>
                  </use>
                  <path fill="none" stroke="white" stroke-width="1.5" d="M0,-3.0v7 M-2.5,-0.5L0,-3.0L2.5,-0.5"/>
                </g>
                <g id="arrowRight" xlink:href="#dirArrow" transform="rotate(90) translate(36 -43)" onmousedown="handlePan(1,0)">
                  <use xlink:href="#rim" fill="#404040">
                        <set attributeName="fill" to="#808080" begin="arrowRight.mouseover" end="arrowRight.mouseout"/>
                  </use>
                  <path fill="none" stroke="white" stroke-width="1.5" d="M0,-3.0v7 M-2.5,-0.5L0,-3.0L2.5,-0.5"/>
                </g>
                <g id="arrowDown" xlink:href="#dirArrow" transform="rotate(180) translate(-30 -48)" onmousedown="handlePan(0,1)">
                  <use xlink:href="#rim" fill="#404040">
                        <set attributeName="fill" to="#808080" begin="arrowDown.mouseover" end="arrowDown.mouseout"/>
                  </use>
                  <path fill="none" stroke="white" stroke-width="1.5" d="M0,-3.0v7 M-2.5,-0.5L0,-3.0L2.5,-0.5"/>
                </g>
                <g id="arrowLeft" xlink:href="#dirArrow" transform="rotate(270) translate(-36 17)" onmousedown="handlePan(-1,0)">
                  <use xlink:href="#rim" fill="#404040">
                        <set attributeName="fill" to="#808080" begin="arrowLeft.mouseover" end="arrowLeft.mouseout"/>
                  </use>
                  <path fill="none" stroke="white" stroke-width="1.5" d="M0,-3.0v7 M-2.5,-0.5L0,-3.0L2.5,-0.5"/>
                </g>
        </g>
        <svg viewBox="0 0 15 15" width="100%" height="30px" preserveAspectRatio="xMaxYMin meet">
         <g id="arrow_out" transform="scale(0.3 0.3)">
          <a xlink:href="spawn_8c__incl_org.svg" target="_base">
           <rect id="button" ry="5" rx="5" y="6" x="6" height="38" width="38"
                fill="#f2f5e9" fill-opacity="0.5" stroke="#606060" stroke-width="1.0"/>
           <path id="arrow"
             d="M 11.500037,31.436501 C 11.940474,20.09759 22.043105,11.32322 32.158766,21.979434 L 37.068811,17.246167 C 37.068811,17.246167 37.088388,32 37.088388,32 L 22.160133,31.978069 C 22.160133,31.978069 26.997745,27.140456 26.997745,27.140456 C 18.528582,18.264221 13.291696,25.230495 11.500037,31.436501 z"
             style="fill:#404040;"/>
          </a>
         </g>
        </svg>
</svg>
