<?xml version="1.0" encoding="UTF-8" standalone="no"?>
<!DOCTYPE svg PUBLIC "-//W3C//DTD SVG 1.1//EN"
 "http://www.w3.org/Graphics/SVG/1.1/DTD/svg11.dtd">
<!-- Generated by graphviz version 2.38.0 (20140413.2041)
 -->
<!-- Title: sig_chld Pages: 1 -->
<svg width="397pt" height="65pt"
 viewBox="0.00 0.00 396.79 65.00" xmlns="http://www.w3.org/2000/svg" xmlns:xlink="http://www.w3.org/1999/xlink">
<g id="graph0" class="graph" transform="scale(1 1) rotate(0) translate(4 61)">
<title>sig_chld</title>
<!-- Node1 -->
<g id="node1" class="node"><title>Node1</title>
<polygon fill="#bfbfbf" stroke="black" points="0,-19.5 0,-37.5 52.6895,-37.5 52.6895,-19.5 0,-19.5"/>
<text text-anchor="middle" x="26.3447" y="-25.5" font-family="Helvetica,sans-Serif" font-size="10.00">sig_chld</text>
</g>
<!-- Node2 -->
<g id="node2" class="node"><title>Node2</title>
<g id="a_node2"><a xlink:href="spawn_8c.html#aa98600dba1297718d8bcb80f3f2e9a7f" target="_top" xlink:title="lookup_child">
<polygon fill="none" stroke="black" points="200.162,-38.5 200.162,-56.5 271.758,-56.5 271.758,-38.5 200.162,-38.5"/>
<text text-anchor="middle" x="235.96" y="-44.5" font-family="Helvetica,sans-Serif" font-size="10.00">lookup_child</text>
</a>
</g>
</g>
<!-- Node1&#45;&gt;Node2 -->
<g id="edge1" class="edge"><title>Node1&#45;&gt;Node2</title>
<path fill="none" stroke="midnightblue" d="M52.8024,-30.8298C86.9133,-33.9514 148.009,-39.5426 189.969,-43.3826"/>
<polygon fill="midnightblue" stroke="midnightblue" points="189.654,-46.8684 199.932,-44.2944 190.292,-39.8975 189.654,-46.8684"/>
</g>
<!-- Node4 -->
<g id="node4" class="node"><title>Node4</title>
<g id="a_node4"><a xlink:href="spawn_8c.html#aab3f6f39289a3ae5734f5479f8126b4a" target="_top" xlink:title="remove_child">
<polygon fill="none" stroke="black" points="88.6895,-0.5 88.6895,-18.5 164.162,-18.5 164.162,-0.5 88.6895,-0.5"/>
<text text-anchor="middle" x="126.426" y="-6.5" font-family="Helvetica,sans-Serif" font-size="10.00">remove_child</text>
</a>
</g>
</g>
<!-- Node1&#45;&gt;Node4 -->
<g id="edge3" class="edge"><title>Node1&#45;&gt;Node4</title>
<path fill="none" stroke="midnightblue" d="M52.8583,-23.5576C60.7763,-22.0237 69.7666,-20.2821 78.6572,-18.5599"/>
<polygon fill="midnightblue" stroke="midnightblue" points="79.4382,-21.9737 88.5901,-16.6357 78.1069,-15.1015 79.4382,-21.9737"/>
</g>
<!-- Node3 -->
<g id="node3" class="node"><title>Node3</title>
<g id="a_node3"><a xlink:href="spawn_8c.html#aa09040e4e3147c7624f7011c58f692b8" target="_top" xlink:title="child_compare">
<polygon fill="none" stroke="black" points="307.758,-19.5 307.758,-37.5 388.792,-37.5 388.792,-19.5 307.758,-19.5"/>
<text text-anchor="middle" x="348.275" y="-25.5" font-family="Helvetica,sans-Serif" font-size="10.00">child_compare</text>
</a>
</g>
</g>
<!-- Node2&#45;&gt;Node3 -->
<g id="edge2" class="edge"><title>Node2&#45;&gt;Node3</title>
<path fill="none" stroke="midnightblue" d="M271.864,-41.4883C280.031,-40.0817 288.885,-38.5567 297.558,-37.0629"/>
<polygon fill="midnightblue" stroke="midnightblue" points="298.344,-40.4792 307.605,-35.3326 297.156,-33.5808 298.344,-40.4792"/>
</g>
<!-- Node4&#45;&gt;Node2 -->
<g id="edge4" class="edge"><title>Node4&#45;&gt;Node2</title>
<path fill="none" stroke="midnightblue" d="M152.91,-18.5055C166.87,-23.4385 184.385,-29.6281 199.645,-35.0204"/>
<polygon fill="midnightblue" stroke="midnightblue" points="198.691,-38.3956 209.286,-38.4275 201.024,-31.7956 198.691,-38.3956"/>
</g>
<!-- Node4&#45;&gt;Node3 -->
<g id="edge5" class="edge"><title>Node4&#45;&gt;Node3</title>
<path fill="none" stroke="midnightblue" d="M164.224,-12.6802C200.77,-15.8386 257.051,-20.7026 297.559,-24.2034"/>
<polygon fill="midnightblue" stroke="midnightblue" points="297.491,-27.7105 307.755,-25.0846 298.094,-20.7365 297.491,-27.7105"/>
</g>
</g>
</svg>
