<?xml version="1.0" encoding="UTF-8" standalone="no"?>
<!DOCTYPE svg PUBLIC "-//W3C//DTD SVG 1.1//EN"
 "http://www.w3.org/Graphics/SVG/1.1/DTD/svg11.dtd">
<!-- Generated by graphviz version 2.26.3 (20100126.1600)
 -->
<!-- Title: sig_chld Pages: 1 -->
<svg width="396pt" height="69pt"
 viewBox="0.00 0.00 396.00 69.00" xmlns="http://www.w3.org/2000/svg" xmlns:xlink="http://www.w3.org/1999/xlink">
<g id="graph1" class="graph" transform="scale(1 1) rotate(0) translate(4 65)">
<title>sig_chld</title>
<!-- Node1 -->
<g id="node1" class="node"><title>Node1</title>
<polygon fill="#bfbfbf" stroke="black" points="0.5,-19.5 0.5,-40.5 53.5,-40.5 53.5,-19.5 0.5,-19.5"/>
<text text-anchor="middle" x="27" y="-27.5" font-family="Helvetica,sans-Serif" font-size="10.00">sig_chld</text>
</g>
<!-- Node2 -->
<g id="node3" class="node"><title>Node2</title>
<a xlink:href="group__children-management.html#gaa98600dba1297718d8bcb80f3f2e9a7f" target="_top" xlink:title="Lookup a child in a list by pid.">
<polygon fill="none" stroke="black" points="200.5,-39.5 200.5,-60.5 271.5,-60.5 271.5,-39.5 200.5,-39.5"/>
<text text-anchor="middle" x="236" y="-47.5" font-family="Helvetica,sans-Serif" font-size="10.00">lookup_child</text>
</a>
</g>
<!-- Node1&#45;&gt;Node2 -->
<g id="edge2" class="edge"><title>Node1&#45;&gt;Node2</title>
<path fill="none" stroke="midnightblue" d="M53.8952,-32.5737C88.3498,-35.8708 148.59,-41.6354 190.3,-45.6268"/>
<polygon fill="midnightblue" stroke="midnightblue" points="190.191,-49.1322 200.479,-46.6008 190.857,-42.1641 190.191,-49.1322"/>
</g>
<!-- Node4 -->
<g id="node7" class="node"><title>Node4</title>
<a xlink:href="group__children-management.html#gaab3f6f39289a3ae5734f5479f8126b4a" target="_top" xlink:title="Remove a child in the list by pid.">
<polygon fill="none" stroke="black" points="90,-0.5 90,-21.5 164,-21.5 164,-0.5 90,-0.5"/>
<text text-anchor="middle" x="127" y="-8.5" font-family="Helvetica,sans-Serif" font-size="10.00">remove_child</text>
</a>
</g>
<!-- Node1&#45;&gt;Node4 -->
<g id="edge6" class="edge"><title>Node1&#45;&gt;Node4</title>
<path fill="none" stroke="midnightblue" d="M53.5356,-24.9582C61.6074,-23.4246 70.7343,-21.6905 79.7422,-19.979"/>
<polygon fill="midnightblue" stroke="midnightblue" points="80.6283,-23.3733 89.7992,-18.0681 79.3216,-16.4963 80.6283,-23.3733"/>
</g>
<!-- Node3 -->
<g id="node5" class="node"><title>Node3</title>
<a xlink:href="group__children-management.html#gaa09040e4e3147c7624f7011c58f692b8" target="_top" xlink:title="child_compare">
<polygon fill="none" stroke="black" points="308,-19.5 308,-40.5 388,-40.5 388,-19.5 308,-19.5"/>
<text text-anchor="middle" x="348" y="-27.5" font-family="Helvetica,sans-Serif" font-size="10.00">child_compare</text>
</a>
</g>
<!-- Node2&#45;&gt;Node3 -->
<g id="edge4" class="edge"><title>Node2&#45;&gt;Node3</title>
<path fill="none" stroke="midnightblue" d="M271.745,-43.6169C280.118,-42.1218 289.188,-40.5021 298.054,-38.9189"/>
<polygon fill="midnightblue" stroke="midnightblue" points="298.7,-42.3591 307.929,-37.1556 297.469,-35.4681 298.7,-42.3591"/>
</g>
<!-- Node4&#45;&gt;Node2 -->
<g id="edge8" class="edge"><title>Node4&#45;&gt;Node2</title>
<path fill="none" stroke="midnightblue" d="M156.497,-21.554C168.978,-26.0195 183.692,-31.2842 197.047,-36.0625"/>
<polygon fill="midnightblue" stroke="midnightblue" points="195.885,-39.3641 206.479,-39.4376 198.243,-32.7733 195.885,-39.3641"/>
</g>
<!-- Node4&#45;&gt;Node3 -->
<g id="edge10" class="edge"><title>Node4&#45;&gt;Node3</title>
<path fill="none" stroke="midnightblue" d="M164.49,-14.2231C201.081,-17.369 257.007,-22.1771 297.503,-25.6586"/>
<polygon fill="midnightblue" stroke="midnightblue" points="297.441,-29.1661 307.704,-26.5356 298.041,-22.1919 297.441,-29.1661"/>
</g>
</g>
</svg>
