<?xml version="1.0" encoding="UTF-8" standalone="no"?>
<!DOCTYPE svg PUBLIC "-//W3C//DTD SVG 1.1//EN"
 "http://www.w3.org/Graphics/SVG/1.1/DTD/svg11.dtd">
<!-- Generated by graphviz version 2.26.3 (20100126.1600)
 -->
<!-- Title: main Pages: 1 -->
<svg width="262pt" height="170pt"
 viewBox="0.00 0.00 262.00 170.00" xmlns="http://www.w3.org/2000/svg" xmlns:xlink="http://www.w3.org/1999/xlink">
<g id="graph1" class="graph" transform="scale(1 1) rotate(0) translate(4 166)">
<title>main</title>
<!-- Node1 -->
<g id="node1" class="node"><title>Node1</title>
<polygon fill="#bfbfbf" stroke="black" points="0,-80.5 0,-101.5 38,-101.5 38,-80.5 0,-80.5"/>
<text text-anchor="middle" x="19" y="-88.5" font-family="Helvetica,sans-Serif" font-size="10.00">main</text>
</g>
<!-- Node2 -->
<g id="node3" class="node"><title>Node2</title>
<a xlink:href="ventd_8c.html#ab065705c6d0b4619995c2f1a318d31ba" target="_top" xlink:title="Set up arg_p option parsing.">
<polygon fill="none" stroke="black" points="77.5,-140.5 77.5,-161.5 154.5,-161.5 154.5,-140.5 77.5,-140.5"/>
<text text-anchor="middle" x="116" y="-148.5" font-family="Helvetica,sans-Serif" font-size="10.00">parse_options</text>
</a>
</g>
<!-- Node1&#45;&gt;Node2 -->
<g id="edge2" class="edge"><title>Node1&#45;&gt;Node2</title>
<path fill="none" stroke="midnightblue" d="M32.0884,-101.581C42.9459,-110.093 58.9819,-122.067 74,-131 76.6897,-132.6 79.5274,-134.174 82.4067,-135.693"/>
<polygon fill="midnightblue" stroke="midnightblue" points="81.1084,-138.957 91.615,-140.322 84.2528,-132.703 81.1084,-138.957"/>
</g>
<!-- Node4 -->
<g id="node7" class="node"><title>Node4</title>
<a xlink:href="ventd_8c.html#ae710b6e1e3475f05843032f73a4dd7a7" target="_top" xlink:title="Termination signal handler.">
<polygon fill="none" stroke="black" points="76.5,-100.5 76.5,-121.5 155.5,-121.5 155.5,-100.5 76.5,-100.5"/>
<text text-anchor="middle" x="116" y="-108.5" font-family="Helvetica,sans-Serif" font-size="10.00">signal_handler</text>
</a>
</g>
<!-- Node1&#45;&gt;Node4 -->
<g id="edge6" class="edge"><title>Node1&#45;&gt;Node4</title>
<path fill="none" stroke="midnightblue" d="M38.1641,-94.9514C46.3631,-96.6419 56.3538,-98.7018 66.4072,-100.775"/>
<polygon fill="midnightblue" stroke="midnightblue" points="65.9166,-104.247 76.4174,-102.839 67.3302,-97.3913 65.9166,-104.247"/>
</g>
<!-- Node5 -->
<g id="node9" class="node"><title>Node5</title>
<a xlink:href="ventd_8c.html#a6d3ff0af9dd1932c1c031b2c51d88ee0" target="_top" xlink:title="Do a clean shutdown, clean up stuff.">
<polygon fill="none" stroke="black" points="98,-60.5 98,-81.5 134,-81.5 134,-60.5 98,-60.5"/>
<text text-anchor="middle" x="116" y="-68.5" font-family="Helvetica,sans-Serif" font-size="10.00">term</text>
</a>
</g>
<!-- Node1&#45;&gt;Node5 -->
<g id="edge8" class="edge"><title>Node1&#45;&gt;Node5</title>
<path fill="none" stroke="midnightblue" d="M38.1641,-87.0486C52.3856,-84.1164 71.9976,-80.0727 87.9769,-76.778"/>
<polygon fill="midnightblue" stroke="midnightblue" points="88.7728,-80.1876 97.86,-74.7402 87.3592,-73.3318 88.7728,-80.1876"/>
</g>
<!-- Node6 -->
<g id="node11" class="node"><title>Node6</title>
<a xlink:href="control_8c.html#afb21092d2ff9f3777a77bb74e37db7b1" target="_top" xlink:title="continuously read on the control file descriptor, and execute commands received.">
<polygon fill="none" stroke="black" points="74.5,-20.5 74.5,-41.5 157.5,-41.5 157.5,-20.5 74.5,-20.5"/>
<text text-anchor="middle" x="116" y="-28.5" font-family="Helvetica,sans-Serif" font-size="10.00">command_loop</text>
</a>
</g>
<!-- Node1&#45;&gt;Node6 -->
<g id="edge10" class="edge"><title>Node1&#45;&gt;Node6</title>
<path fill="none" stroke="midnightblue" d="M32.0884,-80.4191C42.9459,-71.9065 58.9819,-59.9332 74,-51 76.6897,-49.4001 79.5274,-47.8263 82.4067,-46.3074"/>
<polygon fill="midnightblue" stroke="midnightblue" points="84.2528,-49.2968 91.615,-41.6778 81.1084,-43.0427 84.2528,-49.2968"/>
</g>
<!-- Node3 -->
<g id="node5" class="node"><title>Node3</title>
<a xlink:href="ventd_8c.html#aaf7bc24f3891f0c63a6043f4dc2ab311" target="_top" xlink:title="argp option callback.">
<polygon fill="none" stroke="black" points="194.5,-140.5 194.5,-161.5 253.5,-161.5 253.5,-140.5 194.5,-140.5"/>
<text text-anchor="middle" x="224" y="-148.5" font-family="Helvetica,sans-Serif" font-size="10.00">parse_opt</text>
</a>
</g>
<!-- Node2&#45;&gt;Node3 -->
<g id="edge4" class="edge"><title>Node2&#45;&gt;Node3</title>
<path fill="none" stroke="midnightblue" d="M154.685,-151C164.286,-151 174.592,-151 184.243,-151"/>
<polygon fill="midnightblue" stroke="midnightblue" points="184.395,-154.5 194.395,-151 184.395,-147.5 184.395,-154.5"/>
</g>
<!-- Node7 -->
<g id="node13" class="node"><title>Node7</title>
<a xlink:href="ventd_8c.html#ab449b3631df031cf379352e21a433adb" target="_top" xlink:title="Reads on the specified file descriptor until a separator is found.">
<polygon fill="none" stroke="black" points="197,-40.5 197,-61.5 251,-61.5 251,-40.5 197,-40.5"/>
<text text-anchor="middle" x="224" y="-48.5" font-family="Helvetica,sans-Serif" font-size="10.00">readcmd</text>
</a>
</g>
<!-- Node6&#45;&gt;Node7 -->
<g id="edge12" class="edge"><title>Node6&#45;&gt;Node7</title>
<path fill="none" stroke="midnightblue" d="M157.756,-38.7325C167.244,-40.4896 177.264,-42.3452 186.559,-44.0666"/>
<polygon fill="midnightblue" stroke="midnightblue" points="186.209,-47.5612 196.679,-45.9406 187.484,-40.6782 186.209,-47.5612"/>
</g>
<!-- Node8 -->
<g id="node15" class="node"><title>Node8</title>
<a xlink:href="control_8c.html#a156816dfaf4b4bf275c44f26d3e0c543" target="_top" xlink:title="execute a command">
<polygon fill="none" stroke="black" points="198.5,-0.5 198.5,-21.5 249.5,-21.5 249.5,-0.5 198.5,-0.5"/>
<text text-anchor="middle" x="224" y="-8.5" font-family="Helvetica,sans-Serif" font-size="10.00">execute</text>
</a>
</g>
<!-- Node6&#45;&gt;Node8 -->
<g id="edge14" class="edge"><title>Node6&#45;&gt;Node8</title>
<path fill="none" stroke="midnightblue" d="M157.756,-23.2675C167.782,-21.4108 178.402,-19.4441 188.133,-17.642"/>
<polygon fill="midnightblue" stroke="midnightblue" points="189.078,-21.0266 198.274,-15.7641 187.804,-14.1436 189.078,-21.0266"/>
</g>
</g>
</svg>
