<?xml version="1.0" encoding="UTF-8" standalone="no"?>
<!DOCTYPE svg PUBLIC "-//W3C//DTD SVG 1.1//EN"
 "http://www.w3.org/Graphics/SVG/1.1/DTD/svg11.dtd">
<!-- Generated by graphviz version 2.38.0 (20140413.2041)
 -->
<!-- Title: src/ventd.c Pages: 1 -->
<!--zoomable 137 -->
<svg id="main" version="1.1" xmlns="http://www.w3.org/2000/svg" xmlns:xlink="http://www.w3.org/1999/xlink" xml:space="preserve" onload="init(evt)">
<style type="text/css"><![CDATA[
.edge:hover path { stroke: red; }
.edge:hover polygon { stroke: red; fill: red; }
]]></style>
<script type="text/javascript"><![CDATA[
var edges = document.getElementsByTagName('g');
if (edges && edges.length) {
  for (var i=0;i<edges.length;i++) {
    if (edges[i].id.substr(0,4)=='edge') {
      edges[i].setAttribute('class','edge');
    }
  }
}
]]></script>
        <defs>
                <circle id="rim" cx="0" cy="0" r="7"/>
                <circle id="rim2" cx="0" cy="0" r="3.5"/>
                <g id="zoomPlus">
                        <use xlink:href="#rim" fill="#404040">
                                <set attributeName="fill" to="#808080" begin="zoomplus.mouseover" end="zoomplus.mouseout"/>
                        </use>
                        <path d="M-4,0h8M0,-4v8" fill="none" stroke="white" stroke-width="1.5" pointer-events="none"/>
                </g>
                <g id="zoomMin">
                        <use xlink:href="#rim" fill="#404040">
                                <set attributeName="fill" to="#808080" begin="zoomminus.mouseover" end="zoomminus.mouseout"/>
                        </use>
                        <path d="M-4,0h8" fill="none" stroke="white" stroke-width="1.5" pointer-events="none"/>
                </g>
                <g id="dirArrow">
                        <path fill="none" stroke="white" stroke-width="1.5" d="M0,-3.0v7 M-2.5,-0.5L0,-3.0L2.5,-0.5"/>
                </g>
               <g id="resetDef">
                       <use xlink:href="#rim2" fill="#404040">
                               <set attributeName="fill" to="#808080" begin="reset.mouseover" end="reset.mouseout"/>
                       </use>
               </g>
        </defs>

<script type="text/javascript">
var viewWidth = 871;
var viewHeight = 137;
var sectionId = 'dynsection-0';
</script>
<script xlink:href="svgpan.js"/>
<svg id="graph" class="graph">
<g id="viewport">
<title>src/ventd.c</title>
<!-- Node1 -->
<g id="node1" class="node"><title>Node1</title>
<polygon fill="#bfbfbf" stroke="black" points="382.564,-110.5 382.564,-128.5 446.914,-128.5 446.914,-110.5 382.564,-110.5"/>
<text text-anchor="middle" x="414.739" y="-116.5" font-family="Helvetica,sans-Serif" font-size="10.00">src/ventd.c</text>
</g>
<!-- Node2 -->
<g id="node2" class="node"><title>Node2</title>
<polygon fill="none" stroke="#bfbfbf" points="0,-55.5 0,-73.5 65.4775,-73.5 65.4775,-55.5 0,-55.5"/>
<text text-anchor="middle" x="32.7388" y="-61.5" font-family="Helvetica,sans-Serif" font-size="10.00">configure.h</text>
</g>
<!-- Node1&#45;&gt;Node2 -->
<g id="edge1" class="edge"><title>Node1&#45;&gt;Node2</title>
<path fill="none" stroke="midnightblue" d="M382.281,-115.013C323.319,-108.515 194.493,-93.5627 75.7063,-74.0549"/>
<polygon fill="midnightblue" stroke="midnightblue" points="76.1514,-70.581 65.7137,-72.3989 75.0069,-77.4868 76.1514,-70.581"/>
</g>
<!-- Node3 -->
<g id="node3" class="node"><title>Node3</title>
<g id="a_node3"><a xlink:href="ventd_8h.html" target="_top" xlink:title="ventd.h">
<polygon fill="none" stroke="black" points="83.3374,-55.5 83.3374,-73.5 132.14,-73.5 132.14,-55.5 83.3374,-55.5"/>
<text text-anchor="middle" x="107.739" y="-61.5" font-family="Helvetica,sans-Serif" font-size="10.00">ventd.h</text>
</a>
</g>
</g>
<!-- Node1&#45;&gt;Node3 -->
<g id="edge2" class="edge"><title>Node1&#45;&gt;Node3</title>
<path fill="none" stroke="midnightblue" d="M382.336,-113.741C331.694,-106.167 230.772,-90.5302 145.739,-74 144.644,-73.7871 143.532,-73.5664 142.41,-73.3397"/>
<polygon fill="midnightblue" stroke="midnightblue" points="142.734,-69.8308 132.226,-71.1894 141.287,-76.6798 142.734,-69.8308"/>
</g>
<!-- Node4 -->
<g id="node4" class="node"><title>Node4</title>
<polygon fill="none" stroke="#bfbfbf" points="109.896,-0.5 109.896,-18.5 157.581,-18.5 157.581,-0.5 109.896,-0.5"/>
<text text-anchor="middle" x="133.739" y="-6.5" font-family="Helvetica,sans-Serif" font-size="10.00">stdlib.h</text>
</g>
<!-- Node1&#45;&gt;Node4 -->
<g id="edge5" class="edge"><title>Node1&#45;&gt;Node4</title>
<path fill="none" stroke="midnightblue" d="M382.416,-115.416C325.929,-109.539 212.079,-95.3854 178.739,-74 161.366,-62.8567 148.704,-42.4036 141.316,-27.7181"/>
<polygon fill="midnightblue" stroke="midnightblue" points="144.477,-26.2148 137.051,-18.6578 138.144,-29.1962 144.477,-26.2148"/>
</g>
<!-- Node5 -->
<g id="node5" class="node"><title>Node5</title>
<polygon fill="none" stroke="#bfbfbf" points="188.007,-55.5 188.007,-73.5 233.47,-73.5 233.47,-55.5 188.007,-55.5"/>
<text text-anchor="middle" x="210.739" y="-61.5" font-family="Helvetica,sans-Serif" font-size="10.00">stdio.h</text>
</g>
<!-- Node1&#45;&gt;Node5 -->
<g id="edge4" class="edge"><title>Node1&#45;&gt;Node5</title>
<path fill="none" stroke="midnightblue" d="M383.337,-110.441C350.797,-102.075 298.207,-88.5145 243.65,-74.2268"/>
<polygon fill="midnightblue" stroke="midnightblue" points="244.367,-70.7964 233.806,-71.6463 242.592,-77.5676 244.367,-70.7964"/>
</g>
<!-- Node6 -->
<g id="node6" class="node"><title>Node6</title>
<polygon fill="none" stroke="#bfbfbf" points="251.342,-55.5 251.342,-73.5 300.135,-73.5 300.135,-55.5 251.342,-55.5"/>
<text text-anchor="middle" x="275.739" y="-61.5" font-family="Helvetica,sans-Serif" font-size="10.00">string.h</text>
</g>
<!-- Node1&#45;&gt;Node6 -->
<g id="edge6" class="edge"><title>Node1&#45;&gt;Node6</title>
<path fill="none" stroke="midnightblue" d="M393.628,-110.45C370.461,-101.617 333.056,-87.3546 306.599,-77.267"/>
<polygon fill="midnightblue" stroke="midnightblue" points="307.639,-73.9178 297.049,-73.6253 305.145,-80.4585 307.639,-73.9178"/>
</g>
<!-- Node7 -->
<g id="node7" class="node"><title>Node7</title>
<polygon fill="none" stroke="#bfbfbf" points="318.396,-55.5 318.396,-73.5 371.081,-73.5 371.081,-55.5 318.396,-55.5"/>
<text text-anchor="middle" x="344.739" y="-61.5" font-family="Helvetica,sans-Serif" font-size="10.00">syslog.h</text>
</g>
<!-- Node1&#45;&gt;Node7 -->
<g id="edge7" class="edge"><title>Node1&#45;&gt;Node7</title>
<path fill="none" stroke="midnightblue" d="M404.107,-110.45C393.417,-102.357 376.707,-89.7042 363.734,-79.8822"/>
<polygon fill="midnightblue" stroke="midnightblue" points="365.556,-76.8713 355.47,-73.6253 361.33,-82.4521 365.556,-76.8713"/>
</g>
<!-- Node8 -->
<g id="node8" class="node"><title>Node8</title>
<polygon fill="none" stroke="#bfbfbf" points="389.505,-55.5 389.505,-73.5 439.973,-73.5 439.973,-55.5 389.505,-55.5"/>
<text text-anchor="middle" x="414.739" y="-61.5" font-family="Helvetica,sans-Serif" font-size="10.00">signal.h</text>
</g>
<!-- Node1&#45;&gt;Node8 -->
<g id="edge8" class="edge"><title>Node1&#45;&gt;Node8</title>
<path fill="none" stroke="midnightblue" d="M414.739,-110.219C414.739,-103.177 414.739,-92.8083 414.739,-83.8277"/>
<polygon fill="midnightblue" stroke="midnightblue" points="418.239,-83.5495 414.739,-73.5496 411.239,-83.5496 418.239,-83.5495"/>
</g>
<!-- Node9 -->
<g id="node9" class="node"><title>Node9</title>
<polygon fill="none" stroke="#bfbfbf" points="458.399,-55.5 458.399,-73.5 501.079,-73.5 501.079,-55.5 458.399,-55.5"/>
<text text-anchor="middle" x="479.739" y="-61.5" font-family="Helvetica,sans-Serif" font-size="10.00">fcntl.h</text>
</g>
<!-- Node1&#45;&gt;Node9 -->
<g id="edge9" class="edge"><title>Node1&#45;&gt;Node9</title>
<path fill="none" stroke="midnightblue" d="M424.611,-110.45C434.442,-102.434 449.757,-89.9471 461.752,-80.1663"/>
<polygon fill="midnightblue" stroke="midnightblue" points="464.235,-82.6573 469.774,-73.6253 459.812,-77.2322 464.235,-82.6573"/>
</g>
<!-- Node10 -->
<g id="node10" class="node"><title>Node10</title>
<polygon fill="none" stroke="#bfbfbf" points="518.729,-55.5 518.729,-73.5 584.749,-73.5 584.749,-55.5 518.729,-55.5"/>
<text text-anchor="middle" x="551.739" y="-61.5" font-family="Helvetica,sans-Serif" font-size="10.00">sys/types.h</text>
</g>
<!-- Node1&#45;&gt;Node10 -->
<g id="edge10" class="edge"><title>Node1&#45;&gt;Node10</title>
<path fill="none" stroke="midnightblue" d="M435.546,-110.45C458.379,-101.617 495.247,-87.3546 521.322,-77.267"/>
<polygon fill="midnightblue" stroke="midnightblue" points="522.672,-80.4977 530.736,-73.6253 520.146,-73.9692 522.672,-80.4977"/>
</g>
<!-- Node11 -->
<g id="node11" class="node"><title>Node11</title>
<polygon fill="none" stroke="#bfbfbf" points="602.621,-55.5 602.621,-73.5 660.857,-73.5 660.857,-55.5 602.621,-55.5"/>
<text text-anchor="middle" x="631.739" y="-61.5" font-family="Helvetica,sans-Serif" font-size="10.00">sys/stat.h</text>
</g>
<!-- Node1&#45;&gt;Node11 -->
<g id="edge11" class="edge"><title>Node1&#45;&gt;Node11</title>
<path fill="none" stroke="midnightblue" d="M447.226,-110.565C486.111,-101.068 551.173,-85.1774 592.738,-75.0256"/>
<polygon fill="midnightblue" stroke="midnightblue" points="593.628,-78.4111 602.512,-72.6384 591.967,-71.611 593.628,-78.4111"/>
</g>
<!-- Node12 -->
<g id="node12" class="node"><title>Node12</title>
<polygon fill="none" stroke="#bfbfbf" points="679.227,-55.5 679.227,-73.5 730.251,-73.5 730.251,-55.5 679.227,-55.5"/>
<text text-anchor="middle" x="704.739" y="-61.5" font-family="Helvetica,sans-Serif" font-size="10.00">unistd.h</text>
</g>
<!-- Node1&#45;&gt;Node12 -->
<g id="edge12" class="edge"><title>Node1&#45;&gt;Node12</title>
<path fill="none" stroke="midnightblue" d="M447.071,-113.554C493.807,-106.252 583.159,-91.729 669.234,-73.9807"/>
<polygon fill="midnightblue" stroke="midnightblue" points="670.09,-77.3775 679.168,-71.9145 668.665,-70.5241 670.09,-77.3775"/>
</g>
<!-- Node13 -->
<g id="node13" class="node"><title>Node13</title>
<polygon fill="none" stroke="#bfbfbf" points="748.562,-55.5 748.562,-73.5 792.916,-73.5 792.916,-55.5 748.562,-55.5"/>
<text text-anchor="middle" x="770.739" y="-61.5" font-family="Helvetica,sans-Serif" font-size="10.00">argp.h</text>
</g>
<!-- Node1&#45;&gt;Node13 -->
<g id="edge13" class="edge"><title>Node1&#45;&gt;Node13</title>
<path fill="none" stroke="midnightblue" d="M447.268,-115.477C504.332,-109.867 626.309,-96.5064 738.356,-74.0411"/>
<polygon fill="midnightblue" stroke="midnightblue" points="739.371,-77.4063 748.472,-71.9821 737.975,-70.547 739.371,-77.4063"/>
</g>
<!-- Node14 -->
<g id="node14" class="node"><title>Node14</title>
<polygon fill="none" stroke="#bfbfbf" points="810.953,-55.5 810.953,-73.5 862.524,-73.5 862.524,-55.5 810.953,-55.5"/>
<text text-anchor="middle" x="836.739" y="-61.5" font-family="Helvetica,sans-Serif" font-size="10.00">assert.h</text>
</g>
<!-- Node1&#45;&gt;Node14 -->
<g id="edge14" class="edge"><title>Node1&#45;&gt;Node14</title>
<path fill="none" stroke="midnightblue" d="M447.044,-116.145C512.087,-111.113 663.602,-97.9223 800.567,-73.9896"/>
<polygon fill="midnightblue" stroke="midnightblue" points="801.585,-77.3639 810.821,-72.1726 800.363,-70.4712 801.585,-77.3639"/>
</g>
<!-- Node3&#45;&gt;Node4 -->
<g id="edge3" class="edge"><title>Node3&#45;&gt;Node4</title>
<path fill="none" stroke="midnightblue" d="M111.801,-55.2188C115.409,-47.8639 120.798,-36.8801 125.331,-27.639"/>
<polygon fill="midnightblue" stroke="midnightblue" points="128.528,-29.069 129.79,-18.5496 122.243,-25.986 128.528,-29.069"/>
</g>
</g>
</svg>
        <g id="navigator" transform="translate(0 0)" fill="#404254">
                <rect fill="#f2f5e9" fill-opacity="0.5" stroke="#606060" stroke-width=".5" x="0" y="0" width="60" height="60"/>
                <use id="zoomplus" xlink:href="#zoomPlus" x="17" y="9" onmousedown="handleZoom(evt,'in')"/>
                <use id="zoomminus" xlink:href="#zoomMin" x="42" y="9" onmousedown="handleZoom(evt,'out')"/>
                <use id="reset" xlink:href="#resetDef" x="30" y="36" onmousedown="handleReset()"/>
                <g id="arrowUp" xlink:href="#dirArrow" transform="translate(30 24)" onmousedown="handlePan(0,-1)">
                  <use xlink:href="#rim" fill="#404040">
                        <set attributeName="fill" to="#808080" begin="arrowUp.mouseover" end="arrowUp.mouseout"/>
                  </use>
                  <path fill="none" stroke="white" stroke-width="1.5" d="M0,-3.0v7 M-2.5,-0.5L0,-3.0L2.5,-0.5"/>
                </g>
                <g id="arrowRight" xlink:href="#dirArrow" transform="rotate(90) translate(36 -43)" onmousedown="handlePan(1,0)">
                  <use xlink:href="#rim" fill="#404040">
                        <set attributeName="fill" to="#808080" begin="arrowRight.mouseover" end="arrowRight.mouseout"/>
                  </use>
                  <path fill="none" stroke="white" stroke-width="1.5" d="M0,-3.0v7 M-2.5,-0.5L0,-3.0L2.5,-0.5"/>
                </g>
                <g id="arrowDown" xlink:href="#dirArrow" transform="rotate(180) translate(-30 -48)" onmousedown="handlePan(0,1)">
                  <use xlink:href="#rim" fill="#404040">
                        <set attributeName="fill" to="#808080" begin="arrowDown.mouseover" end="arrowDown.mouseout"/>
                  </use>
                  <path fill="none" stroke="white" stroke-width="1.5" d="M0,-3.0v7 M-2.5,-0.5L0,-3.0L2.5,-0.5"/>
                </g>
                <g id="arrowLeft" xlink:href="#dirArrow" transform="rotate(270) translate(-36 17)" onmousedown="handlePan(-1,0)">
                  <use xlink:href="#rim" fill="#404040">
                        <set attributeName="fill" to="#808080" begin="arrowLeft.mouseover" end="arrowLeft.mouseout"/>
                  </use>
                  <path fill="none" stroke="white" stroke-width="1.5" d="M0,-3.0v7 M-2.5,-0.5L0,-3.0L2.5,-0.5"/>
                </g>
        </g>
        <svg viewBox="0 0 15 15" width="100%" height="30px" preserveAspectRatio="xMaxYMin meet">
         <g id="arrow_out" transform="scale(0.3 0.3)">
          <a xlink:href="ventd_8c__incl_org.svg" target="_base">
           <rect id="button" ry="5" rx="5" y="6" x="6" height="38" width="38"
                fill="#f2f5e9" fill-opacity="0.5" stroke="#606060" stroke-width="1.0"/>
           <path id="arrow"
             d="M 11.500037,31.436501 C 11.940474,20.09759 22.043105,11.32322 32.158766,21.979434 L 37.068811,17.246167 C 37.068811,17.246167 37.088388,32 37.088388,32 L 22.160133,31.978069 C 22.160133,31.978069 26.997745,27.140456 26.997745,27.140456 C 18.528582,18.264221 13.291696,25.230495 11.500037,31.436501 z"
             style="fill:#404040;"/>
          </a>
         </g>
        </svg>
</svg>
