<?xml version="1.0" encoding="UTF-8" standalone="no"?>
<!DOCTYPE svg PUBLIC "-//W3C//DTD SVG 1.1//EN"
 "http://www.w3.org/Graphics/SVG/1.1/DTD/svg11.dtd">
<!-- Generated by graphviz version 2.38.0 (20140413.2041)
 -->
<!-- Title: src/ventd.h Pages: 1 -->
<svg width="325pt" height="137pt"
 viewBox="0.00 0.00 324.57 137.00" xmlns="http://www.w3.org/2000/svg" xmlns:xlink="http://www.w3.org/1999/xlink">
<g id="graph0" class="graph" transform="scale(1 1) rotate(0) translate(4 133)">
<title>src/ventd.h</title>
<!-- Node1 -->
<g id="node1" class="node"><title>Node1</title>
<polygon fill="#bfbfbf" stroke="black" points="191.941,-110.5 191.941,-128.5 256.852,-128.5 256.852,-110.5 191.941,-110.5"/>
<text text-anchor="middle" x="224.396" y="-116.5" font-family="Helvetica,sans-Serif" font-size="10.00">src/ventd.h</text>
</g>
<!-- Node2 -->
<g id="node2" class="node"><title>Node2</title>
<g id="a_node2"><a xlink:href="commands_8h.html" target="_top" xlink:title="src/commands.h">
<polygon fill="none" stroke="black" points="99.7192,-55.5 99.7192,-73.5 189.074,-73.5 189.074,-55.5 99.7192,-55.5"/>
<text text-anchor="middle" x="144.396" y="-61.5" font-family="Helvetica,sans-Serif" font-size="10.00">src/commands.h</text>
</a>
</g>
</g>
<!-- Node1&#45;&gt;Node2 -->
<g id="edge1" class="edge"><title>Node1&#45;&gt;Node2</title>
<path fill="none" stroke="midnightblue" d="M203.675,-104.772C188.764,-94.8937 169.157,-81.9036 156.661,-73.6253"/>
<polygon fill="midnightblue" stroke="midnightblue" points="201.977,-107.845 212.246,-110.45 205.843,-102.01 201.977,-107.845"/>
</g>
<!-- Node4 -->
<g id="node4" class="node"><title>Node4</title>
<g id="a_node4"><a xlink:href="control_8c.html" target="_top" xlink:title="src/control.c">
<polygon fill="none" stroke="black" points="193.446,-0.5 193.446,-18.5 263.347,-18.5 263.347,-0.5 193.446,-0.5"/>
<text text-anchor="middle" x="228.396" y="-6.5" font-family="Helvetica,sans-Serif" font-size="10.00">src/control.c</text>
</a>
</g>
</g>
<!-- Node1&#45;&gt;Node4 -->
<g id="edge5" class="edge"><title>Node1&#45;&gt;Node4</title>
<path fill="none" stroke="midnightblue" d="M225.073,-100.243C225.952,-76.4928 227.452,-35.9967 228.092,-18.7118"/>
<polygon fill="midnightblue" stroke="midnightblue" points="221.57,-100.26 224.697,-110.382 228.565,-100.519 221.57,-100.26"/>
</g>
<!-- Node6 -->
<g id="node6" class="node"><title>Node6</title>
<g id="a_node6"><a xlink:href="ventd_8c.html" target="_top" xlink:title="src/ventd.c">
<polygon fill="none" stroke="black" points="252.222,-55.5 252.222,-73.5 316.571,-73.5 316.571,-55.5 252.222,-55.5"/>
<text text-anchor="middle" x="284.396" y="-61.5" font-family="Helvetica,sans-Serif" font-size="10.00">src/ventd.c</text>
</a>
</g>
</g>
<!-- Node1&#45;&gt;Node6 -->
<g id="edge6" class="edge"><title>Node1&#45;&gt;Node6</title>
<path fill="none" stroke="midnightblue" d="M241.218,-103.641C252.223,-93.9201 266.18,-81.5913 275.198,-73.6253"/>
<polygon fill="midnightblue" stroke="midnightblue" points="238.687,-101.207 233.509,-110.45 243.321,-106.453 238.687,-101.207"/>
</g>
<!-- Node3 -->
<g id="node3" class="node"><title>Node3</title>
<g id="a_node3"><a xlink:href="commands_8c.html" target="_top" xlink:title="src/commands.c">
<polygon fill="none" stroke="black" points="0,-0.5 0,-18.5 88.793,-18.5 88.793,-0.5 0,-0.5"/>
<text text-anchor="middle" x="44.3965" y="-6.5" font-family="Helvetica,sans-Serif" font-size="10.00">src/commands.c</text>
</a>
</g>
</g>
<!-- Node2&#45;&gt;Node3 -->
<g id="edge2" class="edge"><title>Node2&#45;&gt;Node3</title>
<path fill="none" stroke="midnightblue" d="M120.321,-50.74C101.485,-40.7567 75.8625,-27.177 59.7273,-18.6253"/>
<polygon fill="midnightblue" stroke="midnightblue" points="118.734,-53.86 129.209,-55.4504 122.012,-47.6749 118.734,-53.86"/>
</g>
<!-- Node2&#45;&gt;Node4 -->
<g id="edge3" class="edge"><title>Node2&#45;&gt;Node4</title>
<path fill="none" stroke="midnightblue" d="M165.712,-50.0507C181.421,-40.1393 202.274,-26.9817 215.519,-18.6253"/>
<polygon fill="midnightblue" stroke="midnightblue" points="163.744,-47.1542 157.154,-55.4504 167.479,-53.0743 163.744,-47.1542"/>
</g>
<!-- Node5 -->
<g id="node5" class="node"><title>Node5</title>
<g id="a_node5"><a xlink:href="spawn_8c.html" target="_top" xlink:title="src/spawn.c">
<polygon fill="none" stroke="black" points="107,-0.5 107,-18.5 175.793,-18.5 175.793,-0.5 107,-0.5"/>
<text text-anchor="middle" x="141.396" y="-6.5" font-family="Helvetica,sans-Serif" font-size="10.00">src/spawn.c</text>
</a>
</g>
</g>
<!-- Node2&#45;&gt;Node5 -->
<g id="edge4" class="edge"><title>Node2&#45;&gt;Node5</title>
<path fill="none" stroke="midnightblue" d="M143.359,-45.1746C142.845,-36.0945 142.251,-25.5949 141.852,-18.5496"/>
<polygon fill="midnightblue" stroke="midnightblue" points="139.868,-45.4326 143.928,-55.2188 146.857,-45.0369 139.868,-45.4326"/>
</g>
</g>
</svg>
