<?xml version="1.0" encoding="UTF-8" standalone="no"?>
<!DOCTYPE svg PUBLIC "-//W3C//DTD SVG 1.1//EN"
 "http://www.w3.org/Graphics/SVG/1.1/DTD/svg11.dtd">
<!-- Generated by graphviz version 2.26.3 (20100126.1600)
 -->
<!-- Title: parse_opt Pages: 1 -->
<svg width="256pt" height="30pt"
 viewBox="0.00 0.00 256.00 30.00" xmlns="http://www.w3.org/2000/svg" xmlns:xlink="http://www.w3.org/1999/xlink">
<g id="graph1" class="graph" transform="scale(1 1) rotate(0) translate(4 26)">
<title>parse_opt</title>
<!-- Node1 -->
<g id="node1" class="node"><title>Node1</title>
<polygon fill="#bfbfbf" stroke="black" points="0.5,-0.5 0.5,-21.5 59.5,-21.5 59.5,-0.5 0.5,-0.5"/>
<text text-anchor="middle" x="30" y="-8.5" font-family="Helvetica,sans-Serif" font-size="10.00">parse_opt</text>
</g>
<!-- Node2 -->
<g id="node3" class="node"><title>Node2</title>
<a xlink:href="ventd_8c.html#ab065705c6d0b4619995c2f1a318d31ba" target="_top" xlink:title="Set up arg_p option parsing.">
<polygon fill="none" stroke="black" points="96.5,-0.5 96.5,-21.5 173.5,-21.5 173.5,-0.5 96.5,-0.5"/>
<text text-anchor="middle" x="135" y="-8.5" font-family="Helvetica,sans-Serif" font-size="10.00">parse_options</text>
</a>
</g>
<!-- Node1&#45;&gt;Node2 -->
<g id="edge2" class="edge"><title>Node1&#45;&gt;Node2</title>
<path fill="none" stroke="midnightblue" d="M69.7992,-11C78.4768,-11 87.6469,-11 96.2817,-11"/>
<polygon fill="midnightblue" stroke="midnightblue" points="69.5278,-7.5001 59.5278,-11 69.5277,-14.5001 69.5278,-7.5001"/>
</g>
<!-- Node3 -->
<g id="node5" class="node"><title>Node3</title>
<a xlink:href="ventd_8c.html#a3c04138a5bfe5d72780bb7e82a18e627" target="_top" xlink:title="main">
<polygon fill="none" stroke="black" points="210,-0.5 210,-21.5 248,-21.5 248,-0.5 210,-0.5"/>
<text text-anchor="middle" x="229" y="-8.5" font-family="Helvetica,sans-Serif" font-size="10.00">main</text>
</a>
</g>
<!-- Node2&#45;&gt;Node3 -->
<g id="edge4" class="edge"><title>Node2&#45;&gt;Node3</title>
<path fill="none" stroke="midnightblue" d="M183.632,-11C192.998,-11 202.278,-11 209.981,-11"/>
<polygon fill="midnightblue" stroke="midnightblue" points="183.505,-7.5001 173.505,-11 183.505,-14.5001 183.505,-7.5001"/>
</g>
</g>
</svg>
