<?xml version="1.0" encoding="UTF-8" standalone="no"?>
<!DOCTYPE svg PUBLIC "-//W3C//DTD SVG 1.1//EN"
 "http://www.w3.org/Graphics/SVG/1.1/DTD/svg11.dtd">
<!-- Generated by graphviz version 2.26.3 (20100126.1600)
 -->
<!-- Title: src/ventd.c Pages: 1 -->
<svg width="870pt" height="146pt"
 viewBox="0.00 0.00 870.00 146.00" xmlns="http://www.w3.org/2000/svg" xmlns:xlink="http://www.w3.org/1999/xlink">
<g id="graph1" class="graph" transform="scale(1 1) rotate(0) translate(4 142)">
<title>src/ventd.c</title>
<!-- Node1 -->
<g id="node1" class="node"><title>Node1</title>
<polygon fill="#bfbfbf" stroke="black" points="378.5,-116.5 378.5,-137.5 443.5,-137.5 443.5,-116.5 378.5,-116.5"/>
<text text-anchor="middle" x="411" y="-124.5" font-family="Helvetica,sans-Serif" font-size="10.00">src/ventd.c</text>
</g>
<!-- Node2 -->
<g id="node3" class="node"><title>Node2</title>
<polygon fill="none" stroke="#bfbfbf" points="-0.5,-58.5 -0.5,-79.5 64.5,-79.5 64.5,-58.5 -0.5,-58.5"/>
<text text-anchor="middle" x="32" y="-66.5" font-family="Helvetica,sans-Serif" font-size="10.00">configure.h</text>
</g>
<!-- Node1&#45;&gt;Node2 -->
<g id="edge2" class="edge"><title>Node1&#45;&gt;Node2</title>
<path fill="none" stroke="midnightblue" d="M378.143,-123.8C319.125,-117.757 191.149,-103.316 74.4047,-80.1114"/>
<polygon fill="midnightblue" stroke="midnightblue" points="75.0815,-76.6775 64.5872,-78.1336 73.699,-83.5396 75.0815,-76.6775"/>
</g>
<!-- Node3 -->
<g id="node5" class="node"><title>Node3</title>
<a xlink:href="ventd_8h.html" target="_top" xlink:title="ventd.h">
<polygon fill="none" stroke="black" points="81.5,-58.5 81.5,-79.5 130.5,-79.5 130.5,-58.5 81.5,-58.5"/>
<text text-anchor="middle" x="106" y="-66.5" font-family="Helvetica,sans-Serif" font-size="10.00">ventd.h</text>
</a>
</g>
<!-- Node1&#45;&gt;Node3 -->
<g id="edge4" class="edge"><title>Node1&#45;&gt;Node3</title>
<path fill="none" stroke="midnightblue" d="M378.302,-122.403C327.74,-115.035 227.674,-99.416 144,-80 142.93,-79.7516 141.844,-79.4913 140.751,-79.2215"/>
<polygon fill="midnightblue" stroke="midnightblue" points="141.399,-75.7728 130.837,-76.6046 139.612,-82.541 141.399,-75.7728"/>
</g>
<!-- Node4 -->
<g id="node7" class="node"><title>Node4</title>
<polygon fill="none" stroke="#bfbfbf" points="108,-0.5 108,-21.5 156,-21.5 156,-0.5 108,-0.5"/>
<text text-anchor="middle" x="132" y="-8.5" font-family="Helvetica,sans-Serif" font-size="10.00">stdlib.h</text>
</g>
<!-- Node1&#45;&gt;Node4 -->
<g id="edge10" class="edge"><title>Node1&#45;&gt;Node4</title>
<path fill="none" stroke="midnightblue" d="M378.413,-123.592C322.105,-117.196 209.502,-102.024 177,-80 159.421,-68.0881 147.096,-46.7832 139.844,-30.9878"/>
<polygon fill="midnightblue" stroke="midnightblue" points="142.96,-29.373 135.806,-21.5578 136.525,-32.1282 142.96,-29.373"/>
</g>
<!-- Node5 -->
<g id="node9" class="node"><title>Node5</title>
<polygon fill="none" stroke="#bfbfbf" points="186,-58.5 186,-79.5 232,-79.5 232,-58.5 186,-58.5"/>
<text text-anchor="middle" x="209" y="-66.5" font-family="Helvetica,sans-Serif" font-size="10.00">stdio.h</text>
</g>
<!-- Node1&#45;&gt;Node5 -->
<g id="edge8" class="edge"><title>Node1&#45;&gt;Node5</title>
<path fill="none" stroke="midnightblue" d="M378.237,-118.581C345.821,-110.11 294.603,-96.3506 241.583,-80.0615"/>
<polygon fill="midnightblue" stroke="midnightblue" points="242.604,-76.714 232.017,-77.1007 240.535,-83.4011 242.604,-76.714"/>
</g>
<!-- Node6 -->
<g id="node12" class="node"><title>Node6</title>
<polygon fill="none" stroke="#bfbfbf" points="249.5,-58.5 249.5,-79.5 298.5,-79.5 298.5,-58.5 249.5,-58.5"/>
<text text-anchor="middle" x="274" y="-66.5" font-family="Helvetica,sans-Serif" font-size="10.00">string.h</text>
</g>
<!-- Node1&#45;&gt;Node6 -->
<g id="edge12" class="edge"><title>Node1&#45;&gt;Node6</title>
<path fill="none" stroke="midnightblue" d="M386.19,-116.497C364.368,-107.258 332.392,-93.7209 308.156,-83.46"/>
<polygon fill="midnightblue" stroke="midnightblue" points="309.198,-80.1008 298.625,-79.4252 306.469,-86.5469 309.198,-80.1008"/>
</g>
<!-- Node7 -->
<g id="node14" class="node"><title>Node7</title>
<polygon fill="none" stroke="#bfbfbf" points="315.5,-58.5 315.5,-79.5 368.5,-79.5 368.5,-58.5 315.5,-58.5"/>
<text text-anchor="middle" x="342" y="-66.5" font-family="Helvetica,sans-Serif" font-size="10.00">syslog.h</text>
</g>
<!-- Node1&#45;&gt;Node7 -->
<g id="edge14" class="edge"><title>Node1&#45;&gt;Node7</title>
<path fill="none" stroke="midnightblue" d="M398.344,-116.362C388.326,-107.941 374.133,-96.0105 362.499,-86.2308"/>
<polygon fill="midnightblue" stroke="midnightblue" points="364.482,-83.326 354.575,-79.5707 359.978,-88.6844 364.482,-83.326"/>
</g>
<!-- Node8 -->
<g id="node16" class="node"><title>Node8</title>
<polygon fill="none" stroke="#bfbfbf" points="386,-58.5 386,-79.5 436,-79.5 436,-58.5 386,-58.5"/>
<text text-anchor="middle" x="411" y="-66.5" font-family="Helvetica,sans-Serif" font-size="10.00">signal.h</text>
</g>
<!-- Node1&#45;&gt;Node8 -->
<g id="edge16" class="edge"><title>Node1&#45;&gt;Node8</title>
<path fill="none" stroke="midnightblue" d="M411,-116.362C411,-108.922 411,-98.7427 411,-89.7276"/>
<polygon fill="midnightblue" stroke="midnightblue" points="414.5,-89.5706 411,-79.5707 407.5,-89.5707 414.5,-89.5706"/>
</g>
<!-- Node9 -->
<g id="node18" class="node"><title>Node9</title>
<polygon fill="none" stroke="#bfbfbf" points="454,-58.5 454,-79.5 498,-79.5 498,-58.5 454,-58.5"/>
<text text-anchor="middle" x="476" y="-66.5" font-family="Helvetica,sans-Serif" font-size="10.00">fcntl.h</text>
</g>
<!-- Node1&#45;&gt;Node9 -->
<g id="edge18" class="edge"><title>Node1&#45;&gt;Node9</title>
<path fill="none" stroke="midnightblue" d="M422.922,-116.362C432.359,-107.941 445.73,-96.0105 456.69,-86.2308"/>
<polygon fill="midnightblue" stroke="midnightblue" points="459.022,-88.8401 464.154,-79.5707 454.362,-83.6171 459.022,-88.8401"/>
</g>
<!-- Node10 -->
<g id="node20" class="node"><title>Node10</title>
<polygon fill="none" stroke="#bfbfbf" points="516,-58.5 516,-79.5 584,-79.5 584,-58.5 516,-58.5"/>
<text text-anchor="middle" x="550" y="-66.5" font-family="Helvetica,sans-Serif" font-size="10.00">sys/types.h</text>
</g>
<!-- Node1&#45;&gt;Node10 -->
<g id="edge20" class="edge"><title>Node1&#45;&gt;Node10</title>
<path fill="none" stroke="midnightblue" d="M436.172,-116.497C458.273,-107.275 490.639,-93.7695 515.213,-83.5153"/>
<polygon fill="midnightblue" stroke="midnightblue" points="516.665,-86.7022 524.546,-79.6212 513.969,-80.2421 516.665,-86.7022"/>
</g>
<!-- Node11 -->
<g id="node22" class="node"><title>Node11</title>
<polygon fill="none" stroke="#bfbfbf" points="602,-58.5 602,-79.5 662,-79.5 662,-58.5 602,-58.5"/>
<text text-anchor="middle" x="632" y="-66.5" font-family="Helvetica,sans-Serif" font-size="10.00">sys/stat.h</text>
</g>
<!-- Node1&#45;&gt;Node11 -->
<g id="edge22" class="edge"><title>Node1&#45;&gt;Node11</title>
<path fill="none" stroke="midnightblue" d="M443.605,-118.812C478.076,-110.105 534.283,-95.762 591.794,-80.2895"/>
<polygon fill="midnightblue" stroke="midnightblue" points="593.042,-83.5781 601.785,-77.5937 591.218,-76.8198 593.042,-83.5781"/>
</g>
<!-- Node12 -->
<g id="node24" class="node"><title>Node12</title>
<polygon fill="none" stroke="#bfbfbf" points="679.5,-58.5 679.5,-79.5 730.5,-79.5 730.5,-58.5 679.5,-58.5"/>
<text text-anchor="middle" x="705" y="-66.5" font-family="Helvetica,sans-Serif" font-size="10.00">unistd.h</text>
</g>
<!-- Node1&#45;&gt;Node12 -->
<g id="edge24" class="edge"><title>Node1&#45;&gt;Node12</title>
<path fill="none" stroke="midnightblue" d="M443.726,-122.524C491.469,-115.683 583.119,-101.378 669.523,-80.1456"/>
<polygon fill="midnightblue" stroke="midnightblue" points="670.631,-83.4764 679.487,-77.6599 668.937,-76.6846 670.631,-83.4764"/>
</g>
<!-- Node13 -->
<g id="node26" class="node"><title>Node13</title>
<polygon fill="none" stroke="#bfbfbf" points="748,-58.5 748,-79.5 792,-79.5 792,-58.5 748,-58.5"/>
<text text-anchor="middle" x="770" y="-66.5" font-family="Helvetica,sans-Serif" font-size="10.00">argp.h</text>
</g>
<!-- Node1&#45;&gt;Node13 -->
<g id="edge26" class="edge"><title>Node1&#45;&gt;Node13</title>
<path fill="none" stroke="midnightblue" d="M443.532,-124.494C501.241,-119.589 625.309,-106.967 737.989,-79.8749"/>
<polygon fill="midnightblue" stroke="midnightblue" points="738.93,-83.2479 747.81,-77.469 737.265,-76.4489 738.93,-83.2479"/>
</g>
<!-- Node14 -->
<g id="node28" class="node"><title>Node14</title>
<polygon fill="none" stroke="#bfbfbf" points="810,-58.5 810,-79.5 862,-79.5 862,-58.5 810,-58.5"/>
<text text-anchor="middle" x="836" y="-66.5" font-family="Helvetica,sans-Serif" font-size="10.00">assert.h</text>
</g>
<!-- Node1&#45;&gt;Node14 -->
<g id="edge28" class="edge"><title>Node1&#45;&gt;Node14</title>
<path fill="none" stroke="midnightblue" d="M443.694,-125.105C509.557,-120.85 662.919,-108.741 799.931,-79.9204"/>
<polygon fill="midnightblue" stroke="midnightblue" points="800.72,-83.3309 809.766,-77.8163 799.255,-76.4858 800.72,-83.3309"/>
</g>
<!-- Node3&#45;&gt;Node4 -->
<g id="edge6" class="edge"><title>Node3&#45;&gt;Node4</title>
<path fill="none" stroke="midnightblue" d="M110.769,-58.3619C114.214,-50.6766 118.969,-40.0686 123.106,-30.8399"/>
<polygon fill="midnightblue" stroke="midnightblue" points="126.365,-32.1275 127.261,-21.5707 119.977,-29.264 126.365,-32.1275"/>
</g>
</g>
</svg>
