<?xml version="1.0" encoding="UTF-8" standalone="no"?>
<!DOCTYPE svg PUBLIC "-//W3C//DTD SVG 1.1//EN"
 "http://www.w3.org/Graphics/SVG/1.1/DTD/svg11.dtd">
<!-- Generated by graphviz version 2.38.0 (20140413.2041)
 -->
<!-- Title: command_loop Pages: 1 -->
<svg width="183pt" height="64pt"
 viewBox="0.00 0.00 183.28 64.00" xmlns="http://www.w3.org/2000/svg" xmlns:xlink="http://www.w3.org/1999/xlink">
<g id="graph0" class="graph" transform="scale(1 1) rotate(0) translate(4 60)">
<title>command_loop</title>
<!-- Node1 -->
<g id="node1" class="node"><title>Node1</title>
<polygon fill="#bfbfbf" stroke="black" points="0,-18.5 0,-36.5 84.374,-36.5 84.374,-18.5 0,-18.5"/>
<text text-anchor="middle" x="42.187" y="-24.5" font-family="Helvetica,sans-Serif" font-size="10.00">command_loop</text>
</g>
<!-- Node2 -->
<g id="node2" class="node"><title>Node2</title>
<g id="a_node2"><a xlink:href="ventd_8c.html#ab449b3631df031cf379352e21a433adb" target="_top" xlink:title="readcmd">
<polygon fill="none" stroke="black" points="120.374,-37.5 120.374,-55.5 175.28,-55.5 175.28,-37.5 120.374,-37.5"/>
<text text-anchor="middle" x="147.827" y="-43.5" font-family="Helvetica,sans-Serif" font-size="10.00">readcmd</text>
</a>
</g>
</g>
<!-- Node1&#45;&gt;Node2 -->
<g id="edge1" class="edge"><title>Node1&#45;&gt;Node2</title>
<path fill="none" stroke="midnightblue" d="M84.4461,-35.0639C93.0343,-36.6383 102.027,-38.2869 110.425,-39.8265"/>
<polygon fill="midnightblue" stroke="midnightblue" points="109.839,-43.2774 120.306,-41.6381 111.102,-36.3921 109.839,-43.2774"/>
</g>
<!-- Node3 -->
<g id="node3" class="node"><title>Node3</title>
<g id="a_node3"><a xlink:href="control_8c.html#a156816dfaf4b4bf275c44f26d3e0c543" target="_top" xlink:title="execute">
<polygon fill="none" stroke="black" points="122.315,-0.5 122.315,-18.5 173.339,-18.5 173.339,-0.5 122.315,-0.5"/>
<text text-anchor="middle" x="147.827" y="-6.5" font-family="Helvetica,sans-Serif" font-size="10.00">execute</text>
</a>
</g>
</g>
<!-- Node1&#45;&gt;Node3 -->
<g id="edge2" class="edge"><title>Node1&#45;&gt;Node3</title>
<path fill="none" stroke="midnightblue" d="M84.4461,-20.3342C93.6156,-18.7417 103.246,-17.0691 112.121,-15.5276"/>
<polygon fill="midnightblue" stroke="midnightblue" points="112.867,-18.9505 122.121,-13.7909 111.67,-12.0538 112.867,-18.9505"/>
</g>
</g>
</svg>
