<?xml version="1.0" encoding="UTF-8" standalone="no"?>
<!DOCTYPE svg PUBLIC "-//W3C//DTD SVG 1.1//EN"
 "http://www.w3.org/Graphics/SVG/1.1/DTD/svg11.dtd">
<!-- Generated by graphviz version 2.26.3 (20100126.1600)
 -->
<!-- Title: readcmd Pages: 1 -->
<svg width="256pt" height="30pt"
 viewBox="0.00 0.00 256.00 30.00" xmlns="http://www.w3.org/2000/svg" xmlns:xlink="http://www.w3.org/1999/xlink">
<g id="graph1" class="graph" transform="scale(1 1) rotate(0) translate(4 26)">
<title>readcmd</title>
<!-- Node1 -->
<g id="node1" class="node"><title>Node1</title>
<polygon fill="#bfbfbf" stroke="black" points="0,-0.5 0,-21.5 54,-21.5 54,-0.5 0,-0.5"/>
<text text-anchor="middle" x="27" y="-8.5" font-family="Helvetica,sans-Serif" font-size="10.00">readcmd</text>
</g>
<!-- Node2 -->
<g id="node3" class="node"><title>Node2</title>
<a xlink:href="ventd_8h.html#afb21092d2ff9f3777a77bb74e37db7b1" target="_top" xlink:title="continuously read on the control file descriptor, and execute commands received.">
<polygon fill="none" stroke="black" points="90.5,-0.5 90.5,-21.5 173.5,-21.5 173.5,-0.5 90.5,-0.5"/>
<text text-anchor="middle" x="132" y="-8.5" font-family="Helvetica,sans-Serif" font-size="10.00">command_loop</text>
</a>
</g>
<!-- Node1&#45;&gt;Node2 -->
<g id="edge2" class="edge"><title>Node1&#45;&gt;Node2</title>
<path fill="none" stroke="midnightblue" d="M64.0609,-11C72.5734,-11 81.6804,-11 90.3716,-11"/>
<polygon fill="midnightblue" stroke="midnightblue" points="64.0401,-7.5001 54.0401,-11 64.0401,-14.5001 64.0401,-7.5001"/>
</g>
<!-- Node3 -->
<g id="node5" class="node"><title>Node3</title>
<a xlink:href="ventd_8c.html#a3c04138a5bfe5d72780bb7e82a18e627" target="_top" xlink:title="main">
<polygon fill="none" stroke="black" points="210,-0.5 210,-21.5 248,-21.5 248,-0.5 210,-0.5"/>
<text text-anchor="middle" x="229" y="-8.5" font-family="Helvetica,sans-Serif" font-size="10.00">main</text>
</a>
</g>
<!-- Node2&#45;&gt;Node3 -->
<g id="edge4" class="edge"><title>Node2&#45;&gt;Node3</title>
<path fill="none" stroke="midnightblue" d="M183.832,-11C193.171,-11 202.345,-11 209.959,-11"/>
<polygon fill="midnightblue" stroke="midnightblue" points="183.7,-7.5001 173.7,-11 183.7,-14.5001 183.7,-7.5001"/>
</g>
</g>
</svg>
