<?xml version="1.0" encoding="UTF-8" standalone="no"?>
<!DOCTYPE svg PUBLIC "-//W3C//DTD SVG 1.1//EN"
 "http://www.w3.org/Graphics/SVG/1.1/DTD/svg11.dtd">
<!-- Generated by graphviz version 2.38.0 (20140413.2041)
 -->
<!-- Title: main Pages: 1 -->
<svg width="263pt" height="156pt"
 viewBox="0.00 0.00 262.53 156.00" xmlns="http://www.w3.org/2000/svg" xmlns:xlink="http://www.w3.org/1999/xlink">
<g id="graph0" class="graph" transform="scale(1 1) rotate(0) translate(4 152)">
<title>main</title>
<!-- Node1 -->
<g id="node1" class="node"><title>Node1</title>
<polygon fill="#bfbfbf" stroke="black" points="0,-73.5 0,-91.5 37.6748,-91.5 37.6748,-73.5 0,-73.5"/>
<text text-anchor="middle" x="18.8374" y="-79.5" font-family="Helvetica,sans-Serif" font-size="10.00">main</text>
</g>
<!-- Node2 -->
<g id="node2" class="node"><title>Node2</title>
<g id="a_node2"><a xlink:href="ventd_8c.html#ab065705c6d0b4619995c2f1a318d31ba" target="_top" xlink:title="parse_options">
<polygon fill="none" stroke="black" points="76.4507,-129.5 76.4507,-147.5 155.273,-147.5 155.273,-129.5 76.4507,-129.5"/>
<text text-anchor="middle" x="115.862" y="-135.5" font-family="Helvetica,sans-Serif" font-size="10.00">parse_options</text>
</a>
</g>
</g>
<!-- Node1&#45;&gt;Node2 -->
<g id="edge1" class="edge"><title>Node1&#45;&gt;Node2</title>
<path fill="none" stroke="midnightblue" d="M31.3577,-91.67C41.9621,-99.8541 58.3271,-111.848 73.6748,-120.5 76.5299,-122.109 79.5568,-123.675 82.6222,-125.169"/>
<polygon fill="midnightblue" stroke="midnightblue" points="81.2544,-128.392 91.801,-129.401 84.1858,-122.035 81.2544,-128.392"/>
</g>
<!-- Node4 -->
<g id="node4" class="node"><title>Node4</title>
<g id="a_node4"><a xlink:href="ventd_8c.html#ae710b6e1e3475f05843032f73a4dd7a7" target="_top" xlink:title="signal_handler">
<polygon fill="none" stroke="black" points="75.3374,-92.5 75.3374,-110.5 156.386,-110.5 156.386,-92.5 75.3374,-92.5"/>
<text text-anchor="middle" x="115.862" y="-98.5" font-family="Helvetica,sans-Serif" font-size="10.00">signal_handler</text>
</a>
</g>
</g>
<!-- Node1&#45;&gt;Node4 -->
<g id="edge3" class="edge"><title>Node1&#45;&gt;Node4</title>
<path fill="none" stroke="midnightblue" d="M37.7108,-86.0738C45.6138,-87.654 55.3385,-89.5984 65.1873,-91.5676"/>
<polygon fill="midnightblue" stroke="midnightblue" points="64.5225,-95.0039 75.0146,-93.5326 65.895,-88.1398 64.5225,-95.0039"/>
</g>
<!-- Node5 -->
<g id="node5" class="node"><title>Node5</title>
<g id="a_node5"><a xlink:href="ventd_8c.html#a6d3ff0af9dd1932c1c031b2c51d88ee0" target="_top" xlink:title="term">
<polygon fill="none" stroke="black" points="97.8618,-55.5 97.8618,-73.5 133.862,-73.5 133.862,-55.5 97.8618,-55.5"/>
<text text-anchor="middle" x="115.862" y="-61.5" font-family="Helvetica,sans-Serif" font-size="10.00">term</text>
</a>
</g>
</g>
<!-- Node1&#45;&gt;Node5 -->
<g id="edge4" class="edge"><title>Node1&#45;&gt;Node5</title>
<path fill="none" stroke="midnightblue" d="M37.7108,-79.1143C51.8233,-76.4411 71.7447,-72.6675 87.8089,-69.6245"/>
<polygon fill="midnightblue" stroke="midnightblue" points="88.5348,-73.0493 97.7086,-67.7492 87.2319,-66.1716 88.5348,-73.0493"/>
</g>
<!-- Node6 -->
<g id="node6" class="node"><title>Node6</title>
<g id="a_node6"><a xlink:href="control_8c.html#afb21092d2ff9f3777a77bb74e37db7b1" target="_top" xlink:title="command_loop">
<polygon fill="none" stroke="black" points="73.6748,-18.5 73.6748,-36.5 158.049,-36.5 158.049,-18.5 73.6748,-18.5"/>
<text text-anchor="middle" x="115.862" y="-24.5" font-family="Helvetica,sans-Serif" font-size="10.00">command_loop</text>
</a>
</g>
</g>
<!-- Node1&#45;&gt;Node6 -->
<g id="edge5" class="edge"><title>Node1&#45;&gt;Node6</title>
<path fill="none" stroke="midnightblue" d="M32.317,-73.3359C43.0071,-65.6878 58.9619,-54.7454 73.6748,-46.5 77.131,-44.5631 80.8196,-42.6536 84.5156,-40.8356"/>
<polygon fill="midnightblue" stroke="midnightblue" points="86.0485,-43.9824 93.5906,-36.5415 83.0544,-37.655 86.0485,-43.9824"/>
</g>
<!-- Node3 -->
<g id="node3" class="node"><title>Node3</title>
<g id="a_node3"><a xlink:href="ventd_8c.html#aaf7bc24f3891f0c63a6043f4dc2ab311" target="_top" xlink:title="parse_opt">
<polygon fill="none" stroke="black" points="194.049,-129.5 194.049,-147.5 254.526,-147.5 254.526,-129.5 194.049,-129.5"/>
<text text-anchor="middle" x="224.288" y="-135.5" font-family="Helvetica,sans-Serif" font-size="10.00">parse_opt</text>
</a>
</g>
</g>
<!-- Node2&#45;&gt;Node3 -->
<g id="edge2" class="edge"><title>Node2&#45;&gt;Node3</title>
<path fill="none" stroke="midnightblue" d="M155.284,-138.5C164.541,-138.5 174.448,-138.5 183.755,-138.5"/>
<polygon fill="midnightblue" stroke="midnightblue" points="183.942,-142 193.942,-138.5 183.942,-135 183.942,-142"/>
</g>
<!-- Node7 -->
<g id="node7" class="node"><title>Node7</title>
<g id="a_node7"><a xlink:href="ventd_8c.html#ab449b3631df031cf379352e21a433adb" target="_top" xlink:title="readcmd">
<polygon fill="none" stroke="black" points="196.834,-37.5 196.834,-55.5 251.741,-55.5 251.741,-37.5 196.834,-37.5"/>
<text text-anchor="middle" x="224.288" y="-43.5" font-family="Helvetica,sans-Serif" font-size="10.00">readcmd</text>
</a>
</g>
</g>
<!-- Node6&#45;&gt;Node7 -->
<g id="edge6" class="edge"><title>Node6&#45;&gt;Node7</title>
<path fill="none" stroke="midnightblue" d="M158.314,-34.9003C167.643,-36.5658 177.48,-38.322 186.598,-39.9499"/>
<polygon fill="midnightblue" stroke="midnightblue" points="186.063,-43.4095 196.522,-41.7216 187.293,-36.5185 186.063,-43.4095"/>
</g>
<!-- Node8 -->
<g id="node8" class="node"><title>Node8</title>
<g id="a_node8"><a xlink:href="control_8c.html#a156816dfaf4b4bf275c44f26d3e0c543" target="_top" xlink:title="execute">
<polygon fill="none" stroke="black" points="198.775,-0.5 198.775,-18.5 249.8,-18.5 249.8,-0.5 198.775,-0.5"/>
<text text-anchor="middle" x="224.288" y="-6.5" font-family="Helvetica,sans-Serif" font-size="10.00">execute</text>
</a>
</g>
</g>
<!-- Node6&#45;&gt;Node8 -->
<g id="edge7" class="edge"><title>Node6&#45;&gt;Node8</title>
<path fill="none" stroke="midnightblue" d="M158.314,-20.4892C168.343,-18.7929 178.959,-16.9973 188.639,-15.3602"/>
<polygon fill="midnightblue" stroke="midnightblue" points="189.426,-18.7769 198.702,-13.6582 188.259,-11.8749 189.426,-18.7769"/>
</g>
</g>
</svg>
