<?xml version="1.0" encoding="UTF-8" standalone="no"?>
<!DOCTYPE svg PUBLIC "-//W3C//DTD SVG 1.1//EN"
 "http://www.w3.org/Graphics/SVG/1.1/DTD/svg11.dtd">
<!-- Generated by graphviz version 2.26.3 (20100126.1600)
 -->
<!-- Title: src/ventd.h Pages: 1 -->
<svg width="325pt" height="146pt"
 viewBox="0.00 0.00 325.00 146.00" xmlns="http://www.w3.org/2000/svg" xmlns:xlink="http://www.w3.org/1999/xlink">
<g id="graph1" class="graph" transform="scale(1 1) rotate(0) translate(4 142)">
<title>src/ventd.h</title>
<!-- Node1 -->
<g id="node1" class="node"><title>Node1</title>
<polygon fill="#bfbfbf" stroke="black" points="192.5,-116.5 192.5,-137.5 257.5,-137.5 257.5,-116.5 192.5,-116.5"/>
<text text-anchor="middle" x="225" y="-124.5" font-family="Helvetica,sans-Serif" font-size="10.00">src/ventd.h</text>
</g>
<!-- Node2 -->
<g id="node3" class="node"><title>Node2</title>
<a xlink:href="commands_8h.html" target="_top" xlink:title="src/commands.h">
<polygon fill="none" stroke="black" points="100.5,-58.5 100.5,-79.5 189.5,-79.5 189.5,-58.5 100.5,-58.5"/>
<text text-anchor="middle" x="145" y="-66.5" font-family="Helvetica,sans-Serif" font-size="10.00">src/commands.h</text>
</a>
</g>
<!-- Node1&#45;&gt;Node2 -->
<g id="edge2" class="edge"><title>Node1&#45;&gt;Node2</title>
<path fill="none" stroke="midnightblue" d="M201.908,-110.259C188.261,-100.364 171.395,-88.1361 159.58,-79.5707"/>
<polygon fill="midnightblue" stroke="midnightblue" points="200.176,-113.326 210.327,-116.362 204.285,-107.659 200.176,-113.326"/>
</g>
<!-- Node4 -->
<g id="node7" class="node"><title>Node4</title>
<a xlink:href="control_8c.html" target="_top" xlink:title="src/control.c">
<polygon fill="none" stroke="black" points="193.5,-0.5 193.5,-21.5 264.5,-21.5 264.5,-0.5 193.5,-0.5"/>
<text text-anchor="middle" x="229" y="-8.5" font-family="Helvetica,sans-Serif" font-size="10.00">src/control.c</text>
</a>
</g>
<!-- Node1&#45;&gt;Node4 -->
<g id="edge10" class="edge"><title>Node1&#45;&gt;Node4</title>
<path fill="none" stroke="midnightblue" d="M225.72,-106.123C226.576,-81.2984 227.972,-40.8235 228.632,-21.6792"/>
<polygon fill="midnightblue" stroke="midnightblue" points="222.216,-106.18 225.369,-116.295 229.212,-106.422 222.216,-106.18"/>
</g>
<!-- Node6 -->
<g id="node12" class="node"><title>Node6</title>
<a xlink:href="ventd_8c.html" target="_top" xlink:title="src/ventd.c">
<polygon fill="none" stroke="black" points="252.5,-58.5 252.5,-79.5 317.5,-79.5 317.5,-58.5 252.5,-58.5"/>
<text text-anchor="middle" x="285" y="-66.5" font-family="Helvetica,sans-Serif" font-size="10.00">src/ventd.c</text>
</a>
</g>
<!-- Node1&#45;&gt;Node6 -->
<g id="edge12" class="edge"><title>Node1&#45;&gt;Node6</title>
<path fill="none" stroke="midnightblue" d="M243.202,-109.405C253.274,-99.6683 265.457,-87.8914 274.065,-79.5707"/>
<polygon fill="midnightblue" stroke="midnightblue" points="240.762,-106.895 236.005,-116.362 245.627,-111.928 240.762,-106.895"/>
</g>
<!-- Node3 -->
<g id="node5" class="node"><title>Node3</title>
<a xlink:href="commands_8c.html" target="_top" xlink:title="src/commands.c">
<polygon fill="none" stroke="black" points="-0.5,-0.5 -0.5,-21.5 88.5,-21.5 88.5,-0.5 -0.5,-0.5"/>
<text text-anchor="middle" x="44" y="-8.5" font-family="Helvetica,sans-Serif" font-size="10.00">src/commands.c</text>
</a>
</g>
<!-- Node2&#45;&gt;Node3 -->
<g id="edge4" class="edge"><title>Node2&#45;&gt;Node3</title>
<path fill="none" stroke="midnightblue" d="M117.798,-53.379C100.248,-43.3011 77.8915,-30.4624 62.4075,-21.5707"/>
<polygon fill="midnightblue" stroke="midnightblue" points="116.06,-56.4171 126.475,-58.3619 119.546,-50.3468 116.06,-56.4171"/>
</g>
<!-- Node2&#45;&gt;Node4 -->
<g id="edge6" class="edge"><title>Node2&#45;&gt;Node4</title>
<path fill="none" stroke="midnightblue" d="M168.838,-52.5407C183.238,-42.5973 201.167,-30.2177 213.691,-21.5707"/>
<polygon fill="midnightblue" stroke="midnightblue" points="166.647,-49.7998 160.407,-58.3619 170.625,-55.5601 166.647,-49.7998"/>
</g>
<!-- Node5 -->
<g id="node9" class="node"><title>Node5</title>
<a xlink:href="spawn_8c.html" target="_top" xlink:title="src/spawn.c">
<polygon fill="none" stroke="black" points="106,-0.5 106,-21.5 176,-21.5 176,-0.5 106,-0.5"/>
<text text-anchor="middle" x="141" y="-8.5" font-family="Helvetica,sans-Serif" font-size="10.00">src/spawn.c</text>
</a>
</g>
<!-- Node2&#45;&gt;Node5 -->
<g id="edge8" class="edge"><title>Node2&#45;&gt;Node5</title>
<path fill="none" stroke="midnightblue" d="M143.565,-48.1906C142.943,-39.1684 142.241,-28.9941 141.729,-21.5707"/>
<polygon fill="midnightblue" stroke="midnightblue" points="140.087,-48.6264 144.266,-58.3619 147.07,-48.1448 140.087,-48.6264"/>
</g>
</g>
</svg>
