<?xml version="1.0" encoding="UTF-8" standalone="no"?>
<!DOCTYPE svg PUBLIC "-//W3C//DTD SVG 1.1//EN"
 "http://www.w3.org/Graphics/SVG/1.1/DTD/svg11.dtd">
<!-- Generated by graphviz version 2.38.0 (20140413.2041)
 -->
<!-- Title: readcmd Pages: 1 -->
<svg width="257pt" height="27pt"
 viewBox="0.00 0.00 256.96 27.00" xmlns="http://www.w3.org/2000/svg" xmlns:xlink="http://www.w3.org/1999/xlink">
<g id="graph0" class="graph" transform="scale(1 1) rotate(0) translate(4 23)">
<title>readcmd</title>
<!-- Node1 -->
<g id="node1" class="node"><title>Node1</title>
<polygon fill="#bfbfbf" stroke="black" points="0,-0.5 0,-18.5 54.9062,-18.5 54.9062,-0.5 0,-0.5"/>
<text text-anchor="middle" x="27.4531" y="-6.5" font-family="Helvetica,sans-Serif" font-size="10.00">readcmd</text>
</g>
<!-- Node2 -->
<g id="node2" class="node"><title>Node2</title>
<g id="a_node2"><a xlink:href="ventd_8h.html#afb21092d2ff9f3777a77bb74e37db7b1" target="_top" xlink:title="command_loop">
<polygon fill="none" stroke="black" points="90.9062,-0.5 90.9062,-18.5 175.28,-18.5 175.28,-0.5 90.9062,-0.5"/>
<text text-anchor="middle" x="133.093" y="-6.5" font-family="Helvetica,sans-Serif" font-size="10.00">command_loop</text>
</a>
</g>
</g>
<!-- Node1&#45;&gt;Node2 -->
<g id="edge1" class="edge"><title>Node1&#45;&gt;Node2</title>
<path fill="none" stroke="midnightblue" d="M65.1954,-9.5C73.4214,-9.5 82.2026,-9.5 90.6059,-9.5"/>
<polygon fill="midnightblue" stroke="midnightblue" points="65.1431,-6.0001 55.143,-9.5 65.143,-13.0001 65.1431,-6.0001"/>
</g>
<!-- Node3 -->
<g id="node3" class="node"><title>Node3</title>
<g id="a_node3"><a xlink:href="ventd_8c.html#a3c04138a5bfe5d72780bb7e82a18e627" target="_top" xlink:title="main">
<polygon fill="none" stroke="black" points="211.28,-0.5 211.28,-18.5 248.955,-18.5 248.955,-0.5 211.28,-0.5"/>
<text text-anchor="middle" x="230.118" y="-6.5" font-family="Helvetica,sans-Serif" font-size="10.00">main</text>
</a>
</g>
</g>
<!-- Node2&#45;&gt;Node3 -->
<g id="edge2" class="edge"><title>Node2&#45;&gt;Node3</title>
<path fill="none" stroke="midnightblue" d="M185.727,-9.5C194.775,-9.5 203.623,-9.5 210.944,-9.5"/>
<polygon fill="midnightblue" stroke="midnightblue" points="185.496,-6.0001 175.496,-9.5 185.496,-13.0001 185.496,-6.0001"/>
</g>
</g>
</svg>
