<?xml version="1.0" encoding="UTF-8" standalone="no"?>
<!DOCTYPE svg PUBLIC "-//W3C//DTD SVG 1.1//EN"
 "http://www.w3.org/Graphics/SVG/1.1/DTD/svg11.dtd">
<!-- Generated by graphviz version 2.38.0 (20140413.2041)
 -->
<!-- Title: parse_opt Pages: 1 -->
<svg width="257pt" height="27pt"
 viewBox="0.00 0.00 256.97 27.00" xmlns="http://www.w3.org/2000/svg" xmlns:xlink="http://www.w3.org/1999/xlink">
<g id="graph0" class="graph" transform="scale(1 1) rotate(0) translate(4 23)">
<title>parse_opt</title>
<!-- Node1 -->
<g id="node1" class="node"><title>Node1</title>
<polygon fill="#bfbfbf" stroke="black" points="0,-0.5 0,-18.5 60.4775,-18.5 60.4775,-0.5 0,-0.5"/>
<text text-anchor="middle" x="30.2388" y="-6.5" font-family="Helvetica,sans-Serif" font-size="10.00">parse_opt</text>
</g>
<!-- Node2 -->
<g id="node2" class="node"><title>Node2</title>
<g id="a_node2"><a xlink:href="ventd_8c.html#ab065705c6d0b4619995c2f1a318d31ba" target="_top" xlink:title="parse_options">
<polygon fill="none" stroke="black" points="96.4775,-0.5 96.4775,-18.5 175.3,-18.5 175.3,-0.5 96.4775,-0.5"/>
<text text-anchor="middle" x="135.889" y="-6.5" font-family="Helvetica,sans-Serif" font-size="10.00">parse_options</text>
</a>
</g>
</g>
<!-- Node1&#45;&gt;Node2 -->
<g id="edge1" class="edge"><title>Node1&#45;&gt;Node2</title>
<path fill="none" stroke="midnightblue" d="M70.6797,-9.5C79.1348,-9.5 88.0571,-9.5 96.4728,-9.5"/>
<polygon fill="midnightblue" stroke="midnightblue" points="70.6635,-6.0001 60.6634,-9.5 70.6634,-13.0001 70.6635,-6.0001"/>
</g>
<!-- Node3 -->
<g id="node3" class="node"><title>Node3</title>
<g id="a_node3"><a xlink:href="ventd_8c.html#a3c04138a5bfe5d72780bb7e82a18e627" target="_top" xlink:title="main">
<polygon fill="none" stroke="black" points="211.3,-0.5 211.3,-18.5 248.975,-18.5 248.975,-0.5 211.3,-0.5"/>
<text text-anchor="middle" x="230.137" y="-6.5" font-family="Helvetica,sans-Serif" font-size="10.00">main</text>
</a>
</g>
</g>
<!-- Node2&#45;&gt;Node3 -->
<g id="edge2" class="edge"><title>Node2&#45;&gt;Node3</title>
<path fill="none" stroke="midnightblue" d="M185.61,-9.5C194.601,-9.5 203.461,-9.5 210.815,-9.5"/>
<polygon fill="midnightblue" stroke="midnightblue" points="185.476,-6.0001 175.476,-9.5 185.476,-13.0001 185.476,-6.0001"/>
</g>
</g>
</svg>
